STARTFONT 2.1
FONT -gnu-GameBitMono-Medium-R-Normal-Sans-16-160-75-75-c-80-iso10646-1
SIZE 16 75 75
FONTBOUNDINGBOX 16 16 0 -2
STARTPROPERTIES 24
COPYRIGHT "Copyright (C) 1998-2021 Trevor L Davis, Roman Czyborra, Paul Hardy, et al. License: SIL Open Font License version 1.1 and GPLv2+: GNU GPL version 2 or later <http://gnu.org/licenses/gpl.html> with the GNU Font Embedding Exception."
FONT_VERSION "0.1.0-13"
FONT_TYPE "Bitmap"
FOUNDRY "GNU"
FAMILY_NAME "Game Bit Mono"
WEIGHT_NAME "Medium"
SLANT "R"
SETWIDTH_NAME "Normal"
ADD_STYLE_NAME "Sans Serif"
PIXEL_SIZE 16
POINT_SIZE 160
RESOLUTION_X 75
RESOLUTION_Y 75
SPACING "C"
AVERAGE_WIDTH 80
CHARSET_REGISTRY "ISO10646"
CHARSET_ENCODING "1"
UNDERLINE_POSITION -2
UNDERLINE_THICKNESS 1
CAP_HEIGHT 10
X_HEIGHT 8
FONT_ASCENT 14
FONT_DESCENT 2
DEFAULT_CHAR 65533
ENDPROPERTIES
CHARS 1321
STARTCHAR U+0020
ENCODING 32
SWIDTH 1000 0
DWIDTH 16 0
BBX 16 16 0 -2
BITMAP 
0000
0000
0000
0000
0000
0000
0000
0000
0000
0000
0000
0000
0000
0000
0000
0000
ENDCHAR
STARTCHAR U+0021
ENCODING 33
SWIDTH 1000 0
DWIDTH 16 0
BBX 16 16 0 -2
BITMAP 
0000
0000
0000
0000
0080
0080
0080
0080
0080
0080
0080
0000
0080
0080
0000
0000
ENDCHAR
STARTCHAR U+0022
ENCODING 34
SWIDTH 1000 0
DWIDTH 16 0
BBX 16 16 0 -2
BITMAP 
0000
0000
0220
0220
0220
0220
0000
0000
0000
0000
0000
0000
0000
0000
0000
0000
ENDCHAR
STARTCHAR U+0023
ENCODING 35
SWIDTH 1000 0
DWIDTH 16 0
BBX 16 16 0 -2
BITMAP 
0000
0000
0000
0000
0120
0120
0120
07E0
0240
0240
07E0
0480
0480
0480
0000
0000
ENDCHAR
STARTCHAR U+0024
ENCODING 36
SWIDTH 1000 0
DWIDTH 16 0
BBX 16 16 0 -2
BITMAP 
0000
0000
0000
0000
0080
03E0
0490
0480
0380
00E0
0090
0490
03E0
0080
0000
0000
ENDCHAR
STARTCHAR U+0025
ENCODING 37
SWIDTH 1000 0
DWIDTH 16 0
BBX 16 16 0 -2
BITMAP 
0000
0000
0000
0000
0310
04A0
04A0
0340
0080
0080
0160
0290
0290
0460
0000
0000
ENDCHAR
STARTCHAR U+0026
ENCODING 38
SWIDTH 1000 0
DWIDTH 16 0
BBX 16 16 0 -2
BITMAP 
0000
0000
0000
0000
01C0
0220
0220
0140
0180
0290
0450
0420
0460
0390
0000
0000
ENDCHAR
STARTCHAR U+0027
ENCODING 39
SWIDTH 1000 0
DWIDTH 16 0
BBX 16 16 0 -2
BITMAP 
0000
0000
0080
0080
0080
0080
0000
0000
0000
0000
0000
0000
0000
0000
0000
0000
ENDCHAR
STARTCHAR U+0028
ENCODING 40
SWIDTH 1000 0
DWIDTH 16 0
BBX 16 16 0 -2
BITMAP 
0000
0000
0000
0040
0080
0080
0100
0100
0100
0100
0100
0100
0080
0080
0040
0000
ENDCHAR
STARTCHAR U+0029
ENCODING 41
SWIDTH 1000 0
DWIDTH 16 0
BBX 16 16 0 -2
BITMAP 
0000
0000
0000
0200
0100
0100
0080
0080
0080
0080
0080
0080
0100
0100
0200
0000
ENDCHAR
STARTCHAR U+002A
ENCODING 42
SWIDTH 1000 0
DWIDTH 16 0
BBX 16 16 0 -2
BITMAP 
0000
0000
0000
0000
0000
0000
0080
0490
02A0
01C0
02A0
0490
0080
0000
0000
0000
ENDCHAR
STARTCHAR U+002B
ENCODING 43
SWIDTH 1000 0
DWIDTH 16 0
BBX 16 16 0 -2
BITMAP 
0000
0000
0000
0000
0000
0000
0080
0080
0080
07F0
0080
0080
0080
0000
0000
0000
ENDCHAR
STARTCHAR U+002C
ENCODING 44
SWIDTH 1000 0
DWIDTH 16 0
BBX 16 16 0 -2
BITMAP 
0000
0000
0000
0000
0000
0000
0000
0000
0000
0000
0000
0000
0180
0080
0080
0100
ENDCHAR
STARTCHAR U+002D
ENCODING 45
SWIDTH 1000 0
DWIDTH 16 0
BBX 16 16 0 -2
BITMAP 
0000
0000
0000
0000
0000
0000
0000
0000
0000
03C0
0000
0000
0000
0000
0000
0000
ENDCHAR
STARTCHAR U+002E
ENCODING 46
SWIDTH 1000 0
DWIDTH 16 0
BBX 16 16 0 -2
BITMAP 
0000
0000
0000
0000
0000
0000
0000
0000
0000
0000
0000
0000
0180
0180
0000
0000
ENDCHAR
STARTCHAR U+002F
ENCODING 47
SWIDTH 1000 0
DWIDTH 16 0
BBX 16 16 0 -2
BITMAP 
0000
0000
0000
0000
0020
0020
0040
0080
0080
0100
0100
0200
0400
0400
0000
0000
ENDCHAR
STARTCHAR U+0030
ENCODING 48
SWIDTH 1000 0
DWIDTH 16 0
BBX 16 16 0 -2
BITMAP 
0000
0000
0000
0000
0180
0240
0420
0460
04A0
0520
0620
0420
0240
0180
0000
0000
ENDCHAR
STARTCHAR U+0031
ENCODING 49
SWIDTH 1000 0
DWIDTH 16 0
BBX 16 16 0 -2
BITMAP 
0000
0000
0000
0000
0080
0180
0280
0080
0080
0080
0080
0080
0080
03E0
0000
0000
ENDCHAR
STARTCHAR U+0032
ENCODING 50
SWIDTH 1000 0
DWIDTH 16 0
BBX 16 16 0 -2
BITMAP 
0000
0000
0000
0000
03C0
0420
0420
0020
00C0
0100
0200
0400
0400
07E0
0000
0000
ENDCHAR
STARTCHAR U+0033
ENCODING 51
SWIDTH 1000 0
DWIDTH 16 0
BBX 16 16 0 -2
BITMAP 
0000
0000
0000
0000
03C0
0420
0420
0020
01C0
0020
0020
0420
0420
03C0
0000
0000
ENDCHAR
STARTCHAR U+0034
ENCODING 52
SWIDTH 1000 0
DWIDTH 16 0
BBX 16 16 0 -2
BITMAP 
0000
0000
0000
0000
0040
00C0
0140
0240
0440
0440
07E0
0040
0040
0040
0000
0000
ENDCHAR
STARTCHAR U+0035
ENCODING 53
SWIDTH 1000 0
DWIDTH 16 0
BBX 16 16 0 -2
BITMAP 
0000
0000
0000
0000
07E0
0400
0400
0400
07C0
0020
0020
0020
0420
03C0
0000
0000
ENDCHAR
STARTCHAR U+0036
ENCODING 54
SWIDTH 1000 0
DWIDTH 16 0
BBX 16 16 0 -2
BITMAP 
0000
0000
0000
0000
01C0
0200
0400
0400
07C0
0420
0420
0420
0420
03C0
0000
0000
ENDCHAR
STARTCHAR U+0037
ENCODING 55
SWIDTH 1000 0
DWIDTH 16 0
BBX 16 16 0 -2
BITMAP 
0000
0000
0000
0000
07E0
0020
0020
0040
0040
0040
0080
0080
0080
0080
0000
0000
ENDCHAR
STARTCHAR U+0038
ENCODING 56
SWIDTH 1000 0
DWIDTH 16 0
BBX 16 16 0 -2
BITMAP 
0000
0000
0000
0000
03C0
0420
0420
0420
03C0
0420
0420
0420
0420
03C0
0000
0000
ENDCHAR
STARTCHAR U+0039
ENCODING 57
SWIDTH 1000 0
DWIDTH 16 0
BBX 16 16 0 -2
BITMAP 
0000
0000
0000
0000
03C0
0420
0420
0420
03E0
0020
0020
0020
0040
0380
0000
0000
ENDCHAR
STARTCHAR U+003A
ENCODING 58
SWIDTH 1000 0
DWIDTH 16 0
BBX 16 16 0 -2
BITMAP 
0000
0000
0000
0000
0000
0000
0180
0180
0000
0000
0000
0180
0180
0000
0000
0000
ENDCHAR
STARTCHAR U+003B
ENCODING 59
SWIDTH 1000 0
DWIDTH 16 0
BBX 16 16 0 -2
BITMAP 
0000
0000
0000
0000
0000
0000
0180
0180
0000
0000
0000
0180
0080
0080
0100
0000
ENDCHAR
STARTCHAR U+003C
ENCODING 60
SWIDTH 1000 0
DWIDTH 16 0
BBX 16 16 0 -2
BITMAP 
0000
0000
0000
0000
0000
0020
0040
0080
0100
0200
0100
0080
0040
0020
0000
0000
ENDCHAR
STARTCHAR U+003D
ENCODING 61
SWIDTH 1000 0
DWIDTH 16 0
BBX 16 16 0 -2
BITMAP 
0000
0000
0000
0000
0000
0000
0000
07E0
0000
0000
0000
07E0
0000
0000
0000
0000
ENDCHAR
STARTCHAR U+003E
ENCODING 62
SWIDTH 1000 0
DWIDTH 16 0
BBX 16 16 0 -2
BITMAP 
0000
0000
0000
0000
0000
0400
0200
0100
0080
0040
0080
0100
0200
0400
0000
0000
ENDCHAR
STARTCHAR U+003F
ENCODING 63
SWIDTH 1000 0
DWIDTH 16 0
BBX 16 16 0 -2
BITMAP 
0000
0000
0000
0000
03C0
0420
0420
0020
0040
0080
0080
0000
0080
0080
0000
0000
ENDCHAR
STARTCHAR U+0040
ENCODING 64
SWIDTH 1000 0
DWIDTH 16 0
BBX 16 16 0 -2
BITMAP 
0000
0000
0000
0000
01C0
0220
04A0
0560
0520
0520
0520
04E0
0200
01E0
0000
0000
ENDCHAR
STARTCHAR U+0041
ENCODING 65
SWIDTH 1000 0
DWIDTH 16 0
BBX 16 16 0 -2
BITMAP 
0000
0000
0000
0000
0180
0240
0240
0420
0420
07E0
0420
0420
0420
0420
0000
0000
ENDCHAR
STARTCHAR U+0042
ENCODING 66
SWIDTH 1000 0
DWIDTH 16 0
BBX 16 16 0 -2
BITMAP 
0000
0000
0000
0000
07C0
0420
0420
0420
07C0
0420
0420
0420
0420
07C0
0000
0000
ENDCHAR
STARTCHAR U+0043
ENCODING 67
SWIDTH 1000 0
DWIDTH 16 0
BBX 16 16 0 -2
BITMAP 
0000
0000
0000
0000
03C0
0420
0420
0400
0400
0400
0400
0420
0420
03C0
0000
0000
ENDCHAR
STARTCHAR U+0044
ENCODING 68
SWIDTH 1000 0
DWIDTH 16 0
BBX 16 16 0 -2
BITMAP 
0000
0000
0000
0000
0780
0440
0420
0420
0420
0420
0420
0420
0440
0780
0000
0000
ENDCHAR
STARTCHAR U+0045
ENCODING 69
SWIDTH 1000 0
DWIDTH 16 0
BBX 16 16 0 -2
BITMAP 
0000
0000
0000
0000
07E0
0400
0400
0400
07C0
0400
0400
0400
0400
07E0
0000
0000
ENDCHAR
STARTCHAR U+0046
ENCODING 70
SWIDTH 1000 0
DWIDTH 16 0
BBX 16 16 0 -2
BITMAP 
0000
0000
0000
0000
07E0
0400
0400
0400
07C0
0400
0400
0400
0400
0400
0000
0000
ENDCHAR
STARTCHAR U+0047
ENCODING 71
SWIDTH 1000 0
DWIDTH 16 0
BBX 16 16 0 -2
BITMAP 
0000
0000
0000
0000
03C0
0420
0420
0400
0400
04E0
0420
0420
0460
03A0
0000
0000
ENDCHAR
STARTCHAR U+0048
ENCODING 72
SWIDTH 1000 0
DWIDTH 16 0
BBX 16 16 0 -2
BITMAP 
0000
0000
0000
0000
0420
0420
0420
0420
07E0
0420
0420
0420
0420
0420
0000
0000
ENDCHAR
STARTCHAR U+0049
ENCODING 73
SWIDTH 1000 0
DWIDTH 16 0
BBX 16 16 0 -2
BITMAP 
0000
0000
0000
0000
03E0
0080
0080
0080
0080
0080
0080
0080
0080
03E0
0000
0000
ENDCHAR
STARTCHAR U+004A
ENCODING 74
SWIDTH 1000 0
DWIDTH 16 0
BBX 16 16 0 -2
BITMAP 
0000
0000
0000
0000
01F0
0040
0040
0040
0040
0040
0040
0440
0440
0380
0000
0000
ENDCHAR
STARTCHAR U+004B
ENCODING 75
SWIDTH 1000 0
DWIDTH 16 0
BBX 16 16 0 -2
BITMAP 
0000
0000
0000
0000
0420
0440
0480
0500
0600
0600
0500
0480
0440
0420
0000
0000
ENDCHAR
STARTCHAR U+004C
ENCODING 76
SWIDTH 1000 0
DWIDTH 16 0
BBX 16 16 0 -2
BITMAP 
0000
0000
0000
0000
0400
0400
0400
0400
0400
0400
0400
0400
0400
07E0
0000
0000
ENDCHAR
STARTCHAR U+004D
ENCODING 77
SWIDTH 1000 0
DWIDTH 16 0
BBX 16 16 0 -2
BITMAP 
0000
0000
0000
0000
0420
0420
0660
0660
05A0
05A0
0420
0420
0420
0420
0000
0000
ENDCHAR
STARTCHAR U+004E
ENCODING 78
SWIDTH 1000 0
DWIDTH 16 0
BBX 16 16 0 -2
BITMAP 
0000
0000
0000
0000
0420
0620
0620
0520
0520
04A0
04A0
0460
0460
0420
0000
0000
ENDCHAR
STARTCHAR U+004F
ENCODING 79
SWIDTH 1000 0
DWIDTH 16 0
BBX 16 16 0 -2
BITMAP 
0000
0000
0000
0000
03C0
0420
0420
0420
0420
0420
0420
0420
0420
03C0
0000
0000
ENDCHAR
STARTCHAR U+0050
ENCODING 80
SWIDTH 1000 0
DWIDTH 16 0
BBX 16 16 0 -2
BITMAP 
0000
0000
0000
0000
07C0
0420
0420
0420
07C0
0400
0400
0400
0400
0400
0000
0000
ENDCHAR
STARTCHAR U+0051
ENCODING 81
SWIDTH 1000 0
DWIDTH 16 0
BBX 16 16 0 -2
BITMAP 
0000
0000
0000
0000
03C0
0420
0420
0420
0420
0420
0420
05A0
0660
03C0
0030
0000
ENDCHAR
STARTCHAR U+0052
ENCODING 82
SWIDTH 1000 0
DWIDTH 16 0
BBX 16 16 0 -2
BITMAP 
0000
0000
0000
0000
07C0
0420
0420
0420
07C0
0480
0440
0440
0420
0420
0000
0000
ENDCHAR
STARTCHAR U+0053
ENCODING 83
SWIDTH 1000 0
DWIDTH 16 0
BBX 16 16 0 -2
BITMAP 
0000
0000
0000
0000
03C0
0420
0420
0400
0300
00C0
0020
0420
0420
03C0
0000
0000
ENDCHAR
STARTCHAR U+0054
ENCODING 84
SWIDTH 1000 0
DWIDTH 16 0
BBX 16 16 0 -2
BITMAP 
0000
0000
0000
0000
07F0
0080
0080
0080
0080
0080
0080
0080
0080
0080
0000
0000
ENDCHAR
STARTCHAR U+0055
ENCODING 85
SWIDTH 1000 0
DWIDTH 16 0
BBX 16 16 0 -2
BITMAP 
0000
0000
0000
0000
0420
0420
0420
0420
0420
0420
0420
0420
0420
03C0
0000
0000
ENDCHAR
STARTCHAR U+0056
ENCODING 86
SWIDTH 1000 0
DWIDTH 16 0
BBX 16 16 0 -2
BITMAP 
0000
0000
0000
0000
0410
0410
0410
0220
0220
0220
0140
0140
0080
0080
0000
0000
ENDCHAR
STARTCHAR U+0057
ENCODING 87
SWIDTH 1000 0
DWIDTH 16 0
BBX 16 16 0 -2
BITMAP 
0000
0000
0000
0000
0420
0420
0420
0420
05A0
05A0
0660
0660
0420
0420
0000
0000
ENDCHAR
STARTCHAR U+0058
ENCODING 88
SWIDTH 1000 0
DWIDTH 16 0
BBX 16 16 0 -2
BITMAP 
0000
0000
0000
0000
0420
0420
0240
0240
0180
0180
0240
0240
0420
0420
0000
0000
ENDCHAR
STARTCHAR U+0059
ENCODING 89
SWIDTH 1000 0
DWIDTH 16 0
BBX 16 16 0 -2
BITMAP 
0000
0000
0000
0000
0410
0410
0220
0220
0140
0080
0080
0080
0080
0080
0000
0000
ENDCHAR
STARTCHAR U+005A
ENCODING 90
SWIDTH 1000 0
DWIDTH 16 0
BBX 16 16 0 -2
BITMAP 
0000
0000
0000
0000
07E0
0020
0020
0040
0080
0100
0200
0400
0400
07E0
0000
0000
ENDCHAR
STARTCHAR U+005B
ENCODING 91
SWIDTH 1000 0
DWIDTH 16 0
BBX 16 16 0 -2
BITMAP 
0000
0000
0000
00E0
0080
0080
0080
0080
0080
0080
0080
0080
0080
0080
00E0
0000
ENDCHAR
STARTCHAR U+005C
ENCODING 92
SWIDTH 1000 0
DWIDTH 16 0
BBX 16 16 0 -2
BITMAP 
0000
0000
0000
0000
0400
0400
0200
0100
0100
0080
0080
0040
0020
0020
0000
0000
ENDCHAR
STARTCHAR U+005D
ENCODING 93
SWIDTH 1000 0
DWIDTH 16 0
BBX 16 16 0 -2
BITMAP 
0000
0000
0000
0700
0100
0100
0100
0100
0100
0100
0100
0100
0100
0100
0700
0000
ENDCHAR
STARTCHAR U+005E
ENCODING 94
SWIDTH 1000 0
DWIDTH 16 0
BBX 16 16 0 -2
BITMAP 
0000
0000
0180
0240
0420
0000
0000
0000
0000
0000
0000
0000
0000
0000
0000
0000
ENDCHAR
STARTCHAR U+005F
ENCODING 95
SWIDTH 1000 0
DWIDTH 16 0
BBX 16 16 0 -2
BITMAP 
0000
0000
0000
0000
0000
0000
0000
0000
0000
0000
0000
0000
0000
0000
07F0
0000
ENDCHAR
STARTCHAR U+0060
ENCODING 96
SWIDTH 1000 0
DWIDTH 16 0
BBX 16 16 0 -2
BITMAP 
0000
0200
0100
0080
0000
0000
0000
0000
0000
0000
0000
0000
0000
0000
0000
0000
ENDCHAR
STARTCHAR U+0061
ENCODING 97
SWIDTH 1000 0
DWIDTH 16 0
BBX 16 16 0 -2
BITMAP 
0000
0000
0000
0000
0000
0000
03C0
0420
0020
03E0
0420
0420
0460
03A0
0000
0000
ENDCHAR
STARTCHAR U+0062
ENCODING 98
SWIDTH 1000 0
DWIDTH 16 0
BBX 16 16 0 -2
BITMAP 
0000
0000
0000
0400
0400
0400
05C0
0620
0420
0420
0420
0420
0620
05C0
0000
0000
ENDCHAR
STARTCHAR U+0063
ENCODING 99
SWIDTH 1000 0
DWIDTH 16 0
BBX 16 16 0 -2
BITMAP 
0000
0000
0000
0000
0000
0000
03C0
0420
0400
0400
0400
0400
0420
03C0
0000
0000
ENDCHAR
STARTCHAR U+0064
ENCODING 100
SWIDTH 1000 0
DWIDTH 16 0
BBX 16 16 0 -2
BITMAP 
0000
0000
0000
0020
0020
0020
03A0
0460
0420
0420
0420
0420
0460
03A0
0000
0000
ENDCHAR
STARTCHAR U+0065
ENCODING 101
SWIDTH 1000 0
DWIDTH 16 0
BBX 16 16 0 -2
BITMAP 
0000
0000
0000
0000
0000
0000
03C0
0420
0420
07E0
0400
0400
0420
03C0
0000
0000
ENDCHAR
STARTCHAR U+0066
ENCODING 102
SWIDTH 1000 0
DWIDTH 16 0
BBX 16 16 0 -2
BITMAP 
0000
0000
0000
00C0
0100
0100
0100
07C0
0100
0100
0100
0100
0100
0100
0000
0000
ENDCHAR
STARTCHAR U+0067
ENCODING 103
SWIDTH 1000 0
DWIDTH 16 0
BBX 16 16 0 -2
BITMAP 
0000
0000
0000
0000
0000
0020
03A0
0440
0440
0440
0380
0200
03C0
0420
0420
03C0
ENDCHAR
STARTCHAR U+0068
ENCODING 104
SWIDTH 1000 0
DWIDTH 16 0
BBX 16 16 0 -2
BITMAP 
0000
0000
0000
0400
0400
0400
05C0
0620
0420
0420
0420
0420
0420
0420
0000
0000
ENDCHAR
STARTCHAR U+0069
ENCODING 105
SWIDTH 1000 0
DWIDTH 16 0
BBX 16 16 0 -2
BITMAP 
0000
0000
0000
0080
0080
0000
0180
0080
0080
0080
0080
0080
0080
03E0
0000
0000
ENDCHAR
STARTCHAR U+006A
ENCODING 106
SWIDTH 1000 0
DWIDTH 16 0
BBX 16 16 0 -2
BITMAP 
0000
0000
0000
0040
0040
0000
00C0
0040
0040
0040
0040
0040
0040
0040
0480
0300
ENDCHAR
STARTCHAR U+006B
ENCODING 107
SWIDTH 1000 0
DWIDTH 16 0
BBX 16 16 0 -2
BITMAP 
0000
0000
0000
0400
0400
0400
0440
0480
0500
0600
0500
0480
0440
0420
0000
0000
ENDCHAR
STARTCHAR U+006C
ENCODING 108
SWIDTH 1000 0
DWIDTH 16 0
BBX 16 16 0 -2
BITMAP 
0000
0000
0000
0180
0080
0080
0080
0080
0080
0080
0080
0080
0080
03E0
0000
0000
ENDCHAR
STARTCHAR U+006D
ENCODING 109
SWIDTH 1000 0
DWIDTH 16 0
BBX 16 16 0 -2
BITMAP 
0000
0000
0000
0000
0000
0000
0760
0490
0490
0490
0490
0490
0490
0490
0000
0000
ENDCHAR
STARTCHAR U+006E
ENCODING 110
SWIDTH 1000 0
DWIDTH 16 0
BBX 16 16 0 -2
BITMAP 
0000
0000
0000
0000
0000
0000
05C0
0620
0420
0420
0420
0420
0420
0420
0000
0000
ENDCHAR
STARTCHAR U+006F
ENCODING 111
SWIDTH 1000 0
DWIDTH 16 0
BBX 16 16 0 -2
BITMAP 
0000
0000
0000
0000
0000
0000
03C0
0420
0420
0420
0420
0420
0420
03C0
0000
0000
ENDCHAR
STARTCHAR U+0070
ENCODING 112
SWIDTH 1000 0
DWIDTH 16 0
BBX 16 16 0 -2
BITMAP 
0000
0000
0000
0000
0000
0000
05C0
0620
0420
0420
0420
0420
0620
05C0
0400
0400
ENDCHAR
STARTCHAR U+0071
ENCODING 113
SWIDTH 1000 0
DWIDTH 16 0
BBX 16 16 0 -2
BITMAP 
0000
0000
0000
0000
0000
0000
03A0
0460
0420
0420
0420
0420
0460
03A0
0020
0020
ENDCHAR
STARTCHAR U+0072
ENCODING 114
SWIDTH 1000 0
DWIDTH 16 0
BBX 16 16 0 -2
BITMAP 
0000
0000
0000
0000
0000
0000
05C0
0620
0420
0400
0400
0400
0400
0400
0000
0000
ENDCHAR
STARTCHAR U+0073
ENCODING 115
SWIDTH 1000 0
DWIDTH 16 0
BBX 16 16 0 -2
BITMAP 
0000
0000
0000
0000
0000
0000
03C0
0420
0400
0300
00C0
0020
0420
03C0
0000
0000
ENDCHAR
STARTCHAR U+0074
ENCODING 116
SWIDTH 1000 0
DWIDTH 16 0
BBX 16 16 0 -2
BITMAP 
0000
0000
0000
0000
0100
0100
0100
07C0
0100
0100
0100
0100
0100
00C0
0000
0000
ENDCHAR
STARTCHAR U+0075
ENCODING 117
SWIDTH 1000 0
DWIDTH 16 0
BBX 16 16 0 -2
BITMAP 
0000
0000
0000
0000
0000
0000
0420
0420
0420
0420
0420
0420
0460
03A0
0000
0000
ENDCHAR
STARTCHAR U+0076
ENCODING 118
SWIDTH 1000 0
DWIDTH 16 0
BBX 16 16 0 -2
BITMAP 
0000
0000
0000
0000
0000
0000
0420
0420
0420
0240
0240
0240
0180
0180
0000
0000
ENDCHAR
STARTCHAR U+0077
ENCODING 119
SWIDTH 1000 0
DWIDTH 16 0
BBX 16 16 0 -2
BITMAP 
0000
0000
0000
0000
0000
0000
0410
0490
0490
0490
0490
0490
0490
0360
0000
0000
ENDCHAR
STARTCHAR U+0078
ENCODING 120
SWIDTH 1000 0
DWIDTH 16 0
BBX 16 16 0 -2
BITMAP 
0000
0000
0000
0000
0000
0000
0420
0420
0240
0180
0180
0240
0420
0420
0000
0000
ENDCHAR
STARTCHAR U+0079
ENCODING 121
SWIDTH 1000 0
DWIDTH 16 0
BBX 16 16 0 -2
BITMAP 
0000
0000
0000
0000
0000
0000
0420
0420
0420
0420
0420
0260
01A0
0020
0020
03C0
ENDCHAR
STARTCHAR U+007A
ENCODING 122
SWIDTH 1000 0
DWIDTH 16 0
BBX 16 16 0 -2
BITMAP 
0000
0000
0000
0000
0000
0000
07E0
0020
0040
0080
0100
0200
0400
07E0
0000
0000
ENDCHAR
STARTCHAR U+007B
ENCODING 123
SWIDTH 1000 0
DWIDTH 16 0
BBX 16 16 0 -2
BITMAP 
0000
0000
0000
00C0
0100
0100
0080
0080
0100
0200
0100
0080
0080
0100
0100
00C0
ENDCHAR
STARTCHAR U+007C
ENCODING 124
SWIDTH 1000 0
DWIDTH 16 0
BBX 16 16 0 -2
BITMAP 
0000
0000
0080
0080
0080
0080
0080
0080
0080
0080
0080
0080
0080
0080
0080
0080
ENDCHAR
STARTCHAR U+007D
ENCODING 125
SWIDTH 1000 0
DWIDTH 16 0
BBX 16 16 0 -2
BITMAP 
0000
0000
0000
0300
0080
0080
0100
0100
0080
0040
0080
0100
0100
0080
0080
0300
ENDCHAR
STARTCHAR U+007E
ENCODING 126
SWIDTH 1000 0
DWIDTH 16 0
BBX 16 16 0 -2
BITMAP 
0000
0000
0000
0310
0490
0460
0000
0000
0000
0000
0000
0000
0000
0000
0000
0000
ENDCHAR
STARTCHAR U+00A0
ENCODING 160
SWIDTH 1000 0
DWIDTH 16 0
BBX 16 16 0 -2
BITMAP 
0000
0000
0000
0000
0000
0000
0000
0000
0000
0000
0000
0000
0000
0000
0000
0000
ENDCHAR
STARTCHAR U+00A1
ENCODING 161
SWIDTH 1000 0
DWIDTH 16 0
BBX 16 16 0 -2
BITMAP 
0000
0000
0000
0000
0080
0080
0000
0080
0080
0080
0080
0080
0080
0080
0000
0000
ENDCHAR
STARTCHAR U+00A2
ENCODING 162
SWIDTH 1000 0
DWIDTH 16 0
BBX 16 16 0 -2
BITMAP 
0000
0000
0000
0000
0080
0080
03E0
0490
0480
0480
0490
03E0
0080
0080
0000
0000
ENDCHAR
STARTCHAR U+00A3
ENCODING 163
SWIDTH 1000 0
DWIDTH 16 0
BBX 16 16 0 -2
BITMAP 
0000
0000
0000
0000
00E0
0100
0100
0100
07C0
0100
0100
0100
03E0
0610
0000
0000
ENDCHAR
STARTCHAR U+00A4
ENCODING 164
SWIDTH 1000 0
DWIDTH 16 0
BBX 16 16 0 -2
BITMAP 
0000
0000
0000
0000
0000
0420
03C0
0240
0420
0420
0240
03C0
0420
0000
0000
0000
ENDCHAR
STARTCHAR U+00A5
ENCODING 165
SWIDTH 1000 0
DWIDTH 16 0
BBX 16 16 0 -2
BITMAP 
0000
0000
0000
0000
0410
0220
0140
0080
07F0
0080
07F0
0080
0080
0080
0000
0000
ENDCHAR
STARTCHAR U+00A6
ENCODING 166
SWIDTH 1000 0
DWIDTH 16 0
BBX 16 16 0 -2
BITMAP 
0000
0000
0000
0000
0080
0080
0080
0080
0000
0000
0080
0080
0080
0080
0000
0000
ENDCHAR
STARTCHAR U+00A7
ENCODING 167
SWIDTH 1000 0
DWIDTH 16 0
BBX 16 16 0 -2
BITMAP 
0000
0000
0000
0000
03C0
0420
0400
03C0
0420
0420
03C0
0020
0420
03C0
0000
0000
ENDCHAR
STARTCHAR U+00A8
ENCODING 168
SWIDTH 1000 0
DWIDTH 16 0
BBX 16 16 0 -2
BITMAP 
0240
0240
0000
0000
0000
0000
0000
0000
0000
0000
0000
0000
0000
0000
0000
0000
ENDCHAR
STARTCHAR U+00A9
ENCODING 169
SWIDTH 1000 0
DWIDTH 16 0
BBX 16 16 0 -2
BITMAP 
0000
0000
0000
0000
03C0
0420
0990
0A50
0A10
0A10
0A50
0990
0420
03C0
0000
0000
ENDCHAR
STARTCHAR U+00AA
ENCODING 170
SWIDTH 1000 0
DWIDTH 16 0
BBX 16 16 0 -2
BITMAP 
0000
0000
01C0
0020
01E0
0220
01E0
0000
03E0
0000
0000
0000
0000
0000
0000
0000
ENDCHAR
STARTCHAR U+00AB
ENCODING 171
SWIDTH 1000 0
DWIDTH 16 0
BBX 16 16 0 -2
BITMAP 
0000
0000
0000
0000
0000
0120
0120
0240
0240
0480
0240
0240
0120
0120
0000
0000
ENDCHAR
STARTCHAR U+00AC
ENCODING 172
SWIDTH 1000 0
DWIDTH 16 0
BBX 16 16 0 -2
BITMAP 
0000
0000
0000
0000
0000
0000
0000
0000
0000
0000
07E0
0020
0020
0020
0000
0000
ENDCHAR
STARTCHAR U+00AD
ENCODING 173
SWIDTH 1000 0
DWIDTH 16 0
BBX 16 16 0 -2
BITMAP 
AAAA
0001
8000
3A63
C254
33C9
8A48
7249
8000
0001
8000
03C1
8000
0001
8000
5555
ENDCHAR
STARTCHAR U+00AE
ENCODING 174
SWIDTH 1000 0
DWIDTH 16 0
BBX 16 16 0 -2
BITMAP 
0000
0000
0000
0000
03C0
0420
0B90
0A50
0A50
0B90
0A90
0A50
0420
03C0
0000
0000
ENDCHAR
STARTCHAR U+00AF
ENCODING 175
SWIDTH 1000 0
DWIDTH 16 0
BBX 16 16 0 -2
BITMAP 
0000
0000
07E0
0000
0000
0000
0000
0000
0000
0000
0000
0000
0000
0000
0000
0000
ENDCHAR
STARTCHAR U+00B0
ENCODING 176
SWIDTH 1000 0
DWIDTH 16 0
BBX 16 16 0 -2
BITMAP 
0000
0000
0000
0000
0180
0240
0240
0180
0000
0000
0000
0000
0000
0000
0000
0000
ENDCHAR
STARTCHAR U+00B1
ENCODING 177
SWIDTH 1000 0
DWIDTH 16 0
BBX 16 16 0 -2
BITMAP 
0000
0000
0000
0000
0080
0080
0080
07F0
0080
0080
0080
0000
07F0
0000
0000
0000
ENDCHAR
STARTCHAR U+00B2
ENCODING 178
SWIDTH 1000 0
DWIDTH 16 0
BBX 16 16 0 -2
BITMAP 
0000
0000
0000
0380
0440
0040
0180
0200
0400
07C0
0000
0000
0000
0000
0000
0000
ENDCHAR
STARTCHAR U+00B3
ENCODING 179
SWIDTH 1000 0
DWIDTH 16 0
BBX 16 16 0 -2
BITMAP 
0000
0000
0000
0380
0440
0040
0380
0040
0440
0380
0000
0000
0000
0000
0000
0000
ENDCHAR
STARTCHAR U+00B4
ENCODING 180
SWIDTH 1000 0
DWIDTH 16 0
BBX 16 16 0 -2
BITMAP 
0000
0040
0080
0100
0000
0000
0000
0000
0000
0000
0000
0000
0000
0000
0000
0000
ENDCHAR
STARTCHAR U+00B5
ENCODING 181
SWIDTH 1000 0
DWIDTH 16 0
BBX 16 16 0 -2
BITMAP 
0000
0000
0000
0000
0000
0000
0420
0420
0420
0420
0420
0420
0660
0590
0400
0800
ENDCHAR
STARTCHAR U+00B6
ENCODING 182
SWIDTH 1000 0
DWIDTH 16 0
BBX 16 16 0 -2
BITMAP 
0000
0000
0000
0000
03F0
07A0
07A0
07A0
03A0
00A0
00A0
00A0
00A0
00A0
00A0
0000
ENDCHAR
STARTCHAR U+00B7
ENCODING 183
SWIDTH 1000 0
DWIDTH 16 0
BBX 16 16 0 -2
BITMAP 
0000
0000
0000
0000
0000
0000
0000
0000
0180
0180
0000
0000
0000
0000
0000
0000
ENDCHAR
STARTCHAR U+00B8
ENCODING 184
SWIDTH 1000 0
DWIDTH 16 0
BBX 16 16 0 -2
BITMAP 
0000
0000
0000
0000
0000
0000
0000
0000
0000
0000
0000
0000
0000
0000
0080
0300
ENDCHAR
STARTCHAR U+00B9
ENCODING 185
SWIDTH 1000 0
DWIDTH 16 0
BBX 16 16 0 -2
BITMAP 
0000
0000
0000
0100
0300
0500
0100
0100
0100
07C0
0000
0000
0000
0000
0000
0000
ENDCHAR
STARTCHAR U+00BA
ENCODING 186
SWIDTH 1000 0
DWIDTH 16 0
BBX 16 16 0 -2
BITMAP 
0000
0000
01C0
0220
0220
0220
01C0
0000
03E0
0000
0000
0000
0000
0000
0000
0000
ENDCHAR
STARTCHAR U+00BB
ENCODING 187
SWIDTH 1000 0
DWIDTH 16 0
BBX 16 16 0 -2
BITMAP 
0000
0000
0000
0000
0000
0480
0480
0240
0240
0120
0240
0240
0480
0480
0000
0000
ENDCHAR
STARTCHAR U+00BC
ENCODING 188
SWIDTH 1000 0
DWIDTH 16 0
BBX 16 16 0 -2
BITMAP 
0000
0000
0000
0000
0220
0620
0240
0280
0280
0120
0160
02A0
04E0
0420
0000
0000
ENDCHAR
STARTCHAR U+00BD
ENCODING 189
SWIDTH 1000 0
DWIDTH 16 0
BBX 16 16 0 -2
BITMAP 
0000
0000
0000
0000
0220
0620
0240
0280
0280
0140
01A0
0220
0440
04E0
0000
0000
ENDCHAR
STARTCHAR U+00BE
ENCODING 190
SWIDTH 1000 0
DWIDTH 16 0
BBX 16 16 0 -2
BITMAP 
0000
0000
0000
0000
0620
0120
0240
0180
0680
0120
0160
02A0
04E0
0420
0000
0000
ENDCHAR
STARTCHAR U+00BF
ENCODING 191
SWIDTH 1000 0
DWIDTH 16 0
BBX 16 16 0 -2
BITMAP 
0000
0000
0000
0000
0100
0100
0000
0100
0100
0200
0400
0420
0420
03C0
0000
0000
ENDCHAR
STARTCHAR U+00C0
ENCODING 192
SWIDTH 1000 0
DWIDTH 16 0
BBX 16 16 0 -2
BITMAP 
0300
00C0
0000
0000
0180
0240
0240
0420
0420
07E0
0420
0420
0420
0420
0000
0000
ENDCHAR
STARTCHAR U+00C1
ENCODING 193
SWIDTH 1000 0
DWIDTH 16 0
BBX 16 16 0 -2
BITMAP 
00C0
0300
0000
0000
0180
0240
0240
0420
0420
07E0
0420
0420
0420
0420
0000
0000
ENDCHAR
STARTCHAR U+00C2
ENCODING 194
SWIDTH 1000 0
DWIDTH 16 0
BBX 16 16 0 -2
BITMAP 
0180
0240
0000
0000
0180
0240
0240
0420
0420
07E0
0420
0420
0420
0420
0000
0000
ENDCHAR
STARTCHAR U+00C3
ENCODING 195
SWIDTH 1000 0
DWIDTH 16 0
BBX 16 16 0 -2
BITMAP 
0320
04C0
0000
0000
0180
0240
0240
0420
0420
07E0
0420
0420
0420
0420
0000
0000
ENDCHAR
STARTCHAR U+00C4
ENCODING 196
SWIDTH 1000 0
DWIDTH 16 0
BBX 16 16 0 -2
BITMAP 
0240
0240
0000
0000
0180
0240
0240
0420
0420
07E0
0420
0420
0420
0420
0000
0000
ENDCHAR
STARTCHAR U+00C5
ENCODING 197
SWIDTH 1000 0
DWIDTH 16 0
BBX 16 16 0 -2
BITMAP 
0180
0240
0180
0000
0180
0240
0240
0420
0420
07E0
0420
0420
0420
0420
0000
0000
ENDCHAR
STARTCHAR U+00C6
ENCODING 198
SWIDTH 1000 0
DWIDTH 16 0
BBX 16 16 0 -2
BITMAP 
0000
0000
0000
0000
01F0
0280
0480
0480
07F0
0480
0480
0480
0480
04F0
0000
0000
ENDCHAR
STARTCHAR U+00C7
ENCODING 199
SWIDTH 1000 0
DWIDTH 16 0
BBX 16 16 0 -2
BITMAP 
0000
0000
0000
0000
03C0
0420
0420
0400
0400
0400
0400
0420
0420
03C0
0080
0300
ENDCHAR
STARTCHAR U+00C8
ENCODING 200
SWIDTH 1000 0
DWIDTH 16 0
BBX 16 16 0 -2
BITMAP 
0300
00C0
0000
0000
07E0
0400
0400
0400
07C0
0400
0400
0400
0400
07E0
0000
0000
ENDCHAR
STARTCHAR U+00C9
ENCODING 201
SWIDTH 1000 0
DWIDTH 16 0
BBX 16 16 0 -2
BITMAP 
00C0
0300
0000
0000
07E0
0400
0400
0400
07C0
0400
0400
0400
0400
07E0
0000
0000
ENDCHAR
STARTCHAR U+00CA
ENCODING 202
SWIDTH 1000 0
DWIDTH 16 0
BBX 16 16 0 -2
BITMAP 
0180
0240
0000
0000
07E0
0400
0400
0400
07C0
0400
0400
0400
0400
07E0
0000
0000
ENDCHAR
STARTCHAR U+00CB
ENCODING 203
SWIDTH 1000 0
DWIDTH 16 0
BBX 16 16 0 -2
BITMAP 
0240
0240
0000
0000
07E0
0400
0400
0400
07C0
0400
0400
0400
0400
07E0
0000
0000
ENDCHAR
STARTCHAR U+00CC
ENCODING 204
SWIDTH 1000 0
DWIDTH 16 0
BBX 16 16 0 -2
BITMAP 
0180
0060
0000
0000
03E0
0080
0080
0080
0080
0080
0080
0080
0080
03E0
0000
0000
ENDCHAR
STARTCHAR U+00CD
ENCODING 205
SWIDTH 1000 0
DWIDTH 16 0
BBX 16 16 0 -2
BITMAP 
00C0
0300
0000
0000
03E0
0080
0080
0080
0080
0080
0080
0080
0080
03E0
0000
0000
ENDCHAR
STARTCHAR U+00CE
ENCODING 206
SWIDTH 1000 0
DWIDTH 16 0
BBX 16 16 0 -2
BITMAP 
0180
0240
0000
0000
03E0
0080
0080
0080
0080
0080
0080
0080
0080
03E0
0000
0000
ENDCHAR
STARTCHAR U+00CF
ENCODING 207
SWIDTH 1000 0
DWIDTH 16 0
BBX 16 16 0 -2
BITMAP 
0240
0240
0000
0000
03E0
0080
0080
0080
0080
0080
0080
0080
0080
03E0
0000
0000
ENDCHAR
STARTCHAR U+00D0
ENCODING 208
SWIDTH 1000 0
DWIDTH 16 0
BBX 16 16 0 -2
BITMAP 
0000
0000
0000
0000
0780
0440
0420
0420
0F20
0420
0420
0420
0440
0780
0000
0000
ENDCHAR
STARTCHAR U+00D1
ENCODING 209
SWIDTH 1000 0
DWIDTH 16 0
BBX 16 16 0 -2
BITMAP 
0320
04C0
0000
0000
0420
0620
0620
0520
0520
04A0
04A0
0460
0460
0420
0000
0000
ENDCHAR
STARTCHAR U+00D2
ENCODING 210
SWIDTH 1000 0
DWIDTH 16 0
BBX 16 16 0 -2
BITMAP 
0300
00C0
0000
0000
03C0
0420
0420
0420
0420
0420
0420
0420
0420
03C0
0000
0000
ENDCHAR
STARTCHAR U+00D3
ENCODING 211
SWIDTH 1000 0
DWIDTH 16 0
BBX 16 16 0 -2
BITMAP 
00C0
0300
0000
0000
03C0
0420
0420
0420
0420
0420
0420
0420
0420
03C0
0000
0000
ENDCHAR
STARTCHAR U+00D4
ENCODING 212
SWIDTH 1000 0
DWIDTH 16 0
BBX 16 16 0 -2
BITMAP 
0180
0240
0000
0000
03C0
0420
0420
0420
0420
0420
0420
0420
0420
03C0
0000
0000
ENDCHAR
STARTCHAR U+00D5
ENCODING 213
SWIDTH 1000 0
DWIDTH 16 0
BBX 16 16 0 -2
BITMAP 
0320
04C0
0000
0000
03C0
0420
0420
0420
0420
0420
0420
0420
0420
03C0
0000
0000
ENDCHAR
STARTCHAR U+00D6
ENCODING 214
SWIDTH 1000 0
DWIDTH 16 0
BBX 16 16 0 -2
BITMAP 
0240
0240
0000
0000
03C0
0420
0420
0420
0420
0420
0420
0420
0420
03C0
0000
0000
ENDCHAR
STARTCHAR U+00D7
ENCODING 215
SWIDTH 1000 0
DWIDTH 16 0
BBX 16 16 0 -2
BITMAP 
0000
0000
0000
0000
0000
0000
0000
0420
0240
0180
0240
0420
0000
0000
0000
0000
ENDCHAR
STARTCHAR U+00D8
ENCODING 216
SWIDTH 1000 0
DWIDTH 16 0
BBX 16 16 0 -2
BITMAP 
0000
0000
0000
0020
03A0
0440
0460
04A0
04A0
0520
0520
0620
0220
05C0
0400
0000
ENDCHAR
STARTCHAR U+00D9
ENCODING 217
SWIDTH 1000 0
DWIDTH 16 0
BBX 16 16 0 -2
BITMAP 
0300
00C0
0000
0000
0420
0420
0420
0420
0420
0420
0420
0420
0420
03C0
0000
0000
ENDCHAR
STARTCHAR U+00DA
ENCODING 218
SWIDTH 1000 0
DWIDTH 16 0
BBX 16 16 0 -2
BITMAP 
00C0
0300
0000
0000
0420
0420
0420
0420
0420
0420
0420
0420
0420
03C0
0000
0000
ENDCHAR
STARTCHAR U+00DB
ENCODING 219
SWIDTH 1000 0
DWIDTH 16 0
BBX 16 16 0 -2
BITMAP 
0180
0240
0000
0000
0420
0420
0420
0420
0420
0420
0420
0420
0420
03C0
0000
0000
ENDCHAR
STARTCHAR U+00DC
ENCODING 220
SWIDTH 1000 0
DWIDTH 16 0
BBX 16 16 0 -2
BITMAP 
0240
0240
0000
0000
0420
0420
0420
0420
0420
0420
0420
0420
0420
03C0
0000
0000
ENDCHAR
STARTCHAR U+00DD
ENCODING 221
SWIDTH 1000 0
DWIDTH 16 0
BBX 16 16 0 -2
BITMAP 
00C0
0300
0000
0000
0410
0410
0220
0220
0140
0080
0080
0080
0080
0080
0000
0000
ENDCHAR
STARTCHAR U+00DE
ENCODING 222
SWIDTH 1000 0
DWIDTH 16 0
BBX 16 16 0 -2
BITMAP 
0000
0000
0000
0400
0400
0780
0440
0420
0420
0440
0780
0400
0400
0400
0000
0000
ENDCHAR
STARTCHAR U+00DF
ENCODING 223
SWIDTH 1000 0
DWIDTH 16 0
BBX 16 16 0 -2
BITMAP 
0000
0000
0000
0000
0380
0440
0440
0480
0580
0440
0420
0420
0520
04C0
0000
0000
ENDCHAR
STARTCHAR U+00E0
ENCODING 224
SWIDTH 1000 0
DWIDTH 16 0
BBX 16 16 0 -2
BITMAP 
0000
0000
0300
00C0
0000
0000
03C0
0420
0020
03E0
0420
0420
0460
03A0
0000
0000
ENDCHAR
STARTCHAR U+00E1
ENCODING 225
SWIDTH 1000 0
DWIDTH 16 0
BBX 16 16 0 -2
BITMAP 
0000
0000
00C0
0300
0000
0000
03C0
0420
0020
03E0
0420
0420
0460
03A0
0000
0000
ENDCHAR
STARTCHAR U+00E2
ENCODING 226
SWIDTH 1000 0
DWIDTH 16 0
BBX 16 16 0 -2
BITMAP 
0000
0000
0180
0240
0000
0000
03C0
0420
0020
03E0
0420
0420
0460
03A0
0000
0000
ENDCHAR
STARTCHAR U+00E3
ENCODING 227
SWIDTH 1000 0
DWIDTH 16 0
BBX 16 16 0 -2
BITMAP 
0000
0000
0320
04C0
0000
0000
03C0
0420
0020
03E0
0420
0420
0460
03A0
0000
0000
ENDCHAR
STARTCHAR U+00E4
ENCODING 228
SWIDTH 1000 0
DWIDTH 16 0
BBX 16 16 0 -2
BITMAP 
0000
0000
0240
0240
0000
0000
03C0
0420
0020
03E0
0420
0420
0460
03A0
0000
0000
ENDCHAR
STARTCHAR U+00E5
ENCODING 229
SWIDTH 1000 0
DWIDTH 16 0
BBX 16 16 0 -2
BITMAP 
0000
0180
0240
0180
0000
0000
03C0
0420
0020
03E0
0420
0420
0460
03A0
0000
0000
ENDCHAR
STARTCHAR U+00E6
ENCODING 230
SWIDTH 1000 0
DWIDTH 16 0
BBX 16 16 0 -2
BITMAP 
0000
0000
0000
0000
0000
0000
03E0
0490
0090
03F0
0480
0480
0490
03E0
0000
0000
ENDCHAR
STARTCHAR U+00E7
ENCODING 231
SWIDTH 1000 0
DWIDTH 16 0
BBX 16 16 0 -2
BITMAP 
0000
0000
0000
0000
0000
0000
03C0
0420
0400
0400
0400
0400
0420
03C0
0080
0300
ENDCHAR
STARTCHAR U+00E8
ENCODING 232
SWIDTH 1000 0
DWIDTH 16 0
BBX 16 16 0 -2
BITMAP 
0000
0000
0300
00C0
0000
0000
03C0
0420
0420
07E0
0400
0400
0420
03C0
0000
0000
ENDCHAR
STARTCHAR U+00E9
ENCODING 233
SWIDTH 1000 0
DWIDTH 16 0
BBX 16 16 0 -2
BITMAP 
0000
0000
00C0
0300
0000
0000
03C0
0420
0420
07E0
0400
0400
0420
03C0
0000
0000
ENDCHAR
STARTCHAR U+00EA
ENCODING 234
SWIDTH 1000 0
DWIDTH 16 0
BBX 16 16 0 -2
BITMAP 
0000
0000
0180
0240
0000
0000
03C0
0420
0420
07E0
0400
0400
0420
03C0
0000
0000
ENDCHAR
STARTCHAR U+00EB
ENCODING 235
SWIDTH 1000 0
DWIDTH 16 0
BBX 16 16 0 -2
BITMAP 
0000
0000
0240
0240
0000
0000
03C0
0420
0420
07E0
0400
0400
0420
03C0
0000
0000
ENDCHAR
STARTCHAR U+00EC
ENCODING 236
SWIDTH 1000 0
DWIDTH 16 0
BBX 16 16 0 -2
BITMAP 
0000
0000
0300
00C0
0000
0000
0180
0080
0080
0080
0080
0080
0080
03E0
0000
0000
ENDCHAR
STARTCHAR U+00ED
ENCODING 237
SWIDTH 1000 0
DWIDTH 16 0
BBX 16 16 0 -2
BITMAP 
0000
0000
00C0
0300
0000
0000
0180
0080
0080
0080
0080
0080
0080
03E0
0000
0000
ENDCHAR
STARTCHAR U+00EE
ENCODING 238
SWIDTH 1000 0
DWIDTH 16 0
BBX 16 16 0 -2
BITMAP 
0000
0000
0180
0240
0000
0000
0180
0080
0080
0080
0080
0080
0080
03E0
0000
0000
ENDCHAR
STARTCHAR U+00EF
ENCODING 239
SWIDTH 1000 0
DWIDTH 16 0
BBX 16 16 0 -2
BITMAP 
0000
0000
0240
0240
0000
0000
0180
0080
0080
0080
0080
0080
0080
03E0
0000
0000
ENDCHAR
STARTCHAR U+00F0
ENCODING 240
SWIDTH 1000 0
DWIDTH 16 0
BBX 16 16 0 -2
BITMAP 
0000
0000
0320
00C0
0140
0220
0020
03E0
0420
0420
0420
0420
0420
03C0
0000
0000
ENDCHAR
STARTCHAR U+00F1
ENCODING 241
SWIDTH 1000 0
DWIDTH 16 0
BBX 16 16 0 -2
BITMAP 
0000
0000
0320
04C0
0000
0000
05C0
0620
0420
0420
0420
0420
0420
0420
0000
0000
ENDCHAR
STARTCHAR U+00F2
ENCODING 242
SWIDTH 1000 0
DWIDTH 16 0
BBX 16 16 0 -2
BITMAP 
0000
0000
0300
00C0
0000
0000
03C0
0420
0420
0420
0420
0420
0420
03C0
0000
0000
ENDCHAR
STARTCHAR U+00F3
ENCODING 243
SWIDTH 1000 0
DWIDTH 16 0
BBX 16 16 0 -2
BITMAP 
0000
0000
00C0
0300
0000
0000
03C0
0420
0420
0420
0420
0420
0420
03C0
0000
0000
ENDCHAR
STARTCHAR U+00F4
ENCODING 244
SWIDTH 1000 0
DWIDTH 16 0
BBX 16 16 0 -2
BITMAP 
0000
0000
0180
0240
0000
0000
03C0
0420
0420
0420
0420
0420
0420
03C0
0000
0000
ENDCHAR
STARTCHAR U+00F5
ENCODING 245
SWIDTH 1000 0
DWIDTH 16 0
BBX 16 16 0 -2
BITMAP 
0000
0000
0320
04C0
0000
0000
03C0
0420
0420
0420
0420
0420
0420
03C0
0000
0000
ENDCHAR
STARTCHAR U+00F6
ENCODING 246
SWIDTH 1000 0
DWIDTH 16 0
BBX 16 16 0 -2
BITMAP 
0000
0000
0240
0240
0000
0000
03C0
0420
0420
0420
0420
0420
0420
03C0
0000
0000
ENDCHAR
STARTCHAR U+00F7
ENCODING 247
SWIDTH 1000 0
DWIDTH 16 0
BBX 16 16 0 -2
BITMAP 
0000
0000
0000
0000
0000
0000
0180
0000
0000
07E0
0000
0000
0180
0000
0000
0000
ENDCHAR
STARTCHAR U+00F8
ENCODING 248
SWIDTH 1000 0
DWIDTH 16 0
BBX 16 16 0 -2
BITMAP 
0000
0000
0000
0000
0000
0020
03C0
0460
04A0
04A0
0520
0520
0620
03C0
0400
0000
ENDCHAR
STARTCHAR U+00F9
ENCODING 249
SWIDTH 1000 0
DWIDTH 16 0
BBX 16 16 0 -2
BITMAP 
0000
0000
0300
00C0
0000
0000
0420
0420
0420
0420
0420
0420
0460
03A0
0000
0000
ENDCHAR
STARTCHAR U+00FA
ENCODING 250
SWIDTH 1000 0
DWIDTH 16 0
BBX 16 16 0 -2
BITMAP 
0000
0000
00C0
0300
0000
0000
0420
0420
0420
0420
0420
0420
0460
03A0
0000
0000
ENDCHAR
STARTCHAR U+00FB
ENCODING 251
SWIDTH 1000 0
DWIDTH 16 0
BBX 16 16 0 -2
BITMAP 
0000
0000
0180
0240
0000
0000
0420
0420
0420
0420
0420
0420
0460
03A0
0000
0000
ENDCHAR
STARTCHAR U+00FC
ENCODING 252
SWIDTH 1000 0
DWIDTH 16 0
BBX 16 16 0 -2
BITMAP 
0000
0000
0240
0240
0000
0000
0420
0420
0420
0420
0420
0420
0460
03A0
0000
0000
ENDCHAR
STARTCHAR U+00FD
ENCODING 253
SWIDTH 1000 0
DWIDTH 16 0
BBX 16 16 0 -2
BITMAP 
0000
0000
00C0
0300
0000
0000
0420
0420
0420
0420
0420
0260
01A0
0020
0020
03C0
ENDCHAR
STARTCHAR U+00FE
ENCODING 254
SWIDTH 1000 0
DWIDTH 16 0
BBX 16 16 0 -2
BITMAP 
0000
0000
0000
0400
0400
0400
05C0
0620
0420
0420
0420
0420
0620
05C0
0400
0400
ENDCHAR
STARTCHAR U+00FF
ENCODING 255
SWIDTH 1000 0
DWIDTH 16 0
BBX 16 16 0 -2
BITMAP 
0000
0000
0240
0240
0000
0000
0420
0420
0420
0420
0420
0260
01A0
0020
0020
03C0
ENDCHAR
STARTCHAR U+0100
ENCODING 256
SWIDTH 1000 0
DWIDTH 16 0
BBX 16 16 0 -2
BITMAP 
0000
03C0
0000
0000
0180
0240
0240
0420
0420
07E0
0420
0420
0420
0420
0000
0000
ENDCHAR
STARTCHAR U+0101
ENCODING 257
SWIDTH 1000 0
DWIDTH 16 0
BBX 16 16 0 -2
BITMAP 
0000
0000
0000
03C0
0000
0000
03C0
0420
0020
03E0
0420
0420
0460
03A0
0000
0000
ENDCHAR
STARTCHAR U+0102
ENCODING 258
SWIDTH 1000 0
DWIDTH 16 0
BBX 16 16 0 -2
BITMAP 
0420
0420
03C0
0000
0180
0240
0240
0420
0420
07E0
0420
0420
0420
0420
0000
0000
ENDCHAR
STARTCHAR U+0103
ENCODING 259
SWIDTH 1000 0
DWIDTH 16 0
BBX 16 16 0 -2
BITMAP 
0000
0420
0420
03C0
0000
0000
03C0
0420
0020
03E0
0420
0420
0460
03A0
0000
0000
ENDCHAR
STARTCHAR U+0104
ENCODING 260
SWIDTH 1000 0
DWIDTH 16 0
BBX 16 16 0 -2
BITMAP 
0000
0000
0000
0000
0180
0240
0240
0420
0420
07E0
0420
0420
0420
0420
0040
0030
ENDCHAR
STARTCHAR U+0105
ENCODING 261
SWIDTH 1000 0
DWIDTH 16 0
BBX 16 16 0 -2
BITMAP 
0000
0000
0000
0000
0000
0000
03C0
0420
0020
03E0
0420
0420
0460
03A0
0040
0030
ENDCHAR
STARTCHAR U+0106
ENCODING 262
SWIDTH 1000 0
DWIDTH 16 0
BBX 16 16 0 -2
BITMAP 
00C0
0300
0000
0000
03C0
0420
0420
0400
0400
0400
0400
0420
0420
03C0
0000
0000
ENDCHAR
STARTCHAR U+0107
ENCODING 263
SWIDTH 1000 0
DWIDTH 16 0
BBX 16 16 0 -2
BITMAP 
0000
0000
00C0
0300
0000
0000
03C0
0420
0400
0400
0400
0400
0420
03C0
0000
0000
ENDCHAR
STARTCHAR U+0108
ENCODING 264
SWIDTH 1000 0
DWIDTH 16 0
BBX 16 16 0 -2
BITMAP 
0180
0240
0000
0000
03C0
0420
0420
0400
0400
0400
0400
0420
0420
03C0
0000
0000
ENDCHAR
STARTCHAR U+0109
ENCODING 265
SWIDTH 1000 0
DWIDTH 16 0
BBX 16 16 0 -2
BITMAP 
0000
0000
0180
0240
0000
0000
03C0
0420
0400
0400
0400
0400
0420
03C0
0000
0000
ENDCHAR
STARTCHAR U+010A
ENCODING 266
SWIDTH 1000 0
DWIDTH 16 0
BBX 16 16 0 -2
BITMAP 
0100
0100
0000
0000
03C0
0420
0420
0400
0400
0400
0400
0420
0420
03C0
0000
0000
ENDCHAR
STARTCHAR U+010B
ENCODING 267
SWIDTH 1000 0
DWIDTH 16 0
BBX 16 16 0 -2
BITMAP 
0000
0000
0100
0100
0000
0000
03C0
0420
0400
0400
0400
0400
0420
03C0
0000
0000
ENDCHAR
STARTCHAR U+010C
ENCODING 268
SWIDTH 1000 0
DWIDTH 16 0
BBX 16 16 0 -2
BITMAP 
0240
0180
0000
0000
03C0
0420
0420
0400
0400
0400
0400
0420
0420
03C0
0000
0000
ENDCHAR
STARTCHAR U+010D
ENCODING 269
SWIDTH 1000 0
DWIDTH 16 0
BBX 16 16 0 -2
BITMAP 
0000
0000
0240
0180
0000
0000
03C0
0420
0400
0400
0400
0400
0420
03C0
0000
0000
ENDCHAR
STARTCHAR U+010E
ENCODING 270
SWIDTH 1000 0
DWIDTH 16 0
BBX 16 16 0 -2
BITMAP 
0480
0300
0000
0000
0780
0440
0420
0420
0420
0420
0420
0420
0440
0780
0000
0000
ENDCHAR
STARTCHAR U+010F
ENCODING 271
SWIDTH 1000 0
DWIDTH 16 0
BBX 16 16 0 -2
BITMAP 
0240
0180
0000
0020
0020
0020
03A0
0460
0420
0420
0420
0420
0460
03A0
0000
0000
ENDCHAR
STARTCHAR U+0110
ENCODING 272
SWIDTH 1000 0
DWIDTH 16 0
BBX 16 16 0 -2
BITMAP 
0000
0000
0000
0000
0780
0440
0420
0420
0F20
0420
0420
0420
0440
0780
0000
0000
ENDCHAR
STARTCHAR U+0111
ENCODING 273
SWIDTH 1000 0
DWIDTH 16 0
BBX 16 16 0 -2
BITMAP 
0000
0000
0000
0020
00F0
0020
03A0
0460
0420
0420
0420
0420
0460
03A0
0000
0000
ENDCHAR
STARTCHAR U+0112
ENCODING 274
SWIDTH 1000 0
DWIDTH 16 0
BBX 16 16 0 -2
BITMAP 
0000
03C0
0000
0000
07E0
0400
0400
0400
07C0
0400
0400
0400
0400
07E0
0000
0000
ENDCHAR
STARTCHAR U+0113
ENCODING 275
SWIDTH 1000 0
DWIDTH 16 0
BBX 16 16 0 -2
BITMAP 
0000
0000
0000
03C0
0000
0000
03C0
0420
0420
07E0
0400
0400
0420
03C0
0000
0000
ENDCHAR
STARTCHAR U+0114
ENCODING 276
SWIDTH 1000 0
DWIDTH 16 0
BBX 16 16 0 -2
BITMAP 
0420
0420
03C0
0000
07E0
0400
0400
0400
07C0
0400
0400
0400
0400
07E0
0000
0000
ENDCHAR
STARTCHAR U+0115
ENCODING 277
SWIDTH 1000 0
DWIDTH 16 0
BBX 16 16 0 -2
BITMAP 
0000
0000
0420
0420
03C0
0000
03C0
0420
0420
07E0
0400
0400
0420
03C0
0000
0000
ENDCHAR
STARTCHAR U+0116
ENCODING 278
SWIDTH 1000 0
DWIDTH 16 0
BBX 16 16 0 -2
BITMAP 
0100
0100
0000
0000
07E0
0400
0400
0400
07C0
0400
0400
0400
0400
07E0
0000
0000
ENDCHAR
STARTCHAR U+0117
ENCODING 279
SWIDTH 1000 0
DWIDTH 16 0
BBX 16 16 0 -2
BITMAP 
0000
0000
0100
0100
0000
0000
03C0
0420
0420
07E0
0400
0400
0420
03C0
0000
0000
ENDCHAR
STARTCHAR U+0118
ENCODING 280
SWIDTH 1000 0
DWIDTH 16 0
BBX 16 16 0 -2
BITMAP 
0000
0000
0000
0000
07E0
0400
0400
0400
07C0
0400
0400
0400
0400
07E0
0080
0060
ENDCHAR
STARTCHAR U+0119
ENCODING 281
SWIDTH 1000 0
DWIDTH 16 0
BBX 16 16 0 -2
BITMAP 
0000
0000
0000
0000
0000
0000
03C0
0420
0420
07E0
0400
0400
0420
03C0
0100
00C0
ENDCHAR
STARTCHAR U+011A
ENCODING 282
SWIDTH 1000 0
DWIDTH 16 0
BBX 16 16 0 -2
BITMAP 
0240
0180
0000
0000
07E0
0400
0400
0400
07C0
0400
0400
0400
0400
07E0
0000
0000
ENDCHAR
STARTCHAR U+011B
ENCODING 283
SWIDTH 1000 0
DWIDTH 16 0
BBX 16 16 0 -2
BITMAP 
0000
0000
0240
0180
0000
0000
03C0
0420
0420
07E0
0400
0400
0420
03C0
0000
0000
ENDCHAR
STARTCHAR U+011C
ENCODING 284
SWIDTH 1000 0
DWIDTH 16 0
BBX 16 16 0 -2
BITMAP 
0180
0240
0000
0000
03C0
0420
0420
0400
0400
04E0
0420
0420
0460
03A0
0000
0000
ENDCHAR
STARTCHAR U+011D
ENCODING 285
SWIDTH 1000 0
DWIDTH 16 0
BBX 16 16 0 -2
BITMAP 
0000
0000
0180
0240
0000
0020
03A0
0440
0440
0440
0380
0200
03C0
0420
0420
03C0
ENDCHAR
STARTCHAR U+011E
ENCODING 286
SWIDTH 1000 0
DWIDTH 16 0
BBX 16 16 0 -2
BITMAP 
0420
0420
03C0
0000
03C0
0420
0420
0400
0400
04E0
0420
0420
0460
03A0
0000
0000
ENDCHAR
STARTCHAR U+011F
ENCODING 287
SWIDTH 1000 0
DWIDTH 16 0
BBX 16 16 0 -2
BITMAP 
0000
0420
0420
03C0
0000
0020
03A0
0440
0440
0440
0380
0200
03C0
0420
0420
03C0
ENDCHAR
STARTCHAR U+0120
ENCODING 288
SWIDTH 1000 0
DWIDTH 16 0
BBX 16 16 0 -2
BITMAP 
0100
0100
0000
0000
03C0
0420
0420
0400
0400
04E0
0420
0420
0460
03A0
0000
0000
ENDCHAR
STARTCHAR U+0121
ENCODING 289
SWIDTH 1000 0
DWIDTH 16 0
BBX 16 16 0 -2
BITMAP 
0000
0000
0100
0100
0000
0020
03A0
0440
0440
0440
0380
0200
03C0
0420
0420
03C0
ENDCHAR
STARTCHAR U+0122
ENCODING 290
SWIDTH 1000 0
DWIDTH 16 0
BBX 16 16 0 -2
BITMAP 
0000
0000
0000
0000
03C0
0420
0420
0400
0400
04E0
0420
0420
0460
03A0
0080
0300
ENDCHAR
STARTCHAR U+0123
ENCODING 291
SWIDTH 1000 0
DWIDTH 16 0
BBX 16 16 0 -2
BITMAP 
0000
0000
00C0
0100
0000
0020
03A0
0440
0440
0440
0380
0200
03C0
0420
0420
03C0
ENDCHAR
STARTCHAR U+0124
ENCODING 292
SWIDTH 1000 0
DWIDTH 16 0
BBX 16 16 0 -2
BITMAP 
0180
0240
0000
0000
0420
0420
0420
0420
07E0
0420
0420
0420
0420
0420
0000
0000
ENDCHAR
STARTCHAR U+0125
ENCODING 293
SWIDTH 1000 0
DWIDTH 16 0
BBX 16 16 0 -2
BITMAP 
0300
0480
0000
0400
0400
0400
05C0
0620
0420
0420
0420
0420
0420
0420
0000
0000
ENDCHAR
STARTCHAR U+0126
ENCODING 294
SWIDTH 1000 0
DWIDTH 16 0
BBX 16 16 0 -2
BITMAP 
0000
0000
0000
0000
0420
0420
0FF0
0420
0420
07E0
0420
0420
0420
0420
0000
0000
ENDCHAR
STARTCHAR U+0127
ENCODING 295
SWIDTH 1000 0
DWIDTH 16 0
BBX 16 16 0 -2
BITMAP 
0000
0000
0000
0400
0F00
0400
05C0
0620
0420
0420
0420
0420
0420
0420
0000
0000
ENDCHAR
STARTCHAR U+0128
ENCODING 296
SWIDTH 1000 0
DWIDTH 16 0
BBX 16 16 0 -2
BITMAP 
0320
04C0
0000
0000
03E0
0080
0080
0080
0080
0080
0080
0080
0080
03E0
0000
0000
ENDCHAR
STARTCHAR U+0129
ENCODING 297
SWIDTH 1000 0
DWIDTH 16 0
BBX 16 16 0 -2
BITMAP 
0000
0000
0320
04C0
0000
0000
0180
0080
0080
0080
0080
0080
0080
03E0
0000
0000
ENDCHAR
STARTCHAR U+012A
ENCODING 298
SWIDTH 1000 0
DWIDTH 16 0
BBX 16 16 0 -2
BITMAP 
0000
03C0
0000
0000
03E0
0080
0080
0080
0080
0080
0080
0080
0080
03E0
0000
0000
ENDCHAR
STARTCHAR U+012B
ENCODING 299
SWIDTH 1000 0
DWIDTH 16 0
BBX 16 16 0 -2
BITMAP 
0000
0000
0000
03C0
0000
0000
0180
0080
0080
0080
0080
0080
0080
03E0
0000
0000
ENDCHAR
STARTCHAR U+012C
ENCODING 300
SWIDTH 1000 0
DWIDTH 16 0
BBX 16 16 0 -2
BITMAP 
0420
0420
03C0
0000
03E0
0080
0080
0080
0080
0080
0080
0080
0080
03E0
0000
0000
ENDCHAR
STARTCHAR U+012D
ENCODING 301
SWIDTH 1000 0
DWIDTH 16 0
BBX 16 16 0 -2
BITMAP 
0000
0000
0420
0420
03C0
0000
0180
0080
0080
0080
0080
0080
0080
03E0
0000
0000
ENDCHAR
STARTCHAR U+012E
ENCODING 302
SWIDTH 1000 0
DWIDTH 16 0
BBX 16 16 0 -2
BITMAP 
0000
0000
0000
0000
03E0
0080
0080
0080
0080
0080
0080
0080
0080
03E0
0080
0060
ENDCHAR
STARTCHAR U+012F
ENCODING 303
SWIDTH 1000 0
DWIDTH 16 0
BBX 16 16 0 -2
BITMAP 
0000
0000
0000
0080
0080
0000
0180
0080
0080
0080
0080
0080
0080
03E0
0080
0060
ENDCHAR
STARTCHAR U+0130
ENCODING 304
SWIDTH 1000 0
DWIDTH 16 0
BBX 16 16 0 -2
BITMAP 
0080
0080
0000
0000
03E0
0080
0080
0080
0080
0080
0080
0080
0080
03E0
0000
0000
ENDCHAR
STARTCHAR U+0131
ENCODING 305
SWIDTH 1000 0
DWIDTH 16 0
BBX 16 16 0 -2
BITMAP 
0000
0000
0000
0000
0000
0000
0180
0080
0080
0080
0080
0080
0080
03E0
0000
0000
ENDCHAR
STARTCHAR U+0132
ENCODING 306
SWIDTH 1000 0
DWIDTH 16 0
BBX 16 16 0 -2
BITMAP 
0000
0000
0000
0000
0420
0420
0420
0420
0420
0420
0020
0020
0420
03C0
0000
0000
ENDCHAR
STARTCHAR U+0133
ENCODING 307
SWIDTH 1000 0
DWIDTH 16 0
BBX 16 16 0 -2
BITMAP 
0000
0000
0220
0220
0000
0000
0220
0220
0220
0220
0220
0220
01A0
0020
0220
01C0
ENDCHAR
STARTCHAR U+0134
ENCODING 308
SWIDTH 1000 0
DWIDTH 16 0
BBX 16 16 0 -2
BITMAP 
00C0
0120
0000
0000
01F0
0040
0040
0040
0040
0040
0040
0440
0440
0380
0000
0000
ENDCHAR
STARTCHAR U+0135
ENCODING 309
SWIDTH 1000 0
DWIDTH 16 0
BBX 16 16 0 -2
BITMAP 
0000
0000
00C0
0120
0000
0000
00C0
0040
0040
0040
0040
0040
0040
0040
0480
0300
ENDCHAR
STARTCHAR U+0136
ENCODING 310
SWIDTH 1000 0
DWIDTH 16 0
BBX 16 16 0 -2
BITMAP 
0000
0000
0000
0000
0420
0440
0480
0500
0600
0600
0500
0480
0440
0420
0200
0C00
ENDCHAR
STARTCHAR U+0137
ENCODING 311
SWIDTH 1000 0
DWIDTH 16 0
BBX 16 16 0 -2
BITMAP 
0000
0000
0000
0400
0400
0400
0440
0480
0500
0600
0500
0480
0440
0420
0200
0C00
ENDCHAR
STARTCHAR U+0138
ENCODING 312
SWIDTH 1000 0
DWIDTH 16 0
BBX 16 16 0 -2
BITMAP 
0000
0000
0000
0000
0000
0000
0420
0440
0480
0700
0700
0480
0440
0420
0000
0000
ENDCHAR
STARTCHAR U+0139
ENCODING 313
SWIDTH 1000 0
DWIDTH 16 0
BBX 16 16 0 -2
BITMAP 
0180
0600
0000
0000
0400
0400
0400
0400
0400
0400
0400
0400
0400
07E0
0000
0000
ENDCHAR
STARTCHAR U+013A
ENCODING 314
SWIDTH 1000 0
DWIDTH 16 0
BBX 16 16 0 -2
BITMAP 
00C0
0300
0000
0180
0080
0080
0080
0080
0080
0080
0080
0080
0080
03E0
0000
0000
ENDCHAR
STARTCHAR U+013B
ENCODING 315
SWIDTH 1000 0
DWIDTH 16 0
BBX 16 16 0 -2
BITMAP 
0000
0000
0000
0000
0400
0400
0400
0400
0400
0400
0400
0400
0400
07E0
0080
0300
ENDCHAR
STARTCHAR U+013C
ENCODING 316
SWIDTH 1000 0
DWIDTH 16 0
BBX 16 16 0 -2
BITMAP 
0000
0000
0000
0180
0080
0080
0080
0080
0080
0080
0080
0080
0080
03E0
0080
0300
ENDCHAR
STARTCHAR U+013D
ENCODING 317
SWIDTH 1000 0
DWIDTH 16 0
BBX 16 16 0 -2
BITMAP 
0240
0180
0000
0000
0400
0400
0400
0400
0400
0400
0400
0400
0400
07E0
0000
0000
ENDCHAR
STARTCHAR U+013E
ENCODING 318
SWIDTH 1000 0
DWIDTH 16 0
BBX 16 16 0 -2
BITMAP 
0240
0180
0000
0180
0080
0080
0080
0080
0080
0080
0080
0080
0080
03E0
0000
0000
ENDCHAR
STARTCHAR U+013F
ENCODING 319
SWIDTH 1000 0
DWIDTH 16 0
BBX 16 16 0 -2
BITMAP 
0000
0000
0000
0000
0400
0400
0400
0400
0440
0440
0400
0400
0400
07E0
0000
0000
ENDCHAR
STARTCHAR U+0140
ENCODING 320
SWIDTH 1000 0
DWIDTH 16 0
BBX 16 16 0 -2
BITMAP 
0000
0000
0000
0300
0100
0100
0100
0100
0140
0140
0100
0100
0100
07C0
0000
0000
ENDCHAR
STARTCHAR U+0141
ENCODING 321
SWIDTH 1000 0
DWIDTH 16 0
BBX 16 16 0 -2
BITMAP 
0000
0000
0000
0000
0400
0400
0480
0500
0600
0C00
0400
0400
0400
07E0
0000
0000
ENDCHAR
STARTCHAR U+0142
ENCODING 322
SWIDTH 1000 0
DWIDTH 16 0
BBX 16 16 0 -2
BITMAP 
0000
0000
0000
0180
0080
0080
00A0
00C0
0180
0280
0080
0080
0080
03E0
0000
0000
ENDCHAR
STARTCHAR U+0143
ENCODING 323
SWIDTH 1000 0
DWIDTH 16 0
BBX 16 16 0 -2
BITMAP 
00C0
0300
0000
0000
0420
0620
0620
0520
0520
04A0
04A0
0460
0460
0420
0000
0000
ENDCHAR
STARTCHAR U+0144
ENCODING 324
SWIDTH 1000 0
DWIDTH 16 0
BBX 16 16 0 -2
BITMAP 
0000
0000
00C0
0300
0000
0000
05C0
0620
0420
0420
0420
0420
0420
0420
0000
0000
ENDCHAR
STARTCHAR U+0145
ENCODING 325
SWIDTH 1000 0
DWIDTH 16 0
BBX 16 16 0 -2
BITMAP 
0000
0000
0000
0000
0420
0620
0620
0520
0520
04A0
04A0
0460
0460
0420
0200
0C00
ENDCHAR
STARTCHAR U+0146
ENCODING 326
SWIDTH 1000 0
DWIDTH 16 0
BBX 16 16 0 -2
BITMAP 
0000
0000
0000
0000
0000
0000
05C0
0620
0420
0420
0420
0420
0420
0420
0200
0C00
ENDCHAR
STARTCHAR U+0147
ENCODING 327
SWIDTH 1000 0
DWIDTH 16 0
BBX 16 16 0 -2
BITMAP 
0240
0180
0000
0000
0420
0620
0620
0520
0520
04A0
04A0
0460
0460
0420
0000
0000
ENDCHAR
STARTCHAR U+0148
ENCODING 328
SWIDTH 1000 0
DWIDTH 16 0
BBX 16 16 0 -2
BITMAP 
0000
0000
0240
0180
0000
0000
05C0
0620
0420
0420
0420
0420
0420
0420
0000
0000
ENDCHAR
STARTCHAR U+0149
ENCODING 329
SWIDTH 1000 0
DWIDTH 16 0
BBX 16 16 0 -2
BITMAP 
0000
0600
0200
0200
0400
0000
05C0
0620
0420
0420
0420
0420
0420
0420
0000
0000
ENDCHAR
STARTCHAR U+014A
ENCODING 330
SWIDTH 1000 0
DWIDTH 16 0
BBX 16 16 0 -2
BITMAP 
0000
0000
0000
0000
05C0
0620
0420
0420
0420
0420
0420
0420
0420
04C0
0000
0000
ENDCHAR
STARTCHAR U+014B
ENCODING 331
SWIDTH 1000 0
DWIDTH 16 0
BBX 16 16 0 -2
BITMAP 
0000
0000
0000
0000
0000
0000
05C0
0620
0420
0420
0420
0420
0420
0420
0020
00C0
ENDCHAR
STARTCHAR U+014C
ENCODING 332
SWIDTH 1000 0
DWIDTH 16 0
BBX 16 16 0 -2
BITMAP 
0000
03C0
0000
0000
03C0
0420
0420
0420
0420
0420
0420
0420
0420
03C0
0000
0000
ENDCHAR
STARTCHAR U+014D
ENCODING 333
SWIDTH 1000 0
DWIDTH 16 0
BBX 16 16 0 -2
BITMAP 
0000
0000
0000
03C0
0000
0000
03C0
0420
0420
0420
0420
0420
0420
03C0
0000
0000
ENDCHAR
STARTCHAR U+014E
ENCODING 334
SWIDTH 1000 0
DWIDTH 16 0
BBX 16 16 0 -2
BITMAP 
0420
0420
03C0
0000
03C0
0420
0420
0420
0420
0420
0420
0420
0420
03C0
0000
0000
ENDCHAR
STARTCHAR U+014F
ENCODING 335
SWIDTH 1000 0
DWIDTH 16 0
BBX 16 16 0 -2
BITMAP 
0000
0000
0420
0420
03C0
0000
03C0
0420
0420
0420
0420
0420
0420
03C0
0000
0000
ENDCHAR
STARTCHAR U+0150
ENCODING 336
SWIDTH 1000 0
DWIDTH 16 0
BBX 16 16 0 -2
BITMAP 
0330
0440
0000
0000
03C0
0420
0420
0420
0420
0420
0420
0420
0420
03C0
0000
0000
ENDCHAR
STARTCHAR U+0151
ENCODING 337
SWIDTH 1000 0
DWIDTH 16 0
BBX 16 16 0 -2
BITMAP 
0000
0000
0330
0440
0000
0000
03C0
0420
0420
0420
0420
0420
0420
03C0
0000
0000
ENDCHAR
STARTCHAR U+0152
ENCODING 338
SWIDTH 1000 0
DWIDTH 16 0
BBX 16 16 0 -2
BITMAP 
0000
0000
0000
0000
0370
0480
0480
0480
04E0
0480
0480
0480
0480
0370
0000
0000
ENDCHAR
STARTCHAR U+0153
ENCODING 339
SWIDTH 1000 0
DWIDTH 16 0
BBX 16 16 0 -2
BITMAP 
0000
0000
0000
0000
0000
0000
0360
0490
0490
04F0
0480
0480
0490
0360
0000
0000
ENDCHAR
STARTCHAR U+0154
ENCODING 340
SWIDTH 1000 0
DWIDTH 16 0
BBX 16 16 0 -2
BITMAP 
00C0
0300
0000
0000
07C0
0420
0420
0420
07C0
0480
0440
0440
0420
0420
0000
0000
ENDCHAR
STARTCHAR U+0155
ENCODING 341
SWIDTH 1000 0
DWIDTH 16 0
BBX 16 16 0 -2
BITMAP 
0000
0000
00C0
0300
0000
0000
05C0
0620
0420
0400
0400
0400
0400
0400
0000
0000
ENDCHAR
STARTCHAR U+0156
ENCODING 342
SWIDTH 1000 0
DWIDTH 16 0
BBX 16 16 0 -2
BITMAP 
0000
0000
0000
0000
07C0
0420
0420
0420
07C0
0480
0440
0440
0420
0420
0200
0C00
ENDCHAR
STARTCHAR U+0157
ENCODING 343
SWIDTH 1000 0
DWIDTH 16 0
BBX 16 16 0 -2
BITMAP 
0000
0000
0000
0000
0000
0000
05C0
0620
0420
0400
0400
0400
0400
0400
0200
0C00
ENDCHAR
STARTCHAR U+0158
ENCODING 344
SWIDTH 1000 0
DWIDTH 16 0
BBX 16 16 0 -2
BITMAP 
0240
0180
0000
0000
07C0
0420
0420
0420
07C0
0480
0440
0440
0420
0420
0000
0000
ENDCHAR
STARTCHAR U+0159
ENCODING 345
SWIDTH 1000 0
DWIDTH 16 0
BBX 16 16 0 -2
BITMAP 
0000
0000
0240
0180
0000
0000
05C0
0620
0420
0400
0400
0400
0400
0400
0000
0000
ENDCHAR
STARTCHAR U+015A
ENCODING 346
SWIDTH 1000 0
DWIDTH 16 0
BBX 16 16 0 -2
BITMAP 
00C0
0300
0000
0000
03C0
0420
0420
0400
0300
00C0
0020
0420
0420
03C0
0000
0000
ENDCHAR
STARTCHAR U+015B
ENCODING 347
SWIDTH 1000 0
DWIDTH 16 0
BBX 16 16 0 -2
BITMAP 
0000
0000
00C0
0300
0000
0000
03C0
0420
0400
0300
00C0
0420
0420
03C0
0000
0000
ENDCHAR
STARTCHAR U+015C
ENCODING 348
SWIDTH 1000 0
DWIDTH 16 0
BBX 16 16 0 -2
BITMAP 
0180
0240
0000
0000
03C0
0420
0420
0400
0300
00C0
0020
0420
0420
03C0
0000
0000
ENDCHAR
STARTCHAR U+015D
ENCODING 349
SWIDTH 1000 0
DWIDTH 16 0
BBX 16 16 0 -2
BITMAP 
0000
0000
0180
0240
0000
0000
03C0
0420
0400
0300
00C0
0020
0420
03C0
0000
0000
ENDCHAR
STARTCHAR U+015E
ENCODING 350
SWIDTH 1000 0
DWIDTH 16 0
BBX 16 16 0 -2
BITMAP 
0000
0000
0000
0000
03C0
0420
0420
0400
0300
00C0
0020
0420
0420
03C0
0080
0300
ENDCHAR
STARTCHAR U+015F
ENCODING 351
SWIDTH 1000 0
DWIDTH 16 0
BBX 16 16 0 -2
BITMAP 
0000
0000
0000
0000
0000
0000
03C0
0420
0400
0300
00C0
0020
0420
03C0
0080
0300
ENDCHAR
STARTCHAR U+0160
ENCODING 352
SWIDTH 1000 0
DWIDTH 16 0
BBX 16 16 0 -2
BITMAP 
0240
0180
0000
0000
03C0
0420
0420
0400
0300
00C0
0020
0420
0420
03C0
0000
0000
ENDCHAR
STARTCHAR U+0161
ENCODING 353
SWIDTH 1000 0
DWIDTH 16 0
BBX 16 16 0 -2
BITMAP 
0000
0000
0240
0180
0000
0000
03C0
0420
0400
0300
00C0
0020
0420
03C0
0000
0000
ENDCHAR
STARTCHAR U+0162
ENCODING 354
SWIDTH 1000 0
DWIDTH 16 0
BBX 16 16 0 -2
BITMAP 
0000
0000
0000
0000
07F0
0080
0080
0080
0080
0080
0080
0080
0080
0080
0080
0300
ENDCHAR
STARTCHAR U+0163
ENCODING 355
SWIDTH 1000 0
DWIDTH 16 0
BBX 16 16 0 -2
BITMAP 
0000
0000
0000
0000
0100
0100
0100
07C0
0100
0100
0100
0100
0100
00C0
0080
0300
ENDCHAR
STARTCHAR U+0164
ENCODING 356
SWIDTH 1000 0
DWIDTH 16 0
BBX 16 16 0 -2
BITMAP 
0240
0180
0000
0000
07F0
0080
0080
0080
0080
0080
0080
0080
0080
0080
0000
0000
ENDCHAR
STARTCHAR U+0165
ENCODING 357
SWIDTH 1000 0
DWIDTH 16 0
BBX 16 16 0 -2
BITMAP 
0240
0180
0000
0000
0100
0100
0100
07C0
0100
0100
0100
0100
0100
00C0
0000
0000
ENDCHAR
STARTCHAR U+0166
ENCODING 358
SWIDTH 1000 0
DWIDTH 16 0
BBX 16 16 0 -2
BITMAP 
0000
0000
0000
0000
07F0
0080
0080
0080
03E0
0080
0080
0080
0080
0080
0000
0000
ENDCHAR
STARTCHAR U+0167
ENCODING 359
SWIDTH 1000 0
DWIDTH 16 0
BBX 16 16 0 -2
BITMAP 
0000
0000
0000
0000
0100
0100
0100
07C0
0100
0100
07C0
0100
0100
00C0
0000
0000
ENDCHAR
STARTCHAR U+0168
ENCODING 360
SWIDTH 1000 0
DWIDTH 16 0
BBX 16 16 0 -2
BITMAP 
0320
04C0
0000
0000
0420
0420
0420
0420
0420
0420
0420
0420
0420
03C0
0000
0000
ENDCHAR
STARTCHAR U+0169
ENCODING 361
SWIDTH 1000 0
DWIDTH 16 0
BBX 16 16 0 -2
BITMAP 
0000
0000
0320
04C0
0000
0000
0420
0420
0420
0420
0420
0420
0460
03A0
0000
0000
ENDCHAR
STARTCHAR U+016A
ENCODING 362
SWIDTH 1000 0
DWIDTH 16 0
BBX 16 16 0 -2
BITMAP 
0000
03C0
0000
0000
0420
0420
0420
0420
0420
0420
0420
0420
0420
03C0
0000
0000
ENDCHAR
STARTCHAR U+016B
ENCODING 363
SWIDTH 1000 0
DWIDTH 16 0
BBX 16 16 0 -2
BITMAP 
0000
0000
0000
03C0
0000
0000
0420
0420
0420
0420
0420
0420
0460
03A0
0000
0000
ENDCHAR
STARTCHAR U+016C
ENCODING 364
SWIDTH 1000 0
DWIDTH 16 0
BBX 16 16 0 -2
BITMAP 
0420
0420
03C0
0000
0420
0420
0420
0420
0420
0420
0420
0420
0420
03C0
0000
0000
ENDCHAR
STARTCHAR U+016D
ENCODING 365
SWIDTH 1000 0
DWIDTH 16 0
BBX 16 16 0 -2
BITMAP 
0000
0420
0420
03C0
0000
0000
0420
0420
0420
0420
0420
0420
0460
03A0
0000
0000
ENDCHAR
STARTCHAR U+016E
ENCODING 366
SWIDTH 1000 0
DWIDTH 16 0
BBX 16 16 0 -2
BITMAP 
0180
0240
0180
0000
0420
0420
0420
0420
0420
0420
0420
0420
0420
03C0
0000
0000
ENDCHAR
STARTCHAR U+016F
ENCODING 367
SWIDTH 1000 0
DWIDTH 16 0
BBX 16 16 0 -2
BITMAP 
0000
0000
0180
0240
0180
0000
0420
0420
0420
0420
0420
0420
0460
03A0
0000
0000
ENDCHAR
STARTCHAR U+0170
ENCODING 368
SWIDTH 1000 0
DWIDTH 16 0
BBX 16 16 0 -2
BITMAP 
0330
0440
0000
0000
0420
0420
0420
0420
0420
0420
0420
0420
0420
03C0
0000
0000
ENDCHAR
STARTCHAR U+0171
ENCODING 369
SWIDTH 1000 0
DWIDTH 16 0
BBX 16 16 0 -2
BITMAP 
0000
0000
0330
0440
0000
0000
0420
0420
0420
0420
0420
0420
0460
03A0
0000
0000
ENDCHAR
STARTCHAR U+0172
ENCODING 370
SWIDTH 1000 0
DWIDTH 16 0
BBX 16 16 0 -2
BITMAP 
0000
0000
0000
0000
0420
0420
0420
0420
0420
0420
0420
0420
0420
03C0
0100
00C0
ENDCHAR
STARTCHAR U+0173
ENCODING 371
SWIDTH 1000 0
DWIDTH 16 0
BBX 16 16 0 -2
BITMAP 
0000
0000
0000
0000
0000
0000
0420
0420
0420
0420
0420
0420
0460
03A0
0040
0030
ENDCHAR
STARTCHAR U+0174
ENCODING 372
SWIDTH 1000 0
DWIDTH 16 0
BBX 16 16 0 -2
BITMAP 
0180
0240
0000
0000
0420
0420
0420
0420
05A0
05A0
0660
0660
0420
0420
0000
0000
ENDCHAR
STARTCHAR U+0175
ENCODING 373
SWIDTH 1000 0
DWIDTH 16 0
BBX 16 16 0 -2
BITMAP 
0000
0000
0180
0240
0000
0000
0410
0490
0490
0490
0490
0490
0490
0360
0000
0000
ENDCHAR
STARTCHAR U+0176
ENCODING 374
SWIDTH 1000 0
DWIDTH 16 0
BBX 16 16 0 -2
BITMAP 
0180
0240
0000
0000
0410
0410
0220
0220
0140
0080
0080
0080
0080
0080
0000
0000
ENDCHAR
STARTCHAR U+0177
ENCODING 375
SWIDTH 1000 0
DWIDTH 16 0
BBX 16 16 0 -2
BITMAP 
0000
0000
0180
0240
0000
0000
0420
0420
0420
0420
0420
0260
01A0
0020
0020
03C0
ENDCHAR
STARTCHAR U+0178
ENCODING 376
SWIDTH 1000 0
DWIDTH 16 0
BBX 16 16 0 -2
BITMAP 
0240
0240
0000
0000
0410
0410
0220
0220
0140
0080
0080
0080
0080
0080
0000
0000
ENDCHAR
STARTCHAR U+0179
ENCODING 377
SWIDTH 1000 0
DWIDTH 16 0
BBX 16 16 0 -2
BITMAP 
00C0
0300
0000
0000
07E0
0020
0020
0040
0080
0100
0200
0400
0400
07E0
0000
0000
ENDCHAR
STARTCHAR U+017A
ENCODING 378
SWIDTH 1000 0
DWIDTH 16 0
BBX 16 16 0 -2
BITMAP 
0000
0000
00C0
0300
0000
0000
07E0
0020
0040
0080
0100
0200
0400
07E0
0000
0000
ENDCHAR
STARTCHAR U+017B
ENCODING 379
SWIDTH 1000 0
DWIDTH 16 0
BBX 16 16 0 -2
BITMAP 
0100
0100
0000
0000
07E0
0020
0020
0040
0080
0100
0200
0400
0400
07E0
0000
0000
ENDCHAR
STARTCHAR U+017C
ENCODING 380
SWIDTH 1000 0
DWIDTH 16 0
BBX 16 16 0 -2
BITMAP 
0000
0000
0100
0100
0000
0000
07E0
0020
0040
0080
0100
0200
0400
07E0
0000
0000
ENDCHAR
STARTCHAR U+017D
ENCODING 381
SWIDTH 1000 0
DWIDTH 16 0
BBX 16 16 0 -2
BITMAP 
0240
0180
0000
0000
07E0
0020
0020
0040
0080
0100
0200
0400
0400
07E0
0000
0000
ENDCHAR
STARTCHAR U+017E
ENCODING 382
SWIDTH 1000 0
DWIDTH 16 0
BBX 16 16 0 -2
BITMAP 
0000
0000
0240
0180
0000
0000
07E0
0020
0040
0080
0100
0200
0400
07E0
0000
0000
ENDCHAR
STARTCHAR U+017F
ENCODING 383
SWIDTH 1000 0
DWIDTH 16 0
BBX 16 16 0 -2
BITMAP 
0000
0000
0000
00C0
0100
0100
0100
0300
0100
0100
0100
0100
0100
0100
0000
0000
ENDCHAR
STARTCHAR U+0307
ENCODING 775
SWIDTH 1000 0
DWIDTH 16 0
BBX 16 16 0 -2
BITMAP 
0000
0000
0000
0180
0180
0000
0000
0000
0000
0000
0000
0000
0000
0000
0000
0000
ENDCHAR
STARTCHAR U+0308
ENCODING 776
SWIDTH 1000 0
DWIDTH 16 0
BBX 16 16 0 -2
BITMAP 
0000
0000
0000
0660
0660
0000
0000
0000
0000
0000
0000
0000
0000
0000
0000
0000
ENDCHAR
STARTCHAR U+0323
ENCODING 803
SWIDTH 1000 0
DWIDTH 16 0
BBX 16 16 0 -2
BITMAP 
0000
0000
0000
0000
0000
0000
0000
0000
0000
0000
0000
0180
0180
0000
0000
0000
ENDCHAR
STARTCHAR U+0324
ENCODING 804
SWIDTH 1000 0
DWIDTH 16 0
BBX 16 16 0 -2
BITMAP 
0000
0000
0000
0000
0000
0000
0000
0000
0000
0000
0000
0660
0660
0000
0000
0000
ENDCHAR
STARTCHAR U+0358
ENCODING 856
SWIDTH 1000 0
DWIDTH 16 0
BBX 16 16 0 -2
BITMAP 
0000
0000
0000
0018
0018
0000
0000
0000
0000
0000
0000
0000
0000
0000
0000
0000
ENDCHAR
STARTCHAR U+1D16D
ENCODING 119149
SWIDTH 1000 0
DWIDTH 16 0
BBX 16 16 0 -2
BITMAP 
0000
0000
0000
0000
0000
0000
0000
0018
0018
0000
0000
0000
0000
0000
0000
0000
ENDCHAR
STARTCHAR U+1DF8
ENCODING 7672
SWIDTH 1000 0
DWIDTH 16 0
BBX 16 16 0 -2
BITMAP 
0000
0000
0000
1800
1800
0000
0000
0000
0000
0000
0000
0000
0000
0000
0000
0000
ENDCHAR
STARTCHAR U+1DFA
ENCODING 7674
SWIDTH 1000 0
DWIDTH 16 0
BBX 16 16 0 -2
BITMAP 
0000
0000
0000
0000
0000
0000
0000
0000
0000
0000
0000
1800
1800
0000
0000
0000
ENDCHAR
STARTCHAR U+1F000
ENCODING 126976
SWIDTH 1000 0
DWIDTH 16 0
BBX 16 16 0 -2
BITMAP 
3FFE
2002
2082
20E2
2382
20F2
2792
24A2
23E2
2182
22C2
24B2
288A
2082
2002
3FFE
ENDCHAR
STARTCHAR U+1F001
ENCODING 126977
SWIDTH 1000 0
DWIDTH 16 0
BBX 16 16 0 -2
BITMAP 
3FFE
2002
2082
20A2
23C2
2102
213A
2ECA
298A
290A
2BCA
290A
201A
2002
2002
3FFE
ENDCHAR
STARTCHAR U+1F002
ENCODING 126978
SWIDTH 1000 0
DWIDTH 16 0
BBX 16 16 0 -2
BITMAP 
3FFE
2002
2062
23C2
2142
2142
21FA
2F4A
294A
2E3A
280A
28FA
2F0A
2002
2002
3FFE
ENDCHAR
STARTCHAR U+1F003
ENCODING 126979
SWIDTH 1000 0
DWIDTH 16 0
BBX 16 16 0 -2
BITMAP 
3FFC
2004
2004
2084
2284
2284
22B4
2EC4
2284
2284
2284
2694
2864
2004
2004
3FFC
ENDCHAR
STARTCHAR U+1F004
ENCODING 126980
SWIDTH 1000 0
DWIDTH 16 0
BBX 16 16 0 -2
BITMAP 
3FFE
2002
2082
2082
2082
2FFA
2492
2492
27E2
2082
2082
2082
2082
2082
2002
3FFE
ENDCHAR
STARTCHAR U+1F005
ENCODING 126981
SWIDTH 1000 0
DWIDTH 16 0
BBX 16 16 0 -2
BITMAP 
3FFE
2002
2082
2FA2
2242
2422
2BF2
22A2
2E92
2802
2EF2
2252
2A22
24D2
2002
3FFE
ENDCHAR
STARTCHAR U+1F006
ENCODING 126982
SWIDTH 1000 0
DWIDTH 16 0
BBX 16 16 0 -2
BITMAP 
3FFE
2002
2FFA
280A
280A
280A
280A
280A
280A
280A
280A
280A
280A
2FFA
2002
3FFE
ENDCHAR
STARTCHAR U+1F007
ENCODING 126983
SWIDTH 1000 0
DWIDTH 16 0
BBX 16 16 0 -2
BITMAP 
3FFE
2002
2002
2002
2002
2002
2002
21FA
2E02
2002
2002
2002
2002
2002
2002
3FFE
ENDCHAR
STARTCHAR U+1F008
ENCODING 126984
SWIDTH 1000 0
DWIDTH 16 0
BBX 16 16 0 -2
BITMAP 
3FFE
2002
2002
2002
2002
23E2
2002
2002
2002
207A
2F82
2002
2002
2002
2002
3FFE
ENDCHAR
STARTCHAR U+1F009
ENCODING 126985
SWIDTH 1000 0
DWIDTH 16 0
BBX 16 16 0 -2
BITMAP 
3FFE
2002
2002
2002
23E2
2002
2002
23E2
2002
2002
20FA
2F02
2002
2002
2002
3FFE
ENDCHAR
STARTCHAR U+1F00A
ENCODING 126986
SWIDTH 1000 0
DWIDTH 16 0
BBX 16 16 0 -2
BITMAP 
3FFE
2002
2002
2002
2002
21FA
2F4A
294A
2E3A
280A
28FA
2F0A
2002
2002
2002
3FFE
ENDCHAR
STARTCHAR U+1F00B
ENCODING 126987
SWIDTH 1000 0
DWIDTH 16 0
BBX 16 16 0 -2
BITMAP 
3FFE
2002
2002
2202
2272
24C2
2C42
25F2
2492
2492
27FA
2402
2002
2002
2002
3FFE
ENDCHAR
STARTCHAR U+1F00C
ENCODING 126988
SWIDTH 1000 0
DWIDTH 16 0
BBX 16 16 0 -2
BITMAP 
3FFC
2004
2004
2004
2104
2084
2004
20F4
2F04
2044
2224
2414
2004
2004
2004
3FFC
ENDCHAR
STARTCHAR U+1F00D
ENCODING 126989
SWIDTH 1000 0
DWIDTH 16 0
BBX 16 16 0 -2
BITMAP 
3FFE
2002
2002
2002
2102
2122
21C2
2702
2102
2112
20E2
2002
2002
2002
2002
3FFE
ENDCHAR
STARTCHAR U+1F00E
ENCODING 126990
SWIDTH 1000 0
DWIDTH 16 0
BBX 16 16 0 -2
BITMAP 
3FFE
2002
2002
2002
2002
2102
2082
2282
2242
2422
281A
2002
2002
2002
2002
3FFE
ENDCHAR
STARTCHAR U+1F00F
ENCODING 126991
SWIDTH 1000 0
DWIDTH 16 0
BBX 16 16 0 -2
BITMAP 
3FFE
2002
2002
2002
2102
2162
23A2
2D22
2142
224A
2C32
2002
2002
2002
2002
3FFE
ENDCHAR
STARTCHAR U+1F010
ENCODING 126992
SWIDTH 1000 0
DWIDTH 16 0
BBX 16 16 0 -2
BITMAP 
3FFE
2002
2002
2002
2002
200A
231A
25BA
2C72
2312
20E2
21C2
2022
2002
2002
3FFE
ENDCHAR
STARTCHAR U+1F011
ENCODING 126993
SWIDTH 1000 0
DWIDTH 16 0
BBX 16 16 0 -2
BITMAP 
3FFE
2002
2002
2082
2082
2082
2082
2002
2002
2082
2082
2082
2082
2002
2002
3FFE
ENDCHAR
STARTCHAR U+1F012
ENCODING 126994
SWIDTH 1000 0
DWIDTH 16 0
BBX 16 16 0 -2
BITMAP 
3FFE
2002
2002
2082
2082
2082
2082
2002
2002
2412
2412
2412
2412
2002
2002
3FFE
ENDCHAR
STARTCHAR U+1F013
ENCODING 126995
SWIDTH 1000 0
DWIDTH 16 0
BBX 16 16 0 -2
BITMAP 
3FFC
2004
2004
2424
2424
2424
2424
2004
2004
2424
2424
2424
2424
2004
2004
3FFC
ENDCHAR
STARTCHAR U+1F014
ENCODING 126996
SWIDTH 1000 0
DWIDTH 16 0
BBX 16 16 0 -2
BITMAP 
3FFE
2002
2002
2412
2412
2412
2492
2082
2082
2492
2412
2412
2412
2002
2002
3FFE
ENDCHAR
STARTCHAR U+1F015
ENCODING 126997
SWIDTH 1000 0
DWIDTH 16 0
BBX 16 16 0 -2
BITMAP 
3FFE
2002
2002
2492
2492
2492
2492
2002
2002
2492
2492
2492
2492
2002
2002
3FFE
ENDCHAR
STARTCHAR U+1F016
ENCODING 126998
SWIDTH 1000 0
DWIDTH 16 0
BBX 16 16 0 -2
BITMAP 
3FFE
2002
2002
2082
2082
2082
2002
2492
2492
2492
2002
2492
2492
2492
2002
3FFE
ENDCHAR
STARTCHAR U+1F017
ENCODING 126999
SWIDTH 1000 0
DWIDTH 16 0
BBX 16 16 0 -2
BITMAP 
3FFE
2002
2412
2492
2552
2632
2412
2002
2002
2412
2632
2552
2492
2412
2002
3FFE
ENDCHAR
STARTCHAR U+1F018
ENCODING 127000
SWIDTH 1000 0
DWIDTH 16 0
BBX 16 16 0 -2
BITMAP 
3FFE
2002
2002
2492
2492
2492
2002
2492
2492
2492
2002
2492
2492
2492
2002
3FFE
ENDCHAR
STARTCHAR U+1F019
ENCODING 127001
SWIDTH 1000 0
DWIDTH 16 0
BBX 16 16 0 -2
BITMAP 
3FFE
2002
2002
2002
23E2
2552
29CA
2E3A
2AAA
2E3A
29CA
2552
23E2
2002
2002
3FFE
ENDCHAR
STARTCHAR U+1F01A
ENCODING 127002
SWIDTH 1000 0
DWIDTH 16 0
BBX 16 16 0 -2
BITMAP 
3FFE
2002
21C2
22A2
25D2
2772
25D2
22A2
21C2
22A2
25D2
2772
25D2
22A2
21C2
3FFE
ENDCHAR
STARTCHAR U+1F01B
ENCODING 127003
SWIDTH 1000 0
DWIDTH 16 0
BBX 16 16 0 -2
BITMAP 
3FFE
2002
2602
2902
2902
2602
2182
2242
2242
2182
2062
2092
2092
2062
2002
3FFE
ENDCHAR
STARTCHAR U+1F01C
ENCODING 127004
SWIDTH 1000 0
DWIDTH 16 0
BBX 16 16 0 -2
BITMAP 
3FFE
2002
2002
2002
2632
294A
294A
2632
2002
2632
294A
294A
2632
2002
2002
3FFE
ENDCHAR
STARTCHAR U+1F01D
ENCODING 127005
SWIDTH 1000 0
DWIDTH 16 0
BBX 16 16 0 -2
BITMAP 
3FFE
2002
2632
294A
294A
2632
2182
2242
2242
2182
2632
294A
294A
2632
2002
3FFE
ENDCHAR
STARTCHAR U+1F01E
ENCODING 127006
SWIDTH 1000 0
DWIDTH 16 0
BBX 16 16 0 -2
BITMAP 
3FFE
2002
2632
294A
294A
2632
2632
294A
294A
2632
2632
294A
294A
2632
2002
3FFE
ENDCHAR
STARTCHAR U+1F01F
ENCODING 127007
SWIDTH 1000 0
DWIDTH 16 0
BBX 16 16 0 -2
BITMAP 
3FFE
2602
2902
29C2
2722
213A
20E6
2666
299A
2992
2662
2662
2992
2992
2662
3FFE
ENDCHAR
STARTCHAR U+1F020
ENCODING 127008
SWIDTH 1000 0
DWIDTH 16 0
BBX 16 16 0 -2
BITMAP 
3FFE
2632
294A
294A
2632
294A
294A
2632
294A
294A
2632
294A
294A
2632
2002
3FFE
ENDCHAR
STARTCHAR U+1F021
ENCODING 127009
SWIDTH 1000 0
DWIDTH 16 0
BBX 16 16 0 -2
BITMAP 
3FFE
2002
2DB2
324A
324A
2DB2
2DB2
324A
324A
2DB2
2DB2
324A
324A
2DB2
2002
3FFE
ENDCHAR
STARTCHAR U+1F022
ENCODING 127010
SWIDTH 1000 0
DWIDTH 16 0
BBX 16 16 0 -2
BITMAP 
3FFE
2002
2042
227A
2282
2272
2F4A
227E
27EA
265A
2AFE
2212
2232
2002
2002
3FFE
ENDCHAR
STARTCHAR U+1F023
ENCODING 127011
SWIDTH 1000 0
DWIDTH 16 0
BBX 16 16 0 -2
BITMAP 
3FFE
2002
2222
2FFA
2142
263A
2AAA
2EBA
29CA
2AAA
2BEA
28CA
29BA
2A92
2002
3FFE
ENDCHAR
STARTCHAR U+1F024
ENCODING 127012
SWIDTH 1000 0
DWIDTH 16 0
BBX 16 16 0 -2
BITMAP 
3FFE
2002
2022
2222
2222
247A
27D2
2A52
2292
2212
2212
2212
2232
2002
2002
3FFE
ENDCHAR
STARTCHAR U+1F025
ENCODING 127013
SWIDTH 1000 0
DWIDTH 16 0
BBX 16 16 0 -2
BITMAP 
3FFE
2002
2002
2222
2FFA
2142
247A
278A
2AAA
21CA
2FEA
218A
22B2
2C92
2002
3FFE
ENDCHAR
STARTCHAR U+1F026
ENCODING 127014
SWIDTH 1000 0
DWIDTH 16 0
BBX 16 16 0 -2
BITMAP 
3FFE
2002
2082
20B2
27C2
20B2
23C2
20B2
2FC2
2322
25F2
292E
21E2
2122
2002
3FFE
ENDCHAR
STARTCHAR U+1F027
ENCODING 127015
SWIDTH 1000 0
DWIDTH 16 0
BBX 16 16 0 -2
BITMAP 
3FFE
2002
207A
2F82
2102
23F2
2222
23A2
23E2
2202
27E2
2B42
3182
267A
2002
3FFE
ENDCHAR
STARTCHAR U+1F028
ENCODING 127016
SWIDTH 1000 0
DWIDTH 16 0
BBX 16 16 0 -2
BITMAP 
3FFE
2002
2002
2122
2622
232A
2EAA
2232
2722
2622
2A52
2A92
230A
2002
2002
3FFE
ENDCHAR
STARTCHAR U+1F029
ENCODING 127017
SWIDTH 1000 0
DWIDTH 16 0
BBX 16 16 0 -2
BITMAP 
3FFE
2002
2002
2102
21E2
2122
22C2
2082
2142
22B2
2C4E
2182
2042
2002
2002
3FFE
ENDCHAR
STARTCHAR U+1F02A
ENCODING 127018
SWIDTH 1000 0
DWIDTH 16 0
BBX 16 16 0 -2
BITMAP 
3FFE
2002
27F2
21C2
23A2
2222
23E2
2222
2252
22FA
2722
2272
2EDA
2272
2002
3FFE
ENDCHAR
STARTCHAR U+1F02B
ENCODING 127019
SWIDTH 1000 0
DWIDTH 16 0
BBX 16 16 0 -2
BITMAP 
3FFE
2AAA
3556
2AAA
3556
2AAA
3556
2AAA
3556
2AAA
3556
2AAA
3556
2AAA
3556
3FFE
ENDCHAR
STARTCHAR U+1F030
ENCODING 127024
SWIDTH 1000 0
DWIDTH 16 0
BBX 16 16 0 -2
BITMAP 
0000
0000
0000
0000
7FFF
5555
6AAB
5555
6AAB
5555
7FFF
0000
0000
0000
0000
0000
ENDCHAR
STARTCHAR U+1F031
ENCODING 127025
SWIDTH 1000 0
DWIDTH 16 0
BBX 16 16 0 -2
BITMAP 
0000
0000
0000
0000
7FFF
7F7F
7F7F
7F7F
7F7F
7F7F
7FFF
0000
0000
0000
0000
0000
ENDCHAR
STARTCHAR U+1F032
ENCODING 127026
SWIDTH 1000 0
DWIDTH 16 0
BBX 16 16 0 -2
BITMAP 
0000
0000
0000
0000
7FFF
7F7F
7F7F
7F77
7F7F
7F7F
7FFF
0000
0000
0000
0000
0000
ENDCHAR
STARTCHAR U+1F033
ENCODING 127027
SWIDTH 1000 0
DWIDTH 16 0
BBX 16 16 0 -2
BITMAP 
0000
0000
0000
0000
7FFF
7F5F
7F7F
7F7F
7F7F
7F7D
7FFF
0000
0000
0000
0000
0000
ENDCHAR
STARTCHAR U+1F034
ENCODING 127028
SWIDTH 1000 0
DWIDTH 16 0
BBX 16 16 0 -2
BITMAP 
0000
0000
0000
0000
7FFF
7F5F
7F7F
7F77
7F7F
7F7D
7FFF
0000
0000
0000
0000
0000
ENDCHAR
STARTCHAR U+1F035
ENCODING 127029
SWIDTH 1000 0
DWIDTH 16 0
BBX 16 16 0 -2
BITMAP 
0000
0000
0000
0000
7FFF
7F5D
7F7F
7F7F
7F7F
7F5D
7FFF
0000
0000
0000
0000
0000
ENDCHAR
STARTCHAR U+1F036
ENCODING 127030
SWIDTH 1000 0
DWIDTH 16 0
BBX 16 16 0 -2
BITMAP 
0000
0000
0000
0000
7FFF
7F5D
7F7F
7F77
7F7F
7F5D
7FFF
0000
0000
0000
0000
0000
ENDCHAR
STARTCHAR U+1F037
ENCODING 127031
SWIDTH 1000 0
DWIDTH 16 0
BBX 16 16 0 -2
BITMAP 
0000
0000
0000
0000
7FFF
7F55
7F7F
7F7F
7F7F
7F55
7FFF
0000
0000
0000
0000
0000
ENDCHAR
STARTCHAR U+1F038
ENCODING 127032
SWIDTH 1000 0
DWIDTH 16 0
BBX 16 16 0 -2
BITMAP 
0000
0000
0000
0000
7FFF
7F7F
7F7F
777F
7F7F
7F7F
7FFF
0000
0000
0000
0000
0000
ENDCHAR
STARTCHAR U+1F039
ENCODING 127033
SWIDTH 1000 0
DWIDTH 16 0
BBX 16 16 0 -2
BITMAP 
0000
0000
0000
0000
7FFF
7F7F
7F7F
7777
7F7F
7F7F
7FFF
0000
0000
0000
0000
0000
ENDCHAR
STARTCHAR U+1F03A
ENCODING 127034
SWIDTH 1000 0
DWIDTH 16 0
BBX 16 16 0 -2
BITMAP 
0000
0000
0000
0000
7FFF
7F5F
7F7F
777F
7F7F
7F7D
7FFF
0000
0000
0000
0000
0000
ENDCHAR
STARTCHAR U+1F03B
ENCODING 127035
SWIDTH 1000 0
DWIDTH 16 0
BBX 16 16 0 -2
BITMAP 
0000
0000
0000
0000
7FFF
7F5F
7F7F
7777
7F7F
7F7D
7FFF
0000
0000
0000
0000
0000
ENDCHAR
STARTCHAR U+1F03C
ENCODING 127036
SWIDTH 1000 0
DWIDTH 16 0
BBX 16 16 0 -2
BITMAP 
0000
0000
0000
0000
7FFF
7F5D
7F7F
777F
7F7F
7F5D
7FFF
0000
0000
0000
0000
0000
ENDCHAR
STARTCHAR U+1F03D
ENCODING 127037
SWIDTH 1000 0
DWIDTH 16 0
BBX 16 16 0 -2
BITMAP 
0000
0000
0000
0000
7FFF
7F5D
7F7F
7777
7F7F
7F5D
7FFF
0000
0000
0000
0000
0000
ENDCHAR
STARTCHAR U+1F03E
ENCODING 127038
SWIDTH 1000 0
DWIDTH 16 0
BBX 16 16 0 -2
BITMAP 
0000
0000
0000
0000
7FFF
7F55
7F7F
777F
7F7F
7F55
7FFF
0000
0000
0000
0000
0000
ENDCHAR
STARTCHAR U+1F03F
ENCODING 127039
SWIDTH 1000 0
DWIDTH 16 0
BBX 16 16 0 -2
BITMAP 
0000
0000
0000
0000
7FFF
5F7F
7F7F
7F7F
7F7F
7D7F
7FFF
0000
0000
0000
0000
0000
ENDCHAR
STARTCHAR U+1F040
ENCODING 127040
SWIDTH 1000 0
DWIDTH 16 0
BBX 16 16 0 -2
BITMAP 
0000
0000
0000
0000
3FFF
2FBF
3FBF
3FB7
3FBF
3EBF
3FFF
0000
0000
0000
0000
0000
ENDCHAR
STARTCHAR U+1F041
ENCODING 127041
SWIDTH 1000 0
DWIDTH 16 0
BBX 16 16 0 -2
BITMAP 
0000
0000
0000
0000
7FFF
5F5F
7F7F
7F7F
7F7F
7D7D
7FFF
0000
0000
0000
0000
0000
ENDCHAR
STARTCHAR U+1F042
ENCODING 127042
SWIDTH 1000 0
DWIDTH 16 0
BBX 16 16 0 -2
BITMAP 
0000
0000
0000
0000
7FFF
5F5F
7F7F
7F77
7F7F
7D7D
7FFF
0000
0000
0000
0000
0000
ENDCHAR
STARTCHAR U+1F043
ENCODING 127043
SWIDTH 1000 0
DWIDTH 16 0
BBX 16 16 0 -2
BITMAP 
0000
0000
0000
0000
7FFF
5F5D
7F7F
7F7F
7F7F
7D5D
7FFF
0000
0000
0000
0000
0000
ENDCHAR
STARTCHAR U+1F044
ENCODING 127044
SWIDTH 1000 0
DWIDTH 16 0
BBX 16 16 0 -2
BITMAP 
0000
0000
0000
0000
7FFF
5F5D
7F7F
7F77
7F7F
7D5D
7FFF
0000
0000
0000
0000
0000
ENDCHAR
STARTCHAR U+1F045
ENCODING 127045
SWIDTH 1000 0
DWIDTH 16 0
BBX 16 16 0 -2
BITMAP 
0000
0000
0000
0000
7FFF
5F55
7F7F
7F7F
7F7F
7D55
7FFF
0000
0000
0000
0000
0000
ENDCHAR
STARTCHAR U+1F046
ENCODING 127046
SWIDTH 1000 0
DWIDTH 16 0
BBX 16 16 0 -2
BITMAP 
0000
0000
0000
0000
7FFF
5F7F
7F7F
777F
7F7F
7D7F
7FFF
0000
0000
0000
0000
0000
ENDCHAR
STARTCHAR U+1F047
ENCODING 127047
SWIDTH 1000 0
DWIDTH 16 0
BBX 16 16 0 -2
BITMAP 
0000
0000
0000
0000
7FFF
5F7F
7F7F
7777
7F7F
7D7F
7FFF
0000
0000
0000
0000
0000
ENDCHAR
STARTCHAR U+1F048
ENCODING 127048
SWIDTH 1000 0
DWIDTH 16 0
BBX 16 16 0 -2
BITMAP 
0000
0000
0000
0000
7FFF
5F5F
7F7F
777F
7F7F
7D7D
7FFF
0000
0000
0000
0000
0000
ENDCHAR
STARTCHAR U+1F049
ENCODING 127049
SWIDTH 1000 0
DWIDTH 16 0
BBX 16 16 0 -2
BITMAP 
0000
0000
0000
0000
7FFF
5F5F
7F7F
7777
7F7F
7D7D
7FFF
0000
0000
0000
0000
0000
ENDCHAR
STARTCHAR U+1F04A
ENCODING 127050
SWIDTH 1000 0
DWIDTH 16 0
BBX 16 16 0 -2
BITMAP 
0000
0000
0000
0000
7FFF
5F5D
7F7F
777F
7F7F
7D5D
7FFF
0000
0000
0000
0000
0000
ENDCHAR
STARTCHAR U+1F04B
ENCODING 127051
SWIDTH 1000 0
DWIDTH 16 0
BBX 16 16 0 -2
BITMAP 
0000
0000
0000
0000
7FFF
5F5D
7F7F
7777
7F7F
7D5D
7FFF
0000
0000
0000
0000
0000
ENDCHAR
STARTCHAR U+1F04C
ENCODING 127052
SWIDTH 1000 0
DWIDTH 16 0
BBX 16 16 0 -2
BITMAP 
0000
0000
0000
0000
7FFF
5F55
7F7F
777F
7F7F
7D55
7FFF
0000
0000
0000
0000
0000
ENDCHAR
STARTCHAR U+1F04D
ENCODING 127053
SWIDTH 1000 0
DWIDTH 16 0
BBX 16 16 0 -2
BITMAP 
0000
0000
0000
0000
7FFF
5D7F
7F7F
7F7F
7F7F
5D7F
7FFF
0000
0000
0000
0000
0000
ENDCHAR
STARTCHAR U+1F04E
ENCODING 127054
SWIDTH 1000 0
DWIDTH 16 0
BBX 16 16 0 -2
BITMAP 
0000
0000
0000
0000
7FFF
5D7F
7F7F
7F77
7F7F
5D7F
7FFF
0000
0000
0000
0000
0000
ENDCHAR
STARTCHAR U+1F04F
ENCODING 127055
SWIDTH 1000 0
DWIDTH 16 0
BBX 16 16 0 -2
BITMAP 
0000
0000
0000
0000
7FFF
5D5F
7F7F
7F7F
7F7F
5D7D
7FFF
0000
0000
0000
0000
0000
ENDCHAR
STARTCHAR U+1F050
ENCODING 127056
SWIDTH 1000 0
DWIDTH 16 0
BBX 16 16 0 -2
BITMAP 
0000
0000
0000
0000
7FFF
5D5F
7F7F
7F77
7F7F
5D7D
7FFF
0000
0000
0000
0000
0000
ENDCHAR
STARTCHAR U+1F051
ENCODING 127057
SWIDTH 1000 0
DWIDTH 16 0
BBX 16 16 0 -2
BITMAP 
0000
0000
0000
0000
7FFF
5D5D
7F7F
7F7F
7F7F
5D5D
7FFF
0000
0000
0000
0000
0000
ENDCHAR
STARTCHAR U+1F052
ENCODING 127058
SWIDTH 1000 0
DWIDTH 16 0
BBX 16 16 0 -2
BITMAP 
0000
0000
0000
0000
7FFF
5D5D
7F7F
7F77
7F7F
5D5D
7FFF
0000
0000
0000
0000
0000
ENDCHAR
STARTCHAR U+1F053
ENCODING 127059
SWIDTH 1000 0
DWIDTH 16 0
BBX 16 16 0 -2
BITMAP 
0000
0000
0000
0000
7FFF
5D55
7F7F
7F7F
7F7F
5D55
7FFF
0000
0000
0000
0000
0000
ENDCHAR
STARTCHAR U+1F054
ENCODING 127060
SWIDTH 1000 0
DWIDTH 16 0
BBX 16 16 0 -2
BITMAP 
0000
0000
0000
0000
7FFF
5D7F
7F7F
777F
7F7F
5D7F
7FFF
0000
0000
0000
0000
0000
ENDCHAR
STARTCHAR U+1F055
ENCODING 127061
SWIDTH 1000 0
DWIDTH 16 0
BBX 16 16 0 -2
BITMAP 
0000
0000
0000
0000
7FFF
5D7F
7F7F
7777
7F7F
5D7F
7FFF
0000
0000
0000
0000
0000
ENDCHAR
STARTCHAR U+1F056
ENCODING 127062
SWIDTH 1000 0
DWIDTH 16 0
BBX 16 16 0 -2
BITMAP 
0000
0000
0000
0000
7FFF
5D5F
7F7F
777F
7F7F
5D7D
7FFF
0000
0000
0000
0000
0000
ENDCHAR
STARTCHAR U+1F057
ENCODING 127063
SWIDTH 1000 0
DWIDTH 16 0
BBX 16 16 0 -2
BITMAP 
0000
0000
0000
0000
7FFF
5D5F
7F7F
7777
7F7F
5D7D
7FFF
0000
0000
0000
0000
0000
ENDCHAR
STARTCHAR U+1F058
ENCODING 127064
SWIDTH 1000 0
DWIDTH 16 0
BBX 16 16 0 -2
BITMAP 
0000
0000
0000
0000
7FFF
5D5D
7F7F
777F
7F7F
5D5D
7FFF
0000
0000
0000
0000
0000
ENDCHAR
STARTCHAR U+1F059
ENCODING 127065
SWIDTH 1000 0
DWIDTH 16 0
BBX 16 16 0 -2
BITMAP 
0000
0000
0000
0000
7FFF
5D5D
7F7F
7777
7F7F
5D5D
7FFF
0000
0000
0000
0000
0000
ENDCHAR
STARTCHAR U+1F05A
ENCODING 127066
SWIDTH 1000 0
DWIDTH 16 0
BBX 16 16 0 -2
BITMAP 
0000
0000
0000
0000
7FFF
5D55
7F7F
777F
7F7F
5D55
7FFF
0000
0000
0000
0000
0000
ENDCHAR
STARTCHAR U+1F05B
ENCODING 127067
SWIDTH 1000 0
DWIDTH 16 0
BBX 16 16 0 -2
BITMAP 
0000
0000
0000
0000
7FFF
557F
7F7F
7F7F
7F7F
557F
7FFF
0000
0000
0000
0000
0000
ENDCHAR
STARTCHAR U+1F05C
ENCODING 127068
SWIDTH 1000 0
DWIDTH 16 0
BBX 16 16 0 -2
BITMAP 
0000
0000
0000
0000
FFFF
AB7F
FF7F
FF77
FF7F
AB7F
FFFF
0000
0000
0000
0000
0000
ENDCHAR
STARTCHAR U+1F05D
ENCODING 127069
SWIDTH 1000 0
DWIDTH 16 0
BBX 16 16 0 -2
BITMAP 
0000
0000
0000
0000
7FFF
555F
7F7F
7F7F
7F7F
557D
7FFF
0000
0000
0000
0000
0000
ENDCHAR
STARTCHAR U+1F05E
ENCODING 127070
SWIDTH 1000 0
DWIDTH 16 0
BBX 16 16 0 -2
BITMAP 
0000
0000
0000
0000
7FFF
555F
7F7F
7F77
7F7F
557D
7FFF
0000
0000
0000
0000
0000
ENDCHAR
STARTCHAR U+1F05F
ENCODING 127071
SWIDTH 1000 0
DWIDTH 16 0
BBX 16 16 0 -2
BITMAP 
0000
0000
0000
0000
7FFF
555D
7F7F
7F7F
7F7F
555D
7FFF
0000
0000
0000
0000
0000
ENDCHAR
STARTCHAR U+1F060
ENCODING 127072
SWIDTH 1000 0
DWIDTH 16 0
BBX 16 16 0 -2
BITMAP 
0000
0000
0000
0000
7FFF
555D
7F7F
7F77
7F7F
555D
7FFF
0000
0000
0000
0000
0000
ENDCHAR
STARTCHAR U+1F061
ENCODING 127073
SWIDTH 1000 0
DWIDTH 16 0
BBX 16 16 0 -2
BITMAP 
0000
0000
0000
0000
7FFF
5555
7F7F
7F7F
7F7F
5555
7FFF
0000
0000
0000
0000
0000
ENDCHAR
STARTCHAR U+1F062
ENCODING 127074
SWIDTH 1000 0
DWIDTH 16 0
BBX 16 16 0 -2
BITMAP 
07F0
0550
06B0
0550
06B0
0550
06B0
0550
06B0
0550
06B0
0550
06B0
0550
07F0
0000
ENDCHAR
STARTCHAR U+1F063
ENCODING 127075
SWIDTH 1000 0
DWIDTH 16 0
BBX 16 16 0 -2
BITMAP 
07F0
07F0
07F0
07F0
07F0
07F0
07F0
0410
07F0
07F0
07F0
07F0
07F0
07F0
07F0
0000
ENDCHAR
STARTCHAR U+1F064
ENCODING 127076
SWIDTH 1000 0
DWIDTH 16 0
BBX 16 16 0 -2
BITMAP 
07F0
07F0
07F0
07F0
07F0
07F0
07F0
0410
07F0
07F0
07F0
0770
07F0
07F0
07F0
0000
ENDCHAR
STARTCHAR U+1F065
ENCODING 127077
SWIDTH 1000 0
DWIDTH 16 0
BBX 16 16 0 -2
BITMAP 
07F0
07F0
07F0
07F0
07F0
07F0
07F0
0410
07F0
07D0
07F0
07F0
07F0
05F0
07F0
0000
ENDCHAR
STARTCHAR U+1F066
ENCODING 127078
SWIDTH 1000 0
DWIDTH 16 0
BBX 16 16 0 -2
BITMAP 
07F0
07F0
07F0
07F0
07F0
07F0
07F0
0410
07F0
07D0
07F0
0770
07F0
05F0
07F0
0000
ENDCHAR
STARTCHAR U+1F067
ENCODING 127079
SWIDTH 1000 0
DWIDTH 16 0
BBX 16 16 0 -2
BITMAP 
07F0
07F0
07F0
07F0
07F0
07F0
07F0
0410
07F0
05D0
07F0
07F0
07F0
05D0
07F0
0000
ENDCHAR
STARTCHAR U+1F068
ENCODING 127080
SWIDTH 1000 0
DWIDTH 16 0
BBX 16 16 0 -2
BITMAP 
07F0
07F0
07F0
07F0
07F0
07F0
07F0
0410
07F0
05D0
07F0
0770
07F0
05D0
07F0
0000
ENDCHAR
STARTCHAR U+1F069
ENCODING 127081
SWIDTH 1000 0
DWIDTH 16 0
BBX 16 16 0 -2
BITMAP 
07F0
07F0
07F0
07F0
07F0
07F0
07F0
0410
07F0
05D0
07F0
05D0
07F0
05D0
07F0
0000
ENDCHAR
STARTCHAR U+1F06A
ENCODING 127082
SWIDTH 1000 0
DWIDTH 16 0
BBX 16 16 0 -2
BITMAP 
07F0
07F0
07F0
0770
07F0
07F0
07F0
0410
07F0
07F0
07F0
07F0
07F0
07F0
07F0
0000
ENDCHAR
STARTCHAR U+1F06B
ENCODING 127083
SWIDTH 1000 0
DWIDTH 16 0
BBX 16 16 0 -2
BITMAP 
07F0
07F0
07F0
0770
07F0
07F0
07F0
0410
07F0
07F0
07F0
0770
07F0
07F0
07F0
0000
ENDCHAR
STARTCHAR U+1F06C
ENCODING 127084
SWIDTH 1000 0
DWIDTH 16 0
BBX 16 16 0 -2
BITMAP 
07F0
07F0
07F0
0770
07F0
07F0
07F0
0410
07F0
07D0
07F0
07F0
07F0
05F0
07F0
0000
ENDCHAR
STARTCHAR U+1F06D
ENCODING 127085
SWIDTH 1000 0
DWIDTH 16 0
BBX 16 16 0 -2
BITMAP 
07F0
07F0
07F0
0770
07F0
07F0
07F0
0410
07F0
07D0
07F0
0770
07F0
05F0
07F0
0000
ENDCHAR
STARTCHAR U+1F06E
ENCODING 127086
SWIDTH 1000 0
DWIDTH 16 0
BBX 16 16 0 -2
BITMAP 
07F0
07F0
07F0
0770
07F0
07F0
07F0
0410
07F0
05D0
07F0
07F0
07F0
05D0
07F0
0000
ENDCHAR
STARTCHAR U+1F06F
ENCODING 127087
SWIDTH 1000 0
DWIDTH 16 0
BBX 16 16 0 -2
BITMAP 
07F0
07F0
07F0
0770
07F0
07F0
07F0
0410
07F0
05D0
07F0
0770
07F0
05D0
07F0
0000
ENDCHAR
STARTCHAR U+1F070
ENCODING 127088
SWIDTH 1000 0
DWIDTH 16 0
BBX 16 16 0 -2
BITMAP 
07F0
07F0
07F0
0770
07F0
07F0
07F0
0410
07F0
05D0
07F0
05D0
07F0
05D0
07F0
0000
ENDCHAR
STARTCHAR U+1F071
ENCODING 127089
SWIDTH 1000 0
DWIDTH 16 0
BBX 16 16 0 -2
BITMAP 
07F0
07D0
07F0
07F0
07F0
05F0
07F0
0410
07F0
07F0
07F0
07F0
07F0
07F0
07F0
0000
ENDCHAR
STARTCHAR U+1F072
ENCODING 127090
SWIDTH 1000 0
DWIDTH 16 0
BBX 16 16 0 -2
BITMAP 
07F0
07D0
07F0
07F0
07F0
05F0
07F0
0410
07F0
07F0
07F0
0770
07F0
07F0
07F0
0000
ENDCHAR
STARTCHAR U+1F073
ENCODING 127091
SWIDTH 1000 0
DWIDTH 16 0
BBX 16 16 0 -2
BITMAP 
07F0
07D0
07F0
07F0
07F0
05F0
07F0
0410
07F0
07D0
07F0
07F0
07F0
05F0
07F0
0000
ENDCHAR
STARTCHAR U+1F074
ENCODING 127092
SWIDTH 1000 0
DWIDTH 16 0
BBX 16 16 0 -2
BITMAP 
07F0
07D0
07F0
07F0
07F0
05F0
07F0
0410
07F0
07D0
07F0
0770
07F0
05F0
07F0
0000
ENDCHAR
STARTCHAR U+1F075
ENCODING 127093
SWIDTH 1000 0
DWIDTH 16 0
BBX 16 16 0 -2
BITMAP 
07F0
07D0
07F0
07F0
07F0
05F0
07F0
0410
07F0
05D0
07F0
07F0
07F0
05D0
07F0
0000
ENDCHAR
STARTCHAR U+1F076
ENCODING 127094
SWIDTH 1000 0
DWIDTH 16 0
BBX 16 16 0 -2
BITMAP 
07F0
07D0
07F0
07F0
07F0
05F0
07F0
0410
07F0
05D0
07F0
0770
07F0
05D0
07F0
0000
ENDCHAR
STARTCHAR U+1F077
ENCODING 127095
SWIDTH 1000 0
DWIDTH 16 0
BBX 16 16 0 -2
BITMAP 
07F0
07D0
07F0
07F0
07F0
05F0
07F0
0410
07F0
05D0
07F0
05D0
07F0
05D0
07F0
0000
ENDCHAR
STARTCHAR U+1F078
ENCODING 127096
SWIDTH 1000 0
DWIDTH 16 0
BBX 16 16 0 -2
BITMAP 
07F0
07D0
07F0
0770
07F0
05F0
07F0
0410
07F0
07F0
07F0
07F0
07F0
07F0
07F0
0000
ENDCHAR
STARTCHAR U+1F079
ENCODING 127097
SWIDTH 1000 0
DWIDTH 16 0
BBX 16 16 0 -2
BITMAP 
07F0
07D0
07F0
0770
07F0
05F0
07F0
0410
07F0
07F0
07F0
0770
07F0
07F0
07F0
0000
ENDCHAR
STARTCHAR U+1F07A
ENCODING 127098
SWIDTH 1000 0
DWIDTH 16 0
BBX 16 16 0 -2
BITMAP 
07F0
07D0
07F0
0770
07F0
05F0
07F0
0410
07F0
07D0
07F0
07F0
07F0
05F0
07F0
0000
ENDCHAR
STARTCHAR U+1F07B
ENCODING 127099
SWIDTH 1000 0
DWIDTH 16 0
BBX 16 16 0 -2
BITMAP 
07F0
07D0
07F0
0770
07F0
05F0
07F0
0410
07F0
07D0
07F0
0770
07F0
05F0
07F0
0000
ENDCHAR
STARTCHAR U+1F07C
ENCODING 127100
SWIDTH 1000 0
DWIDTH 16 0
BBX 16 16 0 -2
BITMAP 
07F0
07D0
07F0
0770
07F0
05F0
07F0
0410
07F0
05D0
07F0
07F0
07F0
05D0
07F0
0000
ENDCHAR
STARTCHAR U+1F07D
ENCODING 127101
SWIDTH 1000 0
DWIDTH 16 0
BBX 16 16 0 -2
BITMAP 
07F0
07D0
07F0
0770
07F0
05F0
07F0
0410
07F0
05D0
07F0
0770
07F0
05D0
07F0
0000
ENDCHAR
STARTCHAR U+1F07E
ENCODING 127102
SWIDTH 1000 0
DWIDTH 16 0
BBX 16 16 0 -2
BITMAP 
07F0
07D0
07F0
0770
07F0
05F0
07F0
0410
07F0
05D0
07F0
05D0
07F0
05D0
07F0
0000
ENDCHAR
STARTCHAR U+1F07F
ENCODING 127103
SWIDTH 1000 0
DWIDTH 16 0
BBX 16 16 0 -2
BITMAP 
07F0
05D0
07F0
07F0
07F0
05D0
07F0
0410
07F0
07F0
07F0
07F0
07F0
07F0
07F0
0000
ENDCHAR
STARTCHAR U+1F080
ENCODING 127104
SWIDTH 1000 0
DWIDTH 16 0
BBX 16 16 0 -2
BITMAP 
07F0
05D0
07F0
07F0
07F0
05D0
07F0
0410
07F0
07F0
07F0
0770
07F0
07F0
07F0
0000
ENDCHAR
STARTCHAR U+1F081
ENCODING 127105
SWIDTH 1000 0
DWIDTH 16 0
BBX 16 16 0 -2
BITMAP 
07F0
05D0
07F0
07F0
07F0
05D0
07F0
0410
07F0
07D0
07F0
07F0
07F0
05F0
07F0
0000
ENDCHAR
STARTCHAR U+1F082
ENCODING 127106
SWIDTH 1000 0
DWIDTH 16 0
BBX 16 16 0 -2
BITMAP 
07F0
05D0
07F0
07F0
07F0
05D0
07F0
0410
07F0
07D0
07F0
0770
07F0
05F0
07F0
0000
ENDCHAR
STARTCHAR U+1F083
ENCODING 127107
SWIDTH 1000 0
DWIDTH 16 0
BBX 16 16 0 -2
BITMAP 
07F0
05D0
07F0
07F0
07F0
05D0
07F0
0410
07F0
05D0
07F0
07F0
07F0
05D0
07F0
0000
ENDCHAR
STARTCHAR U+1F084
ENCODING 127108
SWIDTH 1000 0
DWIDTH 16 0
BBX 16 16 0 -2
BITMAP 
07F0
05D0
07F0
07F0
07F0
05D0
07F0
0410
07F0
05D0
07F0
0770
07F0
05D0
07F0
0000
ENDCHAR
STARTCHAR U+1F085
ENCODING 127109
SWIDTH 1000 0
DWIDTH 16 0
BBX 16 16 0 -2
BITMAP 
07F0
05D0
07F0
07F0
07F0
05D0
07F0
0410
07F0
05D0
07F0
05D0
07F0
05D0
07F0
0000
ENDCHAR
STARTCHAR U+1F086
ENCODING 127110
SWIDTH 1000 0
DWIDTH 16 0
BBX 16 16 0 -2
BITMAP 
07F0
05D0
07F0
0770
07F0
05D0
07F0
0410
07F0
07F0
07F0
07F0
07F0
07F0
07F0
0000
ENDCHAR
STARTCHAR U+1F087
ENCODING 127111
SWIDTH 1000 0
DWIDTH 16 0
BBX 16 16 0 -2
BITMAP 
07F0
05D0
07F0
0770
07F0
05D0
07F0
0410
07F0
07F0
07F0
0770
07F0
07F0
07F0
0000
ENDCHAR
STARTCHAR U+1F088
ENCODING 127112
SWIDTH 1000 0
DWIDTH 16 0
BBX 16 16 0 -2
BITMAP 
07F0
05D0
07F0
0770
07F0
05D0
07F0
0410
07F0
07D0
07F0
07F0
07F0
05F0
07F0
0000
ENDCHAR
STARTCHAR U+1F089
ENCODING 127113
SWIDTH 1000 0
DWIDTH 16 0
BBX 16 16 0 -2
BITMAP 
07F0
05D0
07F0
0770
07F0
05D0
07F0
0410
07F0
07D0
07F0
0770
07F0
05F0
07F0
0000
ENDCHAR
STARTCHAR U+1F08A
ENCODING 127114
SWIDTH 1000 0
DWIDTH 16 0
BBX 16 16 0 -2
BITMAP 
07F0
05D0
07F0
0770
07F0
05D0
07F0
0410
07F0
05D0
07F0
07F0
07F0
05D0
07F0
0000
ENDCHAR
STARTCHAR U+1F08B
ENCODING 127115
SWIDTH 1000 0
DWIDTH 16 0
BBX 16 16 0 -2
BITMAP 
07F0
05D0
07F0
0770
07F0
05D0
07F0
0410
07F0
05D0
07F0
0770
07F0
05D0
07F0
0000
ENDCHAR
STARTCHAR U+1F08C
ENCODING 127116
SWIDTH 1000 0
DWIDTH 16 0
BBX 16 16 0 -2
BITMAP 
07F0
05D0
07F0
0770
07F0
05D0
07F0
0410
07F0
05D0
07F0
05D0
07F0
05D0
07F0
0000
ENDCHAR
STARTCHAR U+1F08D
ENCODING 127117
SWIDTH 1000 0
DWIDTH 16 0
BBX 16 16 0 -2
BITMAP 
07F0
05D0
07F0
05D0
07F0
05D0
07F0
0410
07F0
07F0
07F0
07F0
07F0
07F0
07F0
0000
ENDCHAR
STARTCHAR U+1F08E
ENCODING 127118
SWIDTH 1000 0
DWIDTH 16 0
BBX 16 16 0 -2
BITMAP 
07F0
05D0
07F0
05D0
07F0
05D0
07F0
0410
07F0
07F0
07F0
0770
07F0
07F0
07F0
0000
ENDCHAR
STARTCHAR U+1F08F
ENCODING 127119
SWIDTH 1000 0
DWIDTH 16 0
BBX 16 16 0 -2
BITMAP 
07F0
05D0
07F0
05D0
07F0
05D0
07F0
0410
07F0
07D0
07F0
07F0
07F0
05F0
07F0
0000
ENDCHAR
STARTCHAR U+1F090
ENCODING 127120
SWIDTH 1000 0
DWIDTH 16 0
BBX 16 16 0 -2
BITMAP 
07F0
05D0
07F0
05D0
07F0
05D0
07F0
0410
07F0
07D0
07F0
0770
07F0
05F0
07F0
0000
ENDCHAR
STARTCHAR U+1F091
ENCODING 127121
SWIDTH 1000 0
DWIDTH 16 0
BBX 16 16 0 -2
BITMAP 
07F0
05D0
07F0
05D0
07F0
05D0
07F0
0410
07F0
05D0
07F0
07F0
07F0
05D0
07F0
0000
ENDCHAR
STARTCHAR U+1F092
ENCODING 127122
SWIDTH 1000 0
DWIDTH 16 0
BBX 16 16 0 -2
BITMAP 
07F0
05D0
07F0
05D0
07F0
05D0
07F0
0410
07F0
05D0
07F0
0770
07F0
05D0
07F0
0000
ENDCHAR
STARTCHAR U+1F093
ENCODING 127123
SWIDTH 1000 0
DWIDTH 16 0
BBX 16 16 0 -2
BITMAP 
07F0
05D0
07F0
05D0
07F0
05D0
07F0
0410
07F0
05D0
07F0
05D0
07F0
05D0
07F0
0000
ENDCHAR
STARTCHAR U+1F0A0
ENCODING 127136
SWIDTH 1000 0
DWIDTH 16 0
BBX 16 16 0 -2
BITMAP 
1FF0
2AA8
3558
2AA8
3558
2AA8
3558
2AA8
3558
2AA8
3558
2AA8
3558
2AA8
3558
1FF0
ENDCHAR
STARTCHAR U+1F0A1
ENCODING 127137
SWIDTH 1000 0
DWIDTH 16 0
BBX 16 16 0 -2
BITMAP 
1FF0
2008
2308
2488
2788
2488
2488
2008
2108
2388
27C8
27C8
2108
2388
2008
1FF0
ENDCHAR
STARTCHAR U+1F0A2
ENCODING 127138
SWIDTH 1000 0
DWIDTH 16 0
BBX 16 16 0 -2
BITMAP 
1FF0
2008
2708
2088
2308
2408
2788
2008
2108
2388
27C8
27C8
2108
2388
2008
1FF0
ENDCHAR
STARTCHAR U+1F0A3
ENCODING 127139
SWIDTH 1000 0
DWIDTH 16 0
BBX 16 16 0 -2
BITMAP 
1FF0
2008
2708
2088
2308
2088
2708
2008
2108
2388
27C8
27C8
2108
2388
2008
1FF0
ENDCHAR
STARTCHAR U+1F0A4
ENCODING 127140
SWIDTH 1000 0
DWIDTH 16 0
BBX 16 16 0 -2
BITMAP 
1FF0
2008
2488
2488
2788
2088
2088
2008
2108
2388
27C8
27C8
2108
2388
2008
1FF0
ENDCHAR
STARTCHAR U+1F0A5
ENCODING 127141
SWIDTH 1000 0
DWIDTH 16 0
BBX 16 16 0 -2
BITMAP 
1FF0
2008
2788
2408
2708
2088
2708
2008
2108
2388
27C8
27C8
2108
2388
2008
1FF0
ENDCHAR
STARTCHAR U+1F0A6
ENCODING 127142
SWIDTH 1000 0
DWIDTH 16 0
BBX 16 16 0 -2
BITMAP 
1FF0
2008
2388
2408
2708
2488
2308
2008
2108
2388
27C8
27C8
2108
2388
2008
1FF0
ENDCHAR
STARTCHAR U+1F0A7
ENCODING 127143
SWIDTH 1000 0
DWIDTH 16 0
BBX 16 16 0 -2
BITMAP 
1FF0
2008
2788
2088
2108
2208
2208
2008
2108
2388
27C8
27C8
2108
2388
2008
1FF0
ENDCHAR
STARTCHAR U+1F0A8
ENCODING 127144
SWIDTH 1000 0
DWIDTH 16 0
BBX 16 16 0 -2
BITMAP 
1FF0
2008
2308
2488
2308
2488
2308
2008
2108
2388
27C8
27C8
2108
2388
2008
1FF0
ENDCHAR
STARTCHAR U+1F0A9
ENCODING 127145
SWIDTH 1000 0
DWIDTH 16 0
BBX 16 16 0 -2
BITMAP 
1FF0
2008
2308
2488
2388
2088
2708
2008
2108
2388
27C8
27C8
2108
2388
2008
1FF0
ENDCHAR
STARTCHAR U+1F0AA
ENCODING 127146
SWIDTH 1000 0
DWIDTH 16 0
BBX 16 16 0 -2
BITMAP 
1FF0
2008
2448
2CA8
24A8
24A8
2E48
2008
2108
2388
27C8
27C8
2108
2388
2008
1FF0
ENDCHAR
STARTCHAR U+1F0AB
ENCODING 127147
SWIDTH 1000 0
DWIDTH 16 0
BBX 16 16 0 -2
BITMAP 
1FF0
2008
27C8
2108
2108
2108
2608
2008
2108
2388
27C8
27C8
2108
2388
2008
1FF0
ENDCHAR
STARTCHAR U+1F0AC
ENCODING 127148
SWIDTH 1000 0
DWIDTH 16 0
BBX 16 16 0 -2
BITMAP 
1FF0
2008
2388
2408
2408
2408
2388
2008
2108
2388
27C8
27C8
2108
2388
2008
1FF0
ENDCHAR
STARTCHAR U+1F0AD
ENCODING 127149
SWIDTH 1000 0
DWIDTH 16 0
BBX 16 16 0 -2
BITMAP 
1FF0
2008
2388
2448
2548
2488
2348
2008
2108
2388
27C8
27C8
2108
2388
2008
1FF0
ENDCHAR
STARTCHAR U+1F0AE
ENCODING 127150
SWIDTH 1000 0
DWIDTH 16 0
BBX 16 16 0 -2
BITMAP 
1FF0
2008
2488
2508
2608
2508
2488
2008
2108
2388
27C8
27C8
2108
2388
2008
1FF0
ENDCHAR
STARTCHAR U+1F0B1
ENCODING 127153
SWIDTH 1000 0
DWIDTH 16 0
BBX 16 16 0 -2
BITMAP 
1FF0
2008
2308
2488
2788
2488
2488
2008
26C8
2928
2828
2448
2288
2108
2008
1FF0
ENDCHAR
STARTCHAR U+1F0B2
ENCODING 127154
SWIDTH 1000 0
DWIDTH 16 0
BBX 16 16 0 -2
BITMAP 
1FF0
2008
2708
2088
2308
2408
2788
2008
26C8
2928
2828
2448
2288
2108
2008
1FF0
ENDCHAR
STARTCHAR U+1F0B3
ENCODING 127155
SWIDTH 1000 0
DWIDTH 16 0
BBX 16 16 0 -2
BITMAP 
1FF0
2008
2708
2088
2308
2088
2708
2008
26C8
2928
2828
2448
2288
2108
2008
1FF0
ENDCHAR
STARTCHAR U+1F0B4
ENCODING 127156
SWIDTH 1000 0
DWIDTH 16 0
BBX 16 16 0 -2
BITMAP 
1FF0
2008
2488
2488
2788
2088
2088
2008
26C8
2928
2828
2448
2288
2108
2008
1FF0
ENDCHAR
STARTCHAR U+1F0B5
ENCODING 127157
SWIDTH 1000 0
DWIDTH 16 0
BBX 16 16 0 -2
BITMAP 
1FF0
2008
2788
2408
2708
2088
2708
2008
26C8
2928
2828
2448
2288
2108
2008
1FF0
ENDCHAR
STARTCHAR U+1F0B6
ENCODING 127158
SWIDTH 1000 0
DWIDTH 16 0
BBX 16 16 0 -2
BITMAP 
1FF0
2008
2388
2408
2708
2488
2308
2008
26C8
2928
2828
2448
2288
2108
2008
1FF0
ENDCHAR
STARTCHAR U+1F0B7
ENCODING 127159
SWIDTH 1000 0
DWIDTH 16 0
BBX 16 16 0 -2
BITMAP 
1FF0
2008
2788
2088
2108
2208
2208
2008
26C8
2928
2828
2448
2288
2108
2008
1FF0
ENDCHAR
STARTCHAR U+1F0B8
ENCODING 127160
SWIDTH 1000 0
DWIDTH 16 0
BBX 16 16 0 -2
BITMAP 
1FF0
2008
2308
2488
2308
2488
2308
2008
26C8
2928
2828
2448
2288
2108
2008
1FF0
ENDCHAR
STARTCHAR U+1F0B9
ENCODING 127161
SWIDTH 1000 0
DWIDTH 16 0
BBX 16 16 0 -2
BITMAP 
1FF0
2008
2308
2488
2388
2088
2708
2008
26C8
2928
2828
2448
2288
2108
2008
1FF0
ENDCHAR
STARTCHAR U+1F0BA
ENCODING 127162
SWIDTH 1000 0
DWIDTH 16 0
BBX 16 16 0 -2
BITMAP 
1FF0
2008
2448
2CA8
24A8
24A8
2E48
2008
26C8
2928
2828
2448
2288
2108
2008
1FF0
ENDCHAR
STARTCHAR U+1F0BB
ENCODING 127163
SWIDTH 1000 0
DWIDTH 16 0
BBX 16 16 0 -2
BITMAP 
1FF0
2008
27C8
2108
2108
2108
2608
2008
26C8
2928
2828
2448
2288
2108
2008
1FF0
ENDCHAR
STARTCHAR U+1F0BC
ENCODING 127164
SWIDTH 1000 0
DWIDTH 16 0
BBX 16 16 0 -2
BITMAP 
1FF0
2008
2388
2408
2408
2408
2388
2008
26C8
2928
2828
2448
2288
2108
2008
1FF0
ENDCHAR
STARTCHAR U+1F0BD
ENCODING 127165
SWIDTH 1000 0
DWIDTH 16 0
BBX 16 16 0 -2
BITMAP 
1FF0
2008
2388
2448
2548
2488
2348
2008
26C8
2928
2828
2448
2288
2108
2008
1FF0
ENDCHAR
STARTCHAR U+1F0BE
ENCODING 127166
SWIDTH 1000 0
DWIDTH 16 0
BBX 16 16 0 -2
BITMAP 
1FF0
2008
2488
2508
2608
2508
2488
2008
26C8
2928
2828
2448
2288
2108
2008
1FF0
ENDCHAR
STARTCHAR U+1F0BF
ENCODING 127167
SWIDTH 1000 0
DWIDTH 16 0
BBX 16 16 0 -2
BITMAP 
1FF0
2008
2AA8
2AA8
2FE8
2828
2EE8
2EA8
2EA8
29A8
2FA8
2AA8
2AA8
2AA8
2008
1FF0
ENDCHAR
STARTCHAR U+1F0C1
ENCODING 127169
SWIDTH 1000 0
DWIDTH 16 0
BBX 16 16 0 -2
BITMAP 
1FF0
2008
2308
2488
2788
2488
2488
2008
2108
2288
2448
2448
2288
2108
2008
1FF0
ENDCHAR
STARTCHAR U+1F0C2
ENCODING 127170
SWIDTH 1000 0
DWIDTH 16 0
BBX 16 16 0 -2
BITMAP 
1FF0
2008
2708
2088
2308
2408
2788
2008
2108
2288
2448
2448
2288
2108
2008
1FF0
ENDCHAR
STARTCHAR U+1F0C3
ENCODING 127171
SWIDTH 1000 0
DWIDTH 16 0
BBX 16 16 0 -2
BITMAP 
1FF0
2008
2708
2088
2308
2088
2708
2008
2108
2288
2448
2448
2288
2108
2008
1FF0
ENDCHAR
STARTCHAR U+1F0C4
ENCODING 127172
SWIDTH 1000 0
DWIDTH 16 0
BBX 16 16 0 -2
BITMAP 
1FF0
2008
2488
2488
2788
2088
2088
2008
2108
2288
2448
2448
2288
2108
2008
1FF0
ENDCHAR
STARTCHAR U+1F0C5
ENCODING 127173
SWIDTH 1000 0
DWIDTH 16 0
BBX 16 16 0 -2
BITMAP 
1FF0
2008
2788
2408
2708
2088
2708
2008
2108
2288
2448
2448
2288
2108
2008
1FF0
ENDCHAR
STARTCHAR U+1F0C6
ENCODING 127174
SWIDTH 1000 0
DWIDTH 16 0
BBX 16 16 0 -2
BITMAP 
1FF0
2008
2388
2408
2708
2488
2308
2008
2108
2288
2448
2448
2288
2108
2008
1FF0
ENDCHAR
STARTCHAR U+1F0C7
ENCODING 127175
SWIDTH 1000 0
DWIDTH 16 0
BBX 16 16 0 -2
BITMAP 
1FF0
2008
2788
2088
2108
2208
2208
2008
2108
2288
2448
2448
2288
2108
2008
1FF0
ENDCHAR
STARTCHAR U+1F0C8
ENCODING 127176
SWIDTH 1000 0
DWIDTH 16 0
BBX 16 16 0 -2
BITMAP 
1FF0
2008
2308
2488
2308
2488
2308
2008
2108
2288
2448
2448
2288
2108
2008
1FF0
ENDCHAR
STARTCHAR U+1F0C9
ENCODING 127177
SWIDTH 1000 0
DWIDTH 16 0
BBX 16 16 0 -2
BITMAP 
1FF0
2008
2308
2488
2388
2088
2708
2008
2108
2288
2448
2448
2288
2108
2008
1FF0
ENDCHAR
STARTCHAR U+1F0CA
ENCODING 127178
SWIDTH 1000 0
DWIDTH 16 0
BBX 16 16 0 -2
BITMAP 
1FF0
2008
2448
2CA8
24A8
24A8
2E48
2008
2108
2288
2448
2448
2288
2108
2008
1FF0
ENDCHAR
STARTCHAR U+1F0CB
ENCODING 127179
SWIDTH 1000 0
DWIDTH 16 0
BBX 16 16 0 -2
BITMAP 
1FF0
2008
27C8
2108
2108
2108
2608
2008
2108
2288
2448
2448
2288
2108
2008
1FF0
ENDCHAR
STARTCHAR U+1F0CC
ENCODING 127180
SWIDTH 1000 0
DWIDTH 16 0
BBX 16 16 0 -2
BITMAP 
1FF0
2008
2388
2408
2408
2408
2388
2008
2108
2288
2448
2448
2288
2108
2008
1FF0
ENDCHAR
STARTCHAR U+1F0CD
ENCODING 127181
SWIDTH 1000 0
DWIDTH 16 0
BBX 16 16 0 -2
BITMAP 
1FF0
2008
2388
2448
2548
2488
2348
2008
2108
2288
2448
2448
2288
2108
2008
1FF0
ENDCHAR
STARTCHAR U+1F0CE
ENCODING 127182
SWIDTH 1000 0
DWIDTH 16 0
BBX 16 16 0 -2
BITMAP 
1FF0
2008
2488
2508
2608
2508
2488
2008
2108
2288
2448
2448
2288
2108
2008
1FF0
ENDCHAR
STARTCHAR U+1F0CF
ENCODING 127183
SWIDTH 1000 0
DWIDTH 16 0
BBX 16 16 0 -2
BITMAP 
1FF0
2008
2008
2008
2008
27C8
2108
2108
2108
2608
2008
2008
2008
2008
2008
1FF0
ENDCHAR
STARTCHAR U+1F0D1
ENCODING 127185
SWIDTH 1000 0
DWIDTH 16 0
BBX 16 16 0 -2
BITMAP 
1FF0
2008
2308
2488
2788
2488
2488
2008
2388
2388
2108
2FE8
2D68
2108
2008
1FF0
ENDCHAR
STARTCHAR U+1F0D2
ENCODING 127186
SWIDTH 1000 0
DWIDTH 16 0
BBX 16 16 0 -2
BITMAP 
1FF0
2008
2708
2088
2308
2408
2788
2008
2388
2388
2108
2FE8
2D68
2108
2008
1FF0
ENDCHAR
STARTCHAR U+1F0D3
ENCODING 127187
SWIDTH 1000 0
DWIDTH 16 0
BBX 16 16 0 -2
BITMAP 
1FF0
2008
2708
2088
2308
2088
2708
2008
2388
2388
2108
2FE8
2D68
2108
2008
1FF0
ENDCHAR
STARTCHAR U+1F0D4
ENCODING 127188
SWIDTH 1000 0
DWIDTH 16 0
BBX 16 16 0 -2
BITMAP 
1FF0
2008
2488
2488
2788
2088
2088
2008
2388
2388
2108
2FE8
2D68
2108
2008
1FF0
ENDCHAR
STARTCHAR U+1F0D5
ENCODING 127189
SWIDTH 1000 0
DWIDTH 16 0
BBX 16 16 0 -2
BITMAP 
1FF0
2008
2788
2408
2708
2088
2708
2008
2388
2388
2108
2FE8
2D68
2108
2008
1FF0
ENDCHAR
STARTCHAR U+1F0D6
ENCODING 127190
SWIDTH 1000 0
DWIDTH 16 0
BBX 16 16 0 -2
BITMAP 
1FF0
2008
2388
2408
2708
2488
2308
2008
2388
2388
2108
2FE8
2D68
2108
2008
1FF0
ENDCHAR
STARTCHAR U+1F0D7
ENCODING 127191
SWIDTH 1000 0
DWIDTH 16 0
BBX 16 16 0 -2
BITMAP 
1FF0
2008
2788
2088
2108
2208
2208
2008
2388
2388
2108
2FE8
2D68
2108
2008
1FF0
ENDCHAR
STARTCHAR U+1F0D8
ENCODING 127192
SWIDTH 1000 0
DWIDTH 16 0
BBX 16 16 0 -2
BITMAP 
1FF0
2008
2308
2488
2308
2488
2308
2008
2388
2388
2108
2FE8
2D68
2108
2008
1FF0
ENDCHAR
STARTCHAR U+1F0D9
ENCODING 127193
SWIDTH 1000 0
DWIDTH 16 0
BBX 16 16 0 -2
BITMAP 
1FF0
2008
2308
2488
2388
2088
2708
2008
2388
2388
2108
2FE8
2D68
2108
2008
1FF0
ENDCHAR
STARTCHAR U+1F0DA
ENCODING 127194
SWIDTH 1000 0
DWIDTH 16 0
BBX 16 16 0 -2
BITMAP 
1FF0
2008
2448
2CA8
24A8
24A8
2E48
2008
2388
2388
2108
2FE8
2D68
2108
2008
1FF0
ENDCHAR
STARTCHAR U+1F0DB
ENCODING 127195
SWIDTH 1000 0
DWIDTH 16 0
BBX 16 16 0 -2
BITMAP 
1FF0
2008
27C8
2108
2108
2108
2608
2008
2388
2388
2108
2FE8
2D68
2108
2008
1FF0
ENDCHAR
STARTCHAR U+1F0DC
ENCODING 127196
SWIDTH 1000 0
DWIDTH 16 0
BBX 16 16 0 -2
BITMAP 
1FF0
2008
2388
2408
2408
2408
2388
2008
2388
2388
2108
2FE8
2D68
2108
2008
1FF0
ENDCHAR
STARTCHAR U+1F0DD
ENCODING 127197
SWIDTH 1000 0
DWIDTH 16 0
BBX 16 16 0 -2
BITMAP 
1FF0
2008
2388
2448
2548
2488
2348
2008
2388
2388
2108
2FE8
2D68
2108
2008
1FF0
ENDCHAR
STARTCHAR U+1F0DE
ENCODING 127198
SWIDTH 1000 0
DWIDTH 16 0
BBX 16 16 0 -2
BITMAP 
1FF0
2008
2488
2508
2608
2508
2488
2008
2388
2388
2108
2FE8
2D68
2108
2008
1FF0
ENDCHAR
STARTCHAR U+1F0DF
ENCODING 127199
SWIDTH 1000 0
DWIDTH 16 0
BBX 16 16 0 -2
BITMAP 
1FF0
2008
2FE8
2FE8
2FE8
2828
2EE8
2EE8
2EE8
29E8
2FE8
2FE8
2FE8
2FE8
2008
1FF0
ENDCHAR
STARTCHAR U+1F0E0
ENCODING 127200
SWIDTH 1000 0
DWIDTH 16 0
BBX 16 16 0 -2
BITMAP 
1FF0
2008
2AA8
2AA8
2448
2AA8
2AA8
2008
2008
2288
2288
2288
2288
2288
2008
1FF0
ENDCHAR
STARTCHAR U+1F0E1
ENCODING 127201
SWIDTH 1000 0
DWIDTH 16 0
BBX 16 16 0 -2
BITMAP 
1FF0
2008
2008
2008
2008
2108
2108
2108
2108
2108
2008
2008
2008
2008
2008
1FF0
ENDCHAR
STARTCHAR U+1F0E2
ENCODING 127202
SWIDTH 1000 0
DWIDTH 16 0
BBX 16 16 0 -2
BITMAP 
1FF0
2008
2008
2008
2008
2288
2288
2288
2288
2288
2008
2008
2008
2008
2008
1FF0
ENDCHAR
STARTCHAR U+1F0E3
ENCODING 127203
SWIDTH 1000 0
DWIDTH 16 0
BBX 16 16 0 -2
BITMAP 
1FF0
2008
2008
2008
2008
2548
2548
2548
2548
2548
2008
2008
2008
2008
2008
1FF0
ENDCHAR
STARTCHAR U+1F0E4
ENCODING 127204
SWIDTH 1000 0
DWIDTH 16 0
BBX 16 16 0 -2
BITMAP 
1FF0
2008
2008
2008
2008
2548
2548
2548
2548
2488
2008
2008
2008
2008
2008
1FF0
ENDCHAR
STARTCHAR U+1F0E5
ENCODING 127205
SWIDTH 1000 0
DWIDTH 16 0
BBX 16 16 0 -2
BITMAP 
1FF0
2008
2008
2008
2008
2288
2288
2288
2288
2108
2008
2008
2008
2008
2008
1FF0
ENDCHAR
STARTCHAR U+1F0E6
ENCODING 127206
SWIDTH 1000 0
DWIDTH 16 0
BBX 16 16 0 -2
BITMAP 
1FF0
2008
2008
2008
2008
2548
2548
2548
2548
2248
2008
2008
2008
2008
2008
1FF0
ENDCHAR
STARTCHAR U+1F0E7
ENCODING 127207
SWIDTH 1000 0
DWIDTH 16 0
BBX 16 16 0 -2
BITMAP 
1FF0
2008
2008
2008
2008
2AA8
2AA8
2AA8
2AA8
24A8
2008
2008
2008
2008
2008
1FF0
ENDCHAR
STARTCHAR U+1F0E8
ENCODING 127208
SWIDTH 1000 0
DWIDTH 16 0
BBX 16 16 0 -2
BITMAP 
1FF0
2008
2548
2548
2548
2548
2248
2008
2008
2288
2288
2288
2288
2288
2008
1FF0
ENDCHAR
STARTCHAR U+1F0E9
ENCODING 127209
SWIDTH 1000 0
DWIDTH 16 0
BBX 16 16 0 -2
BITMAP 
1FF0
2008
2008
2008
2008
2548
2548
2488
2548
2548
2008
2008
2008
2008
2008
1FF0
ENDCHAR
STARTCHAR U+1F0EA
ENCODING 127210
SWIDTH 1000 0
DWIDTH 16 0
BBX 16 16 0 -2
BITMAP 
1FF0
2008
2008
2008
2008
2288
2288
2108
2288
2288
2008
2008
2008
2008
2008
1FF0
ENDCHAR
STARTCHAR U+1F0EB
ENCODING 127211
SWIDTH 1000 0
DWIDTH 16 0
BBX 16 16 0 -2
BITMAP 
1FF0
2008
2008
2008
2008
2548
2548
2248
2548
2548
2008
2008
2008
2008
2008
1FF0
ENDCHAR
STARTCHAR U+1F0EC
ENCODING 127212
SWIDTH 1000 0
DWIDTH 16 0
BBX 16 16 0 -2
BITMAP 
1FF0
2008
2008
2008
2008
2AA8
2AA8
24A8
2AA8
2AA8
2008
2008
2008
2008
2008
1FF0
ENDCHAR
STARTCHAR U+1F0ED
ENCODING 127213
SWIDTH 1000 0
DWIDTH 16 0
BBX 16 16 0 -2
BITMAP 
1FF0
2008
2548
2548
2248
2548
2548
2008
2008
2288
2288
2288
2288
2288
2008
1FF0
ENDCHAR
STARTCHAR U+1F0EE
ENCODING 127214
SWIDTH 1000 0
DWIDTH 16 0
BBX 16 16 0 -2
BITMAP 
1FF0
2008
2548
2548
2248
2548
2548
2008
2008
2288
2288
2288
2288
2108
2008
1FF0
ENDCHAR
STARTCHAR U+1F0EF
ENCODING 127215
SWIDTH 1000 0
DWIDTH 16 0
BBX 16 16 0 -2
BITMAP 
1FF0
2008
2008
2008
2008
2AA8
2AA8
24A8
2AA8
2A48
2008
2008
2008
2008
2008
1FF0
ENDCHAR
STARTCHAR U+1F0F0
ENCODING 127216
SWIDTH 1000 0
DWIDTH 16 0
BBX 16 16 0 -2
BITMAP 
1FF0
2008
2AA8
2AA8
24A8
2AA8
2A48
2008
2008
2108
2108
2108
2108
2108
2008
1FF0
ENDCHAR
STARTCHAR U+1F0F1
ENCODING 127217
SWIDTH 1000 0
DWIDTH 16 0
BBX 16 16 0 -2
BITMAP 
1FF0
2008
2AA8
2AA8
24A8
2AA8
2A48
2008
2008
2288
2288
2288
2288
2288
2008
1FF0
ENDCHAR
STARTCHAR U+1F0F2
ENCODING 127218
SWIDTH 1000 0
DWIDTH 16 0
BBX 16 16 0 -2
BITMAP 
1FF0
2008
2AA8
2AA8
24A8
2AA8
2A48
2008
2008
2548
2548
2548
2548
2548
2008
1FF0
ENDCHAR
STARTCHAR U+1F0F3
ENCODING 127219
SWIDTH 1000 0
DWIDTH 16 0
BBX 16 16 0 -2
BITMAP 
1FF0
2008
2548
2548
2248
2548
2548
2008
2008
2288
2288
2108
2288
2288
2008
1FF0
ENDCHAR
STARTCHAR U+1F0F4
ENCODING 127220
SWIDTH 1000 0
DWIDTH 16 0
BBX 16 16 0 -2
BITMAP 
1FF0
2008
2008
2008
2008
2AA8
2AA8
2448
2AA8
2AA8
2008
2008
2008
2008
2008
1FF0
ENDCHAR
STARTCHAR U+1F0F5
ENCODING 127221
SWIDTH 1000 0
DWIDTH 16 0
BBX 16 16 0 -2
BITMAP 
1FF0
2008
2AA8
2AA8
2448
2AA8
2AA8
2008
2008
2108
2108
2108
2108
2108
2008
1FF0
ENDCHAR
STARTCHAR U+1F10B
ENCODING 127243
SWIDTH 1000 0
DWIDTH 16 0
BBX 16 16 0 -2
BITMAP 
07E0
1818
2004
4182
4242
8421
8461
84A1
8521
8621
8421
4242
4182
2004
1818
07E0
ENDCHAR
STARTCHAR U+1F10C
ENCODING 127244
SWIDTH 1000 0
DWIDTH 16 0
BBX 16 16 0 -2
BITMAP 
07E0
1FF8
3FFC
7E7E
7DBE
FBDF
FB9F
FB5F
FADF
F9DF
FBDF
7DBE
7E7E
3FFC
1FF8
07E0
ENDCHAR
STARTCHAR U+1F130
ENCODING 127280
SWIDTH 1000 0
DWIDTH 16 0
BBX 16 16 0 -2
BITMAP 
FFFF
8001
8001
8181
8241
8241
8421
8421
87E1
8421
8421
8421
8421
8001
8001
FFFF
ENDCHAR
STARTCHAR U+1F131
ENCODING 127281
SWIDTH 1000 0
DWIDTH 16 0
BBX 16 16 0 -2
BITMAP 
FFFF
8001
8001
87C1
8421
8421
8421
87C1
8421
8421
8421
8421
87C1
8001
8001
FFFF
ENDCHAR
STARTCHAR U+1F132
ENCODING 127282
SWIDTH 1000 0
DWIDTH 16 0
BBX 16 16 0 -2
BITMAP 
FFFF
8001
8001
83C1
8421
8421
8401
8401
8401
8401
8421
8421
83C1
8001
8001
FFFF
ENDCHAR
STARTCHAR U+1F133
ENCODING 127283
SWIDTH 1000 0
DWIDTH 16 0
BBX 16 16 0 -2
BITMAP 
FFFF
8001
8001
8781
8441
8421
8421
8421
8421
8421
8421
8441
8781
8001
8001
FFFF
ENDCHAR
STARTCHAR U+1F134
ENCODING 127284
SWIDTH 1000 0
DWIDTH 16 0
BBX 16 16 0 -2
BITMAP 
FFFF
8001
8001
87E1
8401
8401
8401
87C1
8401
8401
8401
8401
87E1
8001
8001
FFFF
ENDCHAR
STARTCHAR U+1F135
ENCODING 127285
SWIDTH 1000 0
DWIDTH 16 0
BBX 16 16 0 -2
BITMAP 
FFFF
8001
8001
87E1
8401
8401
8401
87C1
8401
8401
8401
8401
8401
8001
8001
FFFF
ENDCHAR
STARTCHAR U+1F136
ENCODING 127286
SWIDTH 1000 0
DWIDTH 16 0
BBX 16 16 0 -2
BITMAP 
FFFF
8001
8001
83C1
8421
8421
8401
8401
84E1
8421
8421
8461
83A1
8001
8001
FFFF
ENDCHAR
STARTCHAR U+1F137
ENCODING 127287
SWIDTH 1000 0
DWIDTH 16 0
BBX 16 16 0 -2
BITMAP 
FFFF
8001
8001
8421
8421
8421
8421
87E1
8421
8421
8421
8421
8421
8001
8001
FFFF
ENDCHAR
STARTCHAR U+1F138
ENCODING 127288
SWIDTH 1000 0
DWIDTH 16 0
BBX 16 16 0 -2
BITMAP 
FFFF
8001
8001
83E1
8081
8081
8081
8081
8081
8081
8081
8081
83E1
8001
8001
FFFF
ENDCHAR
STARTCHAR U+1F139
ENCODING 127289
SWIDTH 1000 0
DWIDTH 16 0
BBX 16 16 0 -2
BITMAP 
FFFF
8001
8001
81F1
8041
8041
8041
8041
8041
8041
8441
8441
8381
8001
8001
FFFF
ENDCHAR
STARTCHAR U+1F13A
ENCODING 127290
SWIDTH 1000 0
DWIDTH 16 0
BBX 16 16 0 -2
BITMAP 
FFFF
8001
8001
8421
8441
8481
8501
8601
8601
8501
8481
8441
8421
8001
8001
FFFF
ENDCHAR
STARTCHAR U+1F13B
ENCODING 127291
SWIDTH 1000 0
DWIDTH 16 0
BBX 16 16 0 -2
BITMAP 
FFFF
8001
8001
8401
8401
8401
8401
8401
8401
8401
8401
8401
87E1
8001
8001
FFFF
ENDCHAR
STARTCHAR U+1F13C
ENCODING 127292
SWIDTH 1000 0
DWIDTH 16 0
BBX 16 16 0 -2
BITMAP 
FFFF
8001
8001
8421
8421
8661
8661
85A1
85A1
8421
8421
8421
8421
8001
8001
FFFF
ENDCHAR
STARTCHAR U+1F13D
ENCODING 127293
SWIDTH 1000 0
DWIDTH 16 0
BBX 16 16 0 -2
BITMAP 
FFFF
8001
8001
8421
8621
8621
8521
8521
84A1
84A1
8461
8461
8421
8001
8001
FFFF
ENDCHAR
STARTCHAR U+1F13E
ENCODING 127294
SWIDTH 1000 0
DWIDTH 16 0
BBX 16 16 0 -2
BITMAP 
FFFF
8001
8001
83C1
8421
8421
8421
8421
8421
8421
8421
8421
83C1
8001
8001
FFFF
ENDCHAR
STARTCHAR U+1F13F
ENCODING 127295
SWIDTH 1000 0
DWIDTH 16 0
BBX 16 16 0 -2
BITMAP 
FFFF
8001
8001
87C1
8421
8421
8421
87C1
8401
8401
8401
8401
8401
8001
8001
FFFF
ENDCHAR
STARTCHAR U+1F140
ENCODING 127296
SWIDTH 1000 0
DWIDTH 16 0
BBX 16 16 0 -2
BITMAP 
FFFF
8001
8001
83C1
8421
8421
8421
8421
8421
8421
85A1
8661
83C1
8031
8001
FFFF
ENDCHAR
STARTCHAR U+1F141
ENCODING 127297
SWIDTH 1000 0
DWIDTH 16 0
BBX 16 16 0 -2
BITMAP 
FFFF
8001
8001
87C1
8421
8421
8421
87C1
8481
8441
8441
8421
8421
8001
8001
FFFF
ENDCHAR
STARTCHAR U+1F142
ENCODING 127298
SWIDTH 1000 0
DWIDTH 16 0
BBX 16 16 0 -2
BITMAP 
FFFF
8001
8001
83C1
8421
8421
8401
8301
80C1
8021
8421
8421
83C1
8001
8001
FFFF
ENDCHAR
STARTCHAR U+1F143
ENCODING 127299
SWIDTH 1000 0
DWIDTH 16 0
BBX 16 16 0 -2
BITMAP 
FFFF
8001
8001
87F1
8081
8081
8081
8081
8081
8081
8081
8081
8081
8001
8001
FFFF
ENDCHAR
STARTCHAR U+1F144
ENCODING 127300
SWIDTH 1000 0
DWIDTH 16 0
BBX 16 16 0 -2
BITMAP 
FFFF
8001
8001
8421
8421
8421
8421
8421
8421
8421
8421
8421
83C1
8001
8001
FFFF
ENDCHAR
STARTCHAR U+1F145
ENCODING 127301
SWIDTH 1000 0
DWIDTH 16 0
BBX 16 16 0 -2
BITMAP 
FFFF
8001
8001
8411
8411
8411
8221
8221
8221
8141
8141
8081
8081
8001
8001
FFFF
ENDCHAR
STARTCHAR U+1F146
ENCODING 127302
SWIDTH 1000 0
DWIDTH 16 0
BBX 16 16 0 -2
BITMAP 
FFFF
8001
8001
8421
8421
8421
8421
85A1
85A1
8661
8661
8421
8421
8001
8001
FFFF
ENDCHAR
STARTCHAR U+1F147
ENCODING 127303
SWIDTH 1000 0
DWIDTH 16 0
BBX 16 16 0 -2
BITMAP 
FFFF
8001
8001
8421
8421
8241
8241
8181
8181
8241
8241
8421
8421
8001
8001
FFFF
ENDCHAR
STARTCHAR U+1F148
ENCODING 127304
SWIDTH 1000 0
DWIDTH 16 0
BBX 16 16 0 -2
BITMAP 
FFFF
8001
8001
8411
8411
8221
8221
8141
8081
8081
8081
8081
8081
8001
8001
FFFF
ENDCHAR
STARTCHAR U+1F149
ENCODING 127305
SWIDTH 1000 0
DWIDTH 16 0
BBX 16 16 0 -2
BITMAP 
FFFF
8001
8001
87E1
8021
8021
8041
8081
8101
8201
8401
8401
87E1
8001
8001
FFFF
ENDCHAR
STARTCHAR U+1F150
ENCODING 127312
SWIDTH 1000 0
DWIDTH 16 0
BBX 16 16 0 -2
BITMAP 
07E0
1FF8
3FFC
7E7E
7DBE
FDBF
FBDF
FBDF
F81F
FBDF
FBDF
7BDE
7BDE
3FFC
1FF8
07E0
ENDCHAR
STARTCHAR U+1F151
ENCODING 127313
SWIDTH 1000 0
DWIDTH 16 0
BBX 16 16 0 -2
BITMAP 
07E0
1FF8
3FFC
783E
7BDE
FBDF
FBDF
F83F
FBDF
FBDF
FBDF
7BDE
783E
3FFC
1FF8
07E0
ENDCHAR
STARTCHAR U+1F152
ENCODING 127314
SWIDTH 1000 0
DWIDTH 16 0
BBX 16 16 0 -2
BITMAP 
07E0
1FF8
3FFC
7C3E
7BDE
FBDF
FBFF
FBFF
FBFF
FBFF
FBDF
7BDE
7C3E
3FFC
1FF8
07E0
ENDCHAR
STARTCHAR U+1F153
ENCODING 127315
SWIDTH 1000 0
DWIDTH 16 0
BBX 16 16 0 -2
BITMAP 
07E0
1FF8
3FFC
787E
7BBE
FBDF
FBDF
FBDF
FBDF
FBDF
FBDF
7BBE
787E
3FFC
1FF8
07E0
ENDCHAR
STARTCHAR U+1F154
ENCODING 127316
SWIDTH 1000 0
DWIDTH 16 0
BBX 16 16 0 -2
BITMAP 
07E0
1FF8
3FFC
781E
7BFE
FBFF
FBFF
F83F
FBFF
FBFF
FBFF
7BFE
781E
3FFC
1FF8
07E0
ENDCHAR
STARTCHAR U+1F155
ENCODING 127317
SWIDTH 1000 0
DWIDTH 16 0
BBX 16 16 0 -2
BITMAP 
07E0
1FF8
3FFC
781E
7BFE
FBFF
FBFF
F83F
FBFF
FBFF
FBFF
7BFE
7BFE
3FFC
1FF8
07E0
ENDCHAR
STARTCHAR U+1F156
ENCODING 127318
SWIDTH 1000 0
DWIDTH 16 0
BBX 16 16 0 -2
BITMAP 
07E0
1FF8
3FFC
7C3E
7BDE
FBDF
FBFF
FBFF
FB1F
FBDF
FBDF
7B9E
7C5E
3FFC
1FF8
07E0
ENDCHAR
STARTCHAR U+1F157
ENCODING 127319
SWIDTH 1000 0
DWIDTH 16 0
BBX 16 16 0 -2
BITMAP 
07E0
1FF8
3FFC
7BDE
7BDE
FBDF
FBDF
F81F
FBDF
FBDF
FBDF
7BDE
7BDE
3FFC
1FF8
07E0
ENDCHAR
STARTCHAR U+1F158
ENCODING 127320
SWIDTH 1000 0
DWIDTH 16 0
BBX 16 16 0 -2
BITMAP 
07E0
1FF8
3FFC
7C1E
7F7E
FF7F
FF7F
FF7F
FF7F
FF7F
FF7F
7F7E
7C1E
3FFC
1FF8
07E0
ENDCHAR
STARTCHAR U+1F159
ENCODING 127321
SWIDTH 1000 0
DWIDTH 16 0
BBX 16 16 0 -2
BITMAP 
07E0
1FF8
3FFC
7E0E
7FBE
FFBF
FFBF
FFBF
FFBF
FFBF
FBBF
7BBE
7C7E
3FFC
1FF8
07E0
ENDCHAR
STARTCHAR U+1F15A
ENCODING 127322
SWIDTH 1000 0
DWIDTH 16 0
BBX 16 16 0 -2
BITMAP 
07E0
1FF8
3FFC
7BDE
7BBE
FB7F
FAFF
F9FF
F9FF
FAFF
FB7F
7BBE
7BDE
3FFC
1FF8
07E0
ENDCHAR
STARTCHAR U+1F15B
ENCODING 127323
SWIDTH 1000 0
DWIDTH 16 0
BBX 16 16 0 -2
BITMAP 
07E0
1FF8
3FFC
7BFE
7BFE
FBFF
FBFF
FBFF
FBFF
FBFF
FBFF
7BFE
781E
3FFC
1FF8
07E0
ENDCHAR
STARTCHAR U+1F15C
ENCODING 127324
SWIDTH 1000 0
DWIDTH 16 0
BBX 16 16 0 -2
BITMAP 
07E0
1FF8
3FFC
7BDE
7BDE
F99F
F99F
FA5F
FA5F
FBDF
FBDF
7BDE
7BDE
3FFC
1FF8
07E0
ENDCHAR
STARTCHAR U+1F15D
ENCODING 127325
SWIDTH 1000 0
DWIDTH 16 0
BBX 16 16 0 -2
BITMAP 
07E0
1FF8
3FFC
7BDE
79DE
F9DF
FADF
FADF
FB5F
FB5F
FB9F
7B9E
7BDE
3FFC
1FF8
07E0
ENDCHAR
STARTCHAR U+1F15E
ENCODING 127326
SWIDTH 1000 0
DWIDTH 16 0
BBX 16 16 0 -2
BITMAP 
07E0
1FF8
3FFC
7C3E
7BDE
FBDF
FBDF
FBDF
FBDF
FBDF
FBDF
7BDE
7C3E
3FFC
1FF8
07E0
ENDCHAR
STARTCHAR U+1F15F
ENCODING 127327
SWIDTH 1000 0
DWIDTH 16 0
BBX 16 16 0 -2
BITMAP 
07E0
1FF8
3FFC
783E
7BDE
FBDF
FBDF
F83F
FBFF
FBFF
FBFF
7BFE
7BFE
3FFC
1FF8
07E0
ENDCHAR
STARTCHAR U+1F160
ENCODING 127328
SWIDTH 1000 0
DWIDTH 16 0
BBX 16 16 0 -2
BITMAP 
07E0
1FF8
3FFC
7C3E
7BDE
FBDF
FBDF
FBDF
FBDF
FBDF
FA5F
799E
7C3E
3FCC
1FF8
07E0
ENDCHAR
STARTCHAR U+1F161
ENCODING 127329
SWIDTH 1000 0
DWIDTH 16 0
BBX 16 16 0 -2
BITMAP 
07E0
1FF8
3FFC
783E
7BDE
FBDF
FBDF
F83F
FB7F
FBBF
FBBF
7BDE
7BDE
3FFC
1FF8
07E0
ENDCHAR
STARTCHAR U+1F162
ENCODING 127330
SWIDTH 1000 0
DWIDTH 16 0
BBX 16 16 0 -2
BITMAP 
07E0
1FF8
3FFC
7C3E
7BDE
FBDF
FBFF
FCFF
FF3F
FFDF
FBDF
7BDE
7C3E
3FFC
1FF8
07E0
ENDCHAR
STARTCHAR U+1F163
ENCODING 127331
SWIDTH 1000 0
DWIDTH 16 0
BBX 16 16 0 -2
BITMAP 
07E0
1FF8
3FFC
780E
7F7E
FF7F
FF7F
FF7F
FF7F
FF7F
FF7F
7F7E
7F7E
3FFC
1FF8
07E0
ENDCHAR
STARTCHAR U+1F164
ENCODING 127332
SWIDTH 1000 0
DWIDTH 16 0
BBX 16 16 0 -2
BITMAP 
07E0
1FF8
3FFC
7BDE
7BDE
FBDF
FBDF
FBDF
FBDF
FBDF
FBDF
7BDE
7C3E
3FFC
1FF8
07E0
ENDCHAR
STARTCHAR U+1F165
ENCODING 127333
SWIDTH 1000 0
DWIDTH 16 0
BBX 16 16 0 -2
BITMAP 
07E0
1FF8
3FFC
7BEE
7BEE
FBEF
FDDF
FDDF
FDDF
FEBF
FEBF
7F7E
7F7E
3FFC
1FF8
07E0
ENDCHAR
STARTCHAR U+1F166
ENCODING 127334
SWIDTH 1000 0
DWIDTH 16 0
BBX 16 16 0 -2
BITMAP 
07E0
1FF8
3FFC
7BDE
7BDE
FBDF
FBDF
FA5F
FA5F
F99F
F99F
7BDE
7BDE
3FFC
1FF8
07E0
ENDCHAR
STARTCHAR U+1F167
ENCODING 127335
SWIDTH 1000 0
DWIDTH 16 0
BBX 16 16 0 -2
BITMAP 
07E0
1FF8
3FFC
7BDE
7BDE
FDBF
FDBF
FE7F
FE7F
FDBF
FDBF
7BDE
7BDE
3FFC
1FF8
07E0
ENDCHAR
STARTCHAR U+1F168
ENCODING 127336
SWIDTH 1000 0
DWIDTH 16 0
BBX 16 16 0 -2
BITMAP 
07E0
1FF8
3FFC
7BEE
7BEE
FDDF
FDDF
FEBF
FF7F
FF7F
FF7F
7F7E
7F7E
3FFC
1FF8
07E0
ENDCHAR
STARTCHAR U+1F169
ENCODING 127337
SWIDTH 1000 0
DWIDTH 16 0
BBX 16 16 0 -2
BITMAP 
07E0
1FF8
3FFC
781E
7FDE
FFDF
FFBF
FF7F
FEFF
FDFF
FBFF
7BFE
781E
3FFC
1FF8
07E0
ENDCHAR
STARTCHAR U+1F170
ENCODING 127344
SWIDTH 1000 0
DWIDTH 16 0
BBX 16 16 0 -2
BITMAP 
FFFF
FFFF
FFFF
FE7F
FDBF
FDBF
FBDF
FBDF
F81F
FBDF
FBDF
FBDF
FBDF
FFFF
FFFF
FFFF
ENDCHAR
STARTCHAR U+1F171
ENCODING 127345
SWIDTH 1000 0
DWIDTH 16 0
BBX 16 16 0 -2
BITMAP 
FFFF
FFFF
FFFF
F83F
FBDF
FBDF
FBDF
F83F
FBDF
FBDF
FBDF
FBDF
F83F
FFFF
FFFF
FFFF
ENDCHAR
STARTCHAR U+1F172
ENCODING 127346
SWIDTH 1000 0
DWIDTH 16 0
BBX 16 16 0 -2
BITMAP 
FFFF
FFFF
FFFF
FC3F
FBDF
FBDF
FBFF
FBFF
FBFF
FBFF
FBDF
FBDF
FC3F
FFFF
FFFF
FFFF
ENDCHAR
STARTCHAR U+1F173
ENCODING 127347
SWIDTH 1000 0
DWIDTH 16 0
BBX 16 16 0 -2
BITMAP 
FFFF
FFFF
FFFF
F87F
FBBF
FBDF
FBDF
FBDF
FBDF
FBDF
FBDF
FBBF
F87F
FFFF
FFFF
FFFF
ENDCHAR
STARTCHAR U+1F174
ENCODING 127348
SWIDTH 1000 0
DWIDTH 16 0
BBX 16 16 0 -2
BITMAP 
FFFF
FFFF
FFFF
F81F
FBFF
FBFF
FBFF
F83F
FBFF
FBFF
FBFF
FBFF
F81F
FFFF
FFFF
FFFF
ENDCHAR
STARTCHAR U+1F175
ENCODING 127349
SWIDTH 1000 0
DWIDTH 16 0
BBX 16 16 0 -2
BITMAP 
FFFF
FFFF
FFFF
F81F
FBFF
FBFF
FBFF
F83F
FBFF
FBFF
FBFF
FBFF
FBFF
FFFF
FFFF
FFFF
ENDCHAR
STARTCHAR U+1F176
ENCODING 127350
SWIDTH 1000 0
DWIDTH 16 0
BBX 16 16 0 -2
BITMAP 
FFFF
FFFF
FFFF
FC3F
FBDF
FBDF
FBFF
FBFF
FB1F
FBDF
FBDF
FB9F
FC5F
FFFF
FFFF
FFFF
ENDCHAR
STARTCHAR U+1F177
ENCODING 127351
SWIDTH 1000 0
DWIDTH 16 0
BBX 16 16 0 -2
BITMAP 
FFFF
FFFF
FFFF
FBDF
FBDF
FBDF
FBDF
F81F
FBDF
FBDF
FBDF
FBDF
FBDF
FFFF
FFFF
FFFF
ENDCHAR
STARTCHAR U+1F178
ENCODING 127352
SWIDTH 1000 0
DWIDTH 16 0
BBX 16 16 0 -2
BITMAP 
FFFF
FFFF
FFFF
FC1F
FF7F
FF7F
FF7F
FF7F
FF7F
FF7F
FF7F
FF7F
FC1F
FFFF
FFFF
FFFF
ENDCHAR
STARTCHAR U+1F179
ENCODING 127353
SWIDTH 1000 0
DWIDTH 16 0
BBX 16 16 0 -2
BITMAP 
FFFF
FFFF
FFFF
FE0F
FFBF
FFBF
FFBF
FFBF
FFBF
FFBF
FBBF
FBBF
FC7F
FFFF
FFFF
FFFF
ENDCHAR
STARTCHAR U+1F17A
ENCODING 127354
SWIDTH 1000 0
DWIDTH 16 0
BBX 16 16 0 -2
BITMAP 
FFFF
FFFF
FFFF
FBDF
FBBF
FB7F
FAFF
F9FF
F9FF
FAFF
FB7F
FBBF
FBDF
FFFF
FFFF
FFFF
ENDCHAR
STARTCHAR U+1F17B
ENCODING 127355
SWIDTH 1000 0
DWIDTH 16 0
BBX 16 16 0 -2
BITMAP 
FFFF
FFFF
FFFF
FBFF
FBFF
FBFF
FBFF
FBFF
FBFF
FBFF
FBFF
FBFF
F81F
FFFF
FFFF
FFFF
ENDCHAR
STARTCHAR U+1F17C
ENCODING 127356
SWIDTH 1000 0
DWIDTH 16 0
BBX 16 16 0 -2
BITMAP 
FFFF
FFFF
FFFF
FBDF
FBDF
F99F
F99F
FA5F
FA5F
FBDF
FBDF
FBDF
FBDF
FFFF
FFFF
FFFF
ENDCHAR
STARTCHAR U+1F17D
ENCODING 127357
SWIDTH 1000 0
DWIDTH 16 0
BBX 16 16 0 -2
BITMAP 
FFFF
FFFF
FFFF
FBDF
F9DF
F9DF
FADF
FADF
FB5F
FB5F
FB9F
FB9F
FBDF
FFFF
FFFF
FFFF
ENDCHAR
STARTCHAR U+1F17E
ENCODING 127358
SWIDTH 1000 0
DWIDTH 16 0
BBX 16 16 0 -2
BITMAP 
FFFF
FFFF
FFFF
FC3F
FBDF
FBDF
FBDF
FBDF
FBDF
FBDF
FBDF
FBDF
FC3F
FFFF
FFFF
FFFF
ENDCHAR
STARTCHAR U+1F17F
ENCODING 127359
SWIDTH 1000 0
DWIDTH 16 0
BBX 16 16 0 -2
BITMAP 
FFFF
FFFF
FFFF
F83F
FBDF
FBDF
FBDF
F83F
FBFF
FBFF
FBFF
FBFF
FBFF
FFFF
FFFF
FFFF
ENDCHAR
STARTCHAR U+1F180
ENCODING 127360
SWIDTH 1000 0
DWIDTH 16 0
BBX 16 16 0 -2
BITMAP 
FFFF
FFFF
FFFF
FC3F
FBDF
FBDF
FBDF
FBDF
FBDF
FBDF
FA5F
F99F
FC3F
FFCF
FFFF
FFFF
ENDCHAR
STARTCHAR U+1F181
ENCODING 127361
SWIDTH 1000 0
DWIDTH 16 0
BBX 16 16 0 -2
BITMAP 
FFFF
FFFF
FFFF
F83F
FBDF
FBDF
FBDF
F83F
FB7F
FBBF
FBBF
FBDF
FBDF
FFFF
FFFF
FFFF
ENDCHAR
STARTCHAR U+1F182
ENCODING 127362
SWIDTH 1000 0
DWIDTH 16 0
BBX 16 16 0 -2
BITMAP 
FFFF
FFFF
FFFF
FC3F
FBDF
FBDF
FBFF
FCFF
FF3F
FFDF
FBDF
FBDF
FC3F
FFFF
FFFF
FFFF
ENDCHAR
STARTCHAR U+1F183
ENCODING 127363
SWIDTH 1000 0
DWIDTH 16 0
BBX 16 16 0 -2
BITMAP 
FFFF
FFFF
FFFF
F80F
FF7F
FF7F
FF7F
FF7F
FF7F
FF7F
FF7F
FF7F
FF7F
FFFF
FFFF
FFFF
ENDCHAR
STARTCHAR U+1F184
ENCODING 127364
SWIDTH 1000 0
DWIDTH 16 0
BBX 16 16 0 -2
BITMAP 
FFFF
FFFF
FFFF
FBDF
FBDF
FBDF
FBDF
FBDF
FBDF
FBDF
FBDF
FBDF
FC3F
FFFF
FFFF
FFFF
ENDCHAR
STARTCHAR U+1F185
ENCODING 127365
SWIDTH 1000 0
DWIDTH 16 0
BBX 16 16 0 -2
BITMAP 
FFFF
FFFF
FFFF
FBEF
FBEF
FBEF
FDDF
FDDF
FDDF
FEBF
FEBF
FF7F
FF7F
FFFF
FFFF
FFFF
ENDCHAR
STARTCHAR U+1F186
ENCODING 127366
SWIDTH 1000 0
DWIDTH 16 0
BBX 16 16 0 -2
BITMAP 
FFFF
FFFF
FFFF
FBDF
FBDF
FBDF
FBDF
FA5F
FA5F
F99F
F99F
FBDF
FBDF
FFFF
FFFF
FFFF
ENDCHAR
STARTCHAR U+1F187
ENCODING 127367
SWIDTH 1000 0
DWIDTH 16 0
BBX 16 16 0 -2
BITMAP 
FFFF
FFFF
FFFF
FBDF
FBDF
FDBF
FDBF
FE7F
FE7F
FDBF
FDBF
FBDF
FBDF
FFFF
FFFF
FFFF
ENDCHAR
STARTCHAR U+1F188
ENCODING 127368
SWIDTH 1000 0
DWIDTH 16 0
BBX 16 16 0 -2
BITMAP 
FFFF
FFFF
FFFF
FBEF
FBEF
FDDF
FDDF
FEBF
FF7F
FF7F
FF7F
FF7F
FF7F
FFFF
FFFF
FFFF
ENDCHAR
STARTCHAR U+1F189
ENCODING 127369
SWIDTH 1000 0
DWIDTH 16 0
BBX 16 16 0 -2
BITMAP 
FFFF
FFFF
FFFF
F81F
FFDF
FFDF
FFBF
FF7F
FEFF
FDFF
FBFF
FBFF
F81F
FFFF
FFFF
FFFF
ENDCHAR
STARTCHAR U+1FA00
ENCODING 129536
SWIDTH 1000 0
DWIDTH 16 0
BBX 16 16 0 -2
BITMAP 
0000
0080
01C0
1C9C
2362
2DC2
2E82
1684
1684
0A88
0A88
0FF8
0F88
0FF8
0000
0000
ENDCHAR
STARTCHAR U+1FA01
ENCODING 129537
SWIDTH 1000 0
DWIDTH 16 0
BBX 16 16 0 -2
BITMAP 
0000
0080
09C8
1C94
0888
2492
7495
2492
12A4
12A4
0AA8
0FF8
0F88
0FF8
0000
0000
ENDCHAR
STARTCHAR U+1FA02
ENCODING 129538
SWIDTH 1000 0
DWIDTH 16 0
BBX 16 16 0 -2
BITMAP 
0000
0000
0DD8
0FE8
0F88
0F88
0FF8
03A0
03A0
03A0
0790
0F88
0F88
0FF8
0000
0000
ENDCHAR
STARTCHAR U+1FA03
ENCODING 129539
SWIDTH 1000 0
DWIDTH 16 0
BBX 16 16 0 -2
BITMAP 
0000
0080
01C0
0080
01C0
03A0
0710
06D0
0710
03A0
03E0
0080
0770
0808
0000
0000
ENDCHAR
STARTCHAR U+1FA04
ENCODING 129540
SWIDTH 1000 0
DWIDTH 16 0
BBX 16 16 0 -2
BITMAP 
0000
0000
00C0
03E0
07D0
0DC8
1FC8
3FC4
3E44
18C4
01C4
07C4
07C4
07FC
0000
0000
ENDCHAR
STARTCHAR U+1FA05
ENCODING 129541
SWIDTH 1000 0
DWIDTH 16 0
BBX 16 16 0 -2
BITMAP 
0000
0000
01C0
03A0
03A0
03A0
01C0
03A0
01C0
01C0
01C0
03A0
0790
07F0
0000
0000
ENDCHAR
STARTCHAR U+1FA06
ENCODING 129542
SWIDTH 1000 0
DWIDTH 16 0
BBX 16 16 0 -2
BITMAP 
0000
0FC0
102C
1094
1004
0C04
0304
1084
2F84
4008
2008
1010
0820
0440
0280
0100
ENDCHAR
STARTCHAR U+1FA07
ENCODING 129543
SWIDTH 1000 0
DWIDTH 16 0
BBX 16 16 0 -2
BITMAP 
0000
0FC0
1FEC
1F7C
1FFC
0FFC
03FC
10FC
3FFC
7FF8
3FF8
1FF0
0FE0
07C0
0380
0100
ENDCHAR
STARTCHAR U+1FA08
ENCODING 129544
SWIDTH 1000 0
DWIDTH 16 0
BBX 16 16 0 -2
BITMAP 
0000
0FC0
1FEC
1F7C
1FFC
0FF4
03E4
10C4
3F84
7F08
3E08
1C10
0820
0440
0280
0100
ENDCHAR
STARTCHAR U+1FA09
ENCODING 129545
SWIDTH 1000 0
DWIDTH 16 0
BBX 16 16 0 -2
BITMAP 
0000
0070
0188
3E08
2808
2810
2834
2FEE
2834
2810
2808
3E08
0188
0070
0000
0000
ENDCHAR
STARTCHAR U+1FA0A
ENCODING 129546
SWIDTH 1000 0
DWIDTH 16 0
BBX 16 16 0 -2
BITMAP 
0040
00A0
0348
3C14
28E8
2F00
2804
2FFA
2804
2F00
28E8
3C14
0348
00A0
0040
0000
ENDCHAR
STARTCHAR U+1FA0B
ENCODING 129547
SWIDTH 1000 0
DWIDTH 16 0
BBX 16 16 0 -2
BITMAP 
0000
0000
0000
387C
2444
23C8
204C
2044
204C
23C8
2444
387C
0000
0000
0000
0000
ENDCHAR
STARTCHAR U+1FA0C
ENCODING 129548
SWIDTH 1000 0
DWIDTH 16 0
BBX 16 16 0 -2
BITMAP 
0000
0000
0000
2000
11C0
1620
1494
09CA
1494
1620
11C0
2000
0000
0000
0000
0000
ENDCHAR
STARTCHAR U+1FA0D
ENCODING 129549
SWIDTH 1000 0
DWIDTH 16 0
BBX 16 16 0 -2
BITMAP 
0000
0000
0180
0240
0220
3910
2928
2488
228C
2104
2008
2010
2060
3F80
0000
0000
ENDCHAR
STARTCHAR U+1FA0E
ENCODING 129550
SWIDTH 1000 0
DWIDTH 16 0
BBX 16 16 0 -2
BITMAP 
0000
0000
0000
0000
3000
28B8
2744
2004
2744
28B8
3000
0000
0000
0000
0000
0000
ENDCHAR
STARTCHAR U+1FA0F
ENCODING 129551
SWIDTH 1000 0
DWIDTH 16 0
BBX 16 16 0 -2
BITMAP 
0000
0070
0188
3E68
39E8
3FD0
3834
3FEE
3834
3FD0
39E8
3E68
0188
0070
0000
0000
ENDCHAR
STARTCHAR U+1FA10
ENCODING 129552
SWIDTH 1000 0
DWIDTH 16 0
BBX 16 16 0 -2
BITMAP 
0040
00E0
0348
3C1C
38E8
3F00
3804
3FFE
3804
3F00
38E8
3C1C
0348
00E0
0040
0000
ENDCHAR
STARTCHAR U+1FA11
ENCODING 129553
SWIDTH 1000 0
DWIDTH 16 0
BBX 16 16 0 -2
BITMAP 
0000
0000
0000
387C
3C7C
3FF8
3FFC
3FFC
3FFC
3FF8
3C7C
387C
0000
0000
0000
0000
ENDCHAR
STARTCHAR U+1FA12
ENCODING 129554
SWIDTH 1000 0
DWIDTH 16 0
BBX 16 16 0 -2
BITMAP 
0000
0000
0000
2000
11C0
17E0
1774
0E3E
1774
17E0
11C0
2000
0000
0000
0000
0000
ENDCHAR
STARTCHAR U+1FA13
ENCODING 129555
SWIDTH 1000 0
DWIDTH 16 0
BBX 16 16 0 -2
BITMAP 
0000
0000
0180
03C0
03E0
39F0
39D8
3CF8
3EFC
3FFC
3FF8
3FF0
3FE0
3F80
0000
0000
ENDCHAR
STARTCHAR U+1FA14
ENCODING 129556
SWIDTH 1000 0
DWIDTH 16 0
BBX 16 16 0 -2
BITMAP 
0000
0000
0000
0000
3000
38B8
3FFC
3FFC
3FFC
38B8
3000
0000
0000
0000
0000
0000
ENDCHAR
STARTCHAR U+1FA15
ENCODING 129557
SWIDTH 1000 0
DWIDTH 16 0
BBX 16 16 0 -2
BITMAP 
0000
0070
0188
3E68
39E8
3FD0
3834
3FEE
2834
2810
2808
3E08
0188
0070
0000
0000
ENDCHAR
STARTCHAR U+1FA16
ENCODING 129558
SWIDTH 1000 0
DWIDTH 16 0
BBX 16 16 0 -2
BITMAP 
0040
00E0
0348
3C1C
38E8
3F00
3804
3FFE
2804
2F00
28E8
3C14
0348
00A0
0040
0000
ENDCHAR
STARTCHAR U+1FA17
ENCODING 129559
SWIDTH 1000 0
DWIDTH 16 0
BBX 16 16 0 -2
BITMAP 
0000
0000
0000
387C
3C7C
3FF8
3FFC
3FFC
204C
23C8
2444
387C
0000
0000
0000
0000
ENDCHAR
STARTCHAR U+1FA18
ENCODING 129560
SWIDTH 1000 0
DWIDTH 16 0
BBX 16 16 0 -2
BITMAP 
0000
0000
0000
2000
11C0
17E0
1774
0EBE
1494
1620
11C0
2000
0000
0000
0000
0000
ENDCHAR
STARTCHAR U+1FA19
ENCODING 129561
SWIDTH 1000 0
DWIDTH 16 0
BBX 16 16 0 -2
BITMAP 
0000
0000
0180
03C0
03E0
39F0
39D8
3CF8
3EFC
3FFC
2008
2010
2060
3F80
0000
0000
ENDCHAR
STARTCHAR U+1FA1A
ENCODING 129562
SWIDTH 1000 0
DWIDTH 16 0
BBX 16 16 0 -2
BITMAP 
0000
0000
0000
0000
3000
38B8
3FFC
3FFC
2744
28B8
3000
0000
0000
0000
0000
0000
ENDCHAR
STARTCHAR U+1FA1B
ENCODING 129563
SWIDTH 1000 0
DWIDTH 16 0
BBX 16 16 0 -2
BITMAP 
0000
0200
0500
089C
1122
2122
4142
8142
418A
2002
1004
0808
0604
01FC
0000
0000
ENDCHAR
STARTCHAR U+1FA1C
ENCODING 129564
SWIDTH 1000 0
DWIDTH 16 0
BBX 16 16 0 -2
BITMAP 
0000
0200
0700
0F9C
1F3E
3F3E
7F7E
FF7E
7FF6
3FFE
1FFC
0FF8
07FC
01FC
0000
0000
ENDCHAR
STARTCHAR U+1FA1D
ENCODING 129565
SWIDTH 1000 0
DWIDTH 16 0
BBX 16 16 0 -2
BITMAP 
0000
0200
0700
0F9C
1F3E
2F3E
477E
837E
41F6
20FE
107C
0838
061C
01FC
0000
0000
ENDCHAR
STARTCHAR U+1FA1E
ENCODING 129566
SWIDTH 1000 0
DWIDTH 16 0
BBX 16 16 0 -2
BITMAP 
0000
0000
0FF8
0808
0FF8
0888
0888
1084
1084
2082
21C2
2362
1C9C
01C0
0080
0000
ENDCHAR
STARTCHAR U+1FA1F
ENCODING 129567
SWIDTH 1000 0
DWIDTH 16 0
BBX 16 16 0 -2
BITMAP 
0000
0000
0FF8
0808
0FF8
0AA8
12A4
12A4
2492
5495
2492
0888
1494
0948
0080
0000
ENDCHAR
STARTCHAR U+1FA20
ENCODING 129568
SWIDTH 1000 0
DWIDTH 16 0
BBX 16 16 0 -2
BITMAP 
0000
0000
0FF8
0808
0808
0410
0220
0220
0220
0FF8
0808
0808
0B68
0DD8
0000
0000
ENDCHAR
STARTCHAR U+1FA21
ENCODING 129569
SWIDTH 1000 0
DWIDTH 16 0
BBX 16 16 0 -2
BITMAP 
0000
0000
0808
0770
0080
0360
0220
0490
05D0
0490
0220
0140
0080
0140
0080
0000
ENDCHAR
STARTCHAR U+1FA22
ENCODING 129570
SWIDTH 1000 0
DWIDTH 16 0
BBX 16 16 0 -2
BITMAP 
0000
0000
3FE0
2020
2060
2080
2118
2264
2184
1008
1050
0820
05C0
0300
0000
0000
ENDCHAR
STARTCHAR U+1FA23
ENCODING 129571
SWIDTH 1000 0
DWIDTH 16 0
BBX 16 16 0 -2
BITMAP 
0000
0000
07F0
0410
0220
0140
0140
0140
0220
0140
0220
0220
0220
01C0
0000
0000
ENDCHAR
STARTCHAR U+1FA24
ENCODING 129572
SWIDTH 1000 0
DWIDTH 16 0
BBX 16 16 0 -2
BITMAP 
0000
0000
0FF8
0FF8
0FF8
0AA8
0AA8
16B4
16B4
2EBA
2DDA
2362
1C9C
01C0
0080
0000
ENDCHAR
STARTCHAR U+1FA25
ENCODING 129573
SWIDTH 1000 0
DWIDTH 16 0
BBX 16 16 0 -2
BITMAP 
0000
0000
0FF8
0FF8
0FF8
0AA8
12A4
12A4
2492
7497
2492
0888
1C9C
09C8
0080
0000
ENDCHAR
STARTCHAR U+1FA26
ENCODING 129574
SWIDTH 1000 0
DWIDTH 16 0
BBX 16 16 0 -2
BITMAP 
0000
0000
0FF8
0FF8
0FF8
07F0
03E0
03E0
03E0
0FF8
0FF8
0FF8
0FF8
0DD8
0000
0000
ENDCHAR
STARTCHAR U+1FA27
ENCODING 129575
SWIDTH 1000 0
DWIDTH 16 0
BBX 16 16 0 -2
BITMAP 
0000
0000
0808
0770
0080
03E0
03E0
0770
0630
0770
03E0
01C0
0080
01C0
0080
0000
ENDCHAR
STARTCHAR U+1FA28
ENCODING 129576
SWIDTH 1000 0
DWIDTH 16 0
BBX 16 16 0 -2
BITMAP 
0000
0000
3FE0
3FE0
3FE0
3F80
3F18
3E7C
3FFC
1FF8
1FB0
0FE0
07C0
0300
0000
0000
ENDCHAR
STARTCHAR U+1FA29
ENCODING 129577
SWIDTH 1000 0
DWIDTH 16 0
BBX 16 16 0 -2
BITMAP 
0000
0000
07F0
07F0
03E0
01C0
01C0
01C0
03E0
01C0
03E0
03E0
03E0
01C0
0000
0000
ENDCHAR
STARTCHAR U+1FA2A
ENCODING 129578
SWIDTH 1000 0
DWIDTH 16 0
BBX 16 16 0 -2
BITMAP 
0000
0000
0FF8
08F8
0FF8
08A8
08A8
10B4
10B4
20BA
21DA
2362
1C9C
01C0
0080
0000
ENDCHAR
STARTCHAR U+1FA2B
ENCODING 129579
SWIDTH 1000 0
DWIDTH 16 0
BBX 16 16 0 -2
BITMAP 
0000
0000
0FF8
08F8
0FF8
0AA8
12A4
12A4
2492
5497
2492
0888
149C
09C8
0080
0000
ENDCHAR
STARTCHAR U+1FA2C
ENCODING 129580
SWIDTH 1000 0
DWIDTH 16 0
BBX 16 16 0 -2
BITMAP 
0000
0000
0FF8
08F8
08F8
04F0
02E0
02E0
02E0
0FF8
08F8
08F8
0BF8
0DD8
0000
0000
ENDCHAR
STARTCHAR U+1FA2D
ENCODING 129581
SWIDTH 1000 0
DWIDTH 16 0
BBX 16 16 0 -2
BITMAP 
0000
0000
0808
0770
0080
03E0
02E0
0470
05B0
0470
02E0
01C0
0080
01C0
0080
0000
ENDCHAR
STARTCHAR U+1FA2E
ENCODING 129582
SWIDTH 1000 0
DWIDTH 16 0
BBX 16 16 0 -2
BITMAP 
0000
0000
3FE0
23E0
23E0
2380
2318
227C
23FC
13F8
13B0
0BE0
07C0
0300
0000
0000
ENDCHAR
STARTCHAR U+1FA2F
ENCODING 129583
SWIDTH 1000 0
DWIDTH 16 0
BBX 16 16 0 -2
BITMAP 
0000
0000
07F0
04F0
02E0
01C0
01C0
01C0
02E0
01C0
02E0
02E0
02E0
01C0
0000
0000
ENDCHAR
STARTCHAR U+1FA30
ENCODING 129584
SWIDTH 1000 0
DWIDTH 16 0
BBX 16 16 0 -2
BITMAP 
0080
0140
0220
0410
0808
1004
1002
21F4
2108
20C0
2030
2008
2908
3408
03F0
0000
ENDCHAR
STARTCHAR U+1FA31
ENCODING 129585
SWIDTH 1000 0
DWIDTH 16 0
BBX 16 16 0 -2
BITMAP 
0080
01C0
03E0
07F0
0FF8
1FFC
1FFE
3FFC
3F08
3FC0
3FF0
3FF8
3EF8
37F8
03F0
0000
ENDCHAR
STARTCHAR U+1FA32
ENCODING 129586
SWIDTH 1000 0
DWIDTH 16 0
BBX 16 16 0 -2
BITMAP 
0080
0140
0220
0410
0838
107C
10FE
21FC
2308
27C0
2FF0
3FF8
3EF8
37F8
03F0
0000
ENDCHAR
STARTCHAR U+1FA33
ENCODING 129587
SWIDTH 1000 0
DWIDTH 16 0
BBX 16 16 0 -2
BITMAP 
0000
0E00
1180
107C
1014
0814
2C14
77F4
2C14
0814
1014
107C
1180
0E00
0000
0000
ENDCHAR
STARTCHAR U+1FA34
ENCODING 129588
SWIDTH 1000 0
DWIDTH 16 0
BBX 16 16 0 -2
BITMAP 
0200
0500
12C0
283C
1714
00F4
2014
5FF4
2014
00F4
1714
283C
12C0
0500
0200
0000
ENDCHAR
STARTCHAR U+1FA35
ENCODING 129589
SWIDTH 1000 0
DWIDTH 16 0
BBX 16 16 0 -2
BITMAP 
0000
0000
0000
3E1C
2224
13C4
3204
2204
3204
13C4
2224
3E1C
0000
0000
0000
0000
ENDCHAR
STARTCHAR U+1FA36
ENCODING 129590
SWIDTH 1000 0
DWIDTH 16 0
BBX 16 16 0 -2
BITMAP 
0000
0000
0000
0004
0388
0468
2928
5390
2928
0468
0388
0004
0000
0000
0000
0000
ENDCHAR
STARTCHAR U+1FA37
ENCODING 129591
SWIDTH 1000 0
DWIDTH 16 0
BBX 16 16 0 -2
BITMAP 
0000
0000
01FC
0604
0804
1004
2084
3144
1124
1494
089C
0440
0240
0180
0000
0000
ENDCHAR
STARTCHAR U+1FA38
ENCODING 129592
SWIDTH 1000 0
DWIDTH 16 0
BBX 16 16 0 -2
BITMAP 
0000
0000
0000
0000
000C
1D14
22E4
2004
22E4
1D14
000C
0000
0000
0000
0000
0000
ENDCHAR
STARTCHAR U+1FA39
ENCODING 129593
SWIDTH 1000 0
DWIDTH 16 0
BBX 16 16 0 -2
BITMAP 
0000
0E00
1180
167C
179C
0BFC
2C1C
77FC
2C1C
0BFC
179C
167C
1180
0E00
0000
0000
ENDCHAR
STARTCHAR U+1FA3A
ENCODING 129594
SWIDTH 1000 0
DWIDTH 16 0
BBX 16 16 0 -2
BITMAP 
0200
0700
12C0
383C
171C
00FC
201C
7FFC
201C
00FC
171C
383C
12C0
0700
0200
0000
ENDCHAR
STARTCHAR U+1FA3B
ENCODING 129595
SWIDTH 1000 0
DWIDTH 16 0
BBX 16 16 0 -2
BITMAP 
0000
0000
0000
3E1C
3E3C
1FFC
3FFC
3FFC
3FFC
1FFC
3E3C
3E1C
0000
0000
0000
0000
ENDCHAR
STARTCHAR U+1FA3C
ENCODING 129596
SWIDTH 1000 0
DWIDTH 16 0
BBX 16 16 0 -2
BITMAP 
0000
0000
0000
0004
0388
07E8
2EE8
7C70
2EE8
07E8
0388
0004
0000
0000
0000
0000
ENDCHAR
STARTCHAR U+1FA3D
ENCODING 129597
SWIDTH 1000 0
DWIDTH 16 0
BBX 16 16 0 -2
BITMAP 
0000
0000
01FC
07FC
0FFC
1FFC
3FFC
3F7C
1F3C
1B9C
0F9C
07C0
03C0
0180
0000
0000
ENDCHAR
STARTCHAR U+1FA3E
ENCODING 129598
SWIDTH 1000 0
DWIDTH 16 0
BBX 16 16 0 -2
BITMAP 
0000
0000
0000
0000
000C
1D1C
3FFC
3FFC
3FFC
1D1C
000C
0000
0000
0000
0000
0000
ENDCHAR
STARTCHAR U+1FA3F
ENCODING 129599
SWIDTH 1000 0
DWIDTH 16 0
BBX 16 16 0 -2
BITMAP 
0000
0E00
1180
107C
1014
0814
2C14
77FC
2C1C
0BFC
179C
167C
1180
0E00
0000
0000
ENDCHAR
STARTCHAR U+1FA40
ENCODING 129600
SWIDTH 1000 0
DWIDTH 16 0
BBX 16 16 0 -2
BITMAP 
0200
0500
12C0
283C
1714
00F4
2014
7FFC
201C
00FC
171C
383C
12C0
0700
0200
0000
ENDCHAR
STARTCHAR U+1FA41
ENCODING 129601
SWIDTH 1000 0
DWIDTH 16 0
BBX 16 16 0 -2
BITMAP 
0000
0000
0000
3E1C
2224
13C4
3204
3FFC
3FFC
1FFC
3E3C
3E1C
0000
0000
0000
0000
ENDCHAR
STARTCHAR U+1FA42
ENCODING 129602
SWIDTH 1000 0
DWIDTH 16 0
BBX 16 16 0 -2
BITMAP 
0000
0000
0000
0004
0388
0468
2928
7D70
2EE8
07E8
0388
0004
0000
0000
0000
0000
ENDCHAR
STARTCHAR U+1FA43
ENCODING 129603
SWIDTH 1000 0
DWIDTH 16 0
BBX 16 16 0 -2
BITMAP 
0000
0000
01FC
0604
0804
1004
3FFC
3F7C
1F3C
1B9C
0F9C
07C0
03C0
0180
0000
0000
ENDCHAR
STARTCHAR U+1FA44
ENCODING 129604
SWIDTH 1000 0
DWIDTH 16 0
BBX 16 16 0 -2
BITMAP 
0000
0000
0000
0000
000C
1D14
22E4
3FFC
3FFC
1D1C
000C
0000
0000
0000
0000
0000
ENDCHAR
STARTCHAR U+1FA45
ENCODING 129605
SWIDTH 1000 0
DWIDTH 16 0
BBX 16 16 0 -2
BITMAP 
0000
0000
3F80
2060
1010
2008
4004
5182
4281
4282
4484
4488
3910
00A0
0040
0000
ENDCHAR
STARTCHAR U+1FA46
ENCODING 129606
SWIDTH 1000 0
DWIDTH 16 0
BBX 16 16 0 -2
BITMAP 
0000
0000
3F80
3FE0
1FF0
3FF8
7FFC
6FFE
7EFF
7EFE
7CFC
7CF8
39F0
00E0
0040
0000
ENDCHAR
STARTCHAR U+1FA47
ENCODING 129607
SWIDTH 1000 0
DWIDTH 16 0
BBX 16 16 0 -2
BITMAP 
0000
0000
3F80
3860
1C10
3E08
7F04
6F82
7EC1
7EE2
7CF4
7CF8
39F0
00E0
0040
0000
ENDCHAR
STARTCHAR U+1FA48
ENCODING 129608
SWIDTH 1000 0
DWIDTH 16 0
BBX 16 16 0 -2
BITMAP 
0000
0000
0000
0000
0000
3006
288A
2492
22A2
21C2
22A2
2492
288A
3006
0000
0000
ENDCHAR
STARTCHAR U+1FA49
ENCODING 129609
SWIDTH 1000 0
DWIDTH 16 0
BBX 16 16 0 -2
BITMAP 
0000
0000
0000
0000
0000
3006
388E
3C9E
3EBE
3FFE
3EBE
3C9E
388E
3006
0000
0000
ENDCHAR
STARTCHAR U+1FA4A
ENCODING 129610
SWIDTH 1000 0
DWIDTH 16 0
BBX 16 16 0 -2
BITMAP 
0000
0000
0000
0000
0000
3006
388A
3C92
3EA2
3FC2
3EA2
3C92
388A
3006
0000
0000
ENDCHAR
STARTCHAR U+1FA4B
ENCODING 129611
SWIDTH 1000 0
DWIDTH 16 0
BBX 16 16 0 -2
BITMAP 
0000
0FF8
0808
0410
0220
0140
0080
07F0
0080
0140
0220
0410
0808
0FF8
0000
0000
ENDCHAR
STARTCHAR U+1FA4C
ENCODING 129612
SWIDTH 1000 0
DWIDTH 16 0
BBX 16 16 0 -2
BITMAP 
0000
0FF8
0FF8
07F0
03E0
01C0
0080
07F0
0080
01C0
03E0
07F0
0FF8
0FF8
0000
0000
ENDCHAR
STARTCHAR U+1FA4D
ENCODING 129613
SWIDTH 1000 0
DWIDTH 16 0
BBX 16 16 0 -2
BITMAP 
0000
0FF8
0FF8
07F0
03E0
01C0
0080
07F0
0080
0140
0220
0410
0808
0FF8
0000
0000
ENDCHAR
STARTCHAR U+1FA4E
ENCODING 129614
SWIDTH 1000 0
DWIDTH 16 0
BBX 16 16 0 -2
BITMAP 
0000
0080
0948
1494
08C8
23A2
5415
2A0A
1008
2184
2644
1884
0104
03FC
0000
0000
ENDCHAR
STARTCHAR U+1FA4F
ENCODING 129615
SWIDTH 1000 0
DWIDTH 16 0
BBX 16 16 0 -2
BITMAP 
0000
0000
00C0
03A0
0410
0A08
1008
2184
2644
1884
03FE
0202
02DA
0376
0000
0000
ENDCHAR
STARTCHAR U+1FA50
ENCODING 129616
SWIDTH 1000 0
DWIDTH 16 0
BBX 16 16 0 -2
BITMAP 
0000
0000
00C0
03A0
0410
0A08
1008
2184
2644
1884
01FC
0040
03B8
0404
0000
0000
ENDCHAR
STARTCHAR U+1FA51
ENCODING 129617
SWIDTH 1000 0
DWIDTH 16 0
BBX 16 16 0 -2
BITMAP 
0000
0080
09C8
1C9C
08C8
23E2
77F7
2DFA
1FF8
3FFC
3E7C
18FC
01FC
03FC
0000
0000
ENDCHAR
STARTCHAR U+1FA52
ENCODING 129618
SWIDTH 1000 0
DWIDTH 16 0
BBX 16 16 0 -2
BITMAP 
0000
0000
00C0
03E0
07F0
0DF8
1FF8
3FFC
3E7C
18FC
03FE
03FE
03FE
0376
0000
0000
ENDCHAR
STARTCHAR U+1FA53
ENCODING 129619
SWIDTH 1000 0
DWIDTH 16 0
BBX 16 16 0 -2
BITMAP 
0000
0000
00C0
03E0
07F0
0DF8
1FF8
3FFC
3E7C
18FC
01FC
0040
03B8
0404
0000
0000
ENDCHAR
STARTCHAR U+1FA60
ENCODING 129632
SWIDTH 1000 0
DWIDTH 16 0
BBX 16 16 0 -2
BITMAP 
3FFC
4002
9041
BC41
A5F9
A549
BD49
A149
BD49
A549
A559
BC41
A441
8001
4002
3FFC
ENDCHAR
STARTCHAR U+1FA61
ENCODING 129633
SWIDTH 1000 0
DWIDTH 16 0
BBX 16 16 0 -2
BITMAP 
3FFC
4002
8441
8441
8841
8841
9BF9
A841
8841
8841
8841
8841
89F1
8001
4002
3FFC
ENDCHAR
STARTCHAR U+1FA62
ENCODING 129634
SWIDTH 1000 0
DWIDTH 16 0
BBX 16 16 0 -2
BITMAP 
3FFC
4002
84F9
8489
9F89
84F9
8489
8E89
95F9
A489
8489
84F9
8489
8001
4002
3FFC
ENDCHAR
STARTCHAR U+1FA63
ENCODING 129635
SWIDTH 1000 0
DWIDTH 16 0
BBX 16 16 0 -2
BITMAP 
3FFC
4002
8FF1
8901
8FE1
8901
8FE1
8901
8FF9
8009
9549
92A9
A2B1
8001
4002
3FFC
ENDCHAR
STARTCHAR U+1FA64
ENCODING 129636
SWIDTH 1000 0
DWIDTH 16 0
BBX 16 16 0 -2
BITMAP 
3FFC
4002
8101
9FF1
8101
8FE1
8921
8FE1
8921
8FE1
8101
BFF9
8101
8101
4002
3FFC
ENDCHAR
STARTCHAR U+1FA65
ENCODING 129637
SWIDTH 1000 0
DWIDTH 16 0
BBX 16 16 0 -2
BITMAP 
3FFC
4002
8901
89F9
8B09
ADE9
AB29
A929
89E9
8D09
9331
9109
A0F9
8001
4002
3FFC
ENDCHAR
STARTCHAR U+1FA66
ENCODING 129638
SWIDTH 1000 0
DWIDTH 16 0
BBX 16 16 0 -2
BITMAP 
3FFC
4002
8061
8F81
8801
8FF9
8841
8841
8841
BFF9
8441
8821
B019
8001
4002
3FFC
ENDCHAR
STARTCHAR U+1FA67
ENCODING 129639
SWIDTH 1000 0
DWIDTH 16 0
BBX 16 16 0 -2
BITMAP 
0000
3FFC
7BBE
6B06
6AAE
6B5E
43AE
7B6E
4006
6B6E
6BAE
6BEE
5B8E
7FFE
3FFC
0000
ENDCHAR
STARTCHAR U+1FA68
ENCODING 129640
SWIDTH 1000 0
DWIDTH 16 0
BBX 16 16 0 -2
BITMAP 
0000
3FFC
7EFE
7EFE
7EFE
7EFE
4006
7EFE
7EFE
7EFE
7EFE
7EFE
600E
7FFE
3FFC
0000
ENDCHAR
STARTCHAR U+1FA69
ENCODING 129641
SWIDTH 1000 0
DWIDTH 16 0
BBX 16 16 0 -2
BITMAP 
0000
3FFC
783E
777E
600E
56EE
700E
7AEE
645E
7B3E
665E
7966
467E
7FFE
3FFC
0000
ENDCHAR
STARTCHAR U+1FA6A
ENCODING 129642
SWIDTH 1000 0
DWIDTH 16 0
BBX 16 16 0 -2
BITMAP 
0000
3FFC
700E
76FE
701E
76FE
701E
76FE
7006
7FF6
6AB6
6D56
5D4E
7FFE
3FFC
0000
ENDCHAR
STARTCHAR U+1FA6B
ENCODING 129643
SWIDTH 1000 0
DWIDTH 16 0
BBX 16 16 0 -2
BITMAP 
0000
3FFC
7EFE
600E
7EFE
701E
76DE
701E
76DE
701E
7EFE
4006
7EFE
7EFE
3FFC
0000
ENDCHAR
STARTCHAR U+1FA6C
ENCODING 129644
SWIDTH 1000 0
DWIDTH 16 0
BBX 16 16 0 -2
BITMAP 
0000
3FFC
7F7E
4106
76F6
75F6
6216
4AD6
6A16
6AEE
62F6
6AF6
7F06
7FFE
3FFC
0000
ENDCHAR
STARTCHAR U+1FA6D
ENCODING 129645
SWIDTH 1000 0
DWIDTH 16 0
BBX 16 16 0 -2
BITMAP 
0000
3FFC
7EFE
600E
7BBE
7BBE
755E
6EEE
7EFE
4006
7EFE
7EFE
7EFE
7FFE
3FFC
0000
ENDCHAR
STARTCHAR U+2059
ENCODING 8281
SWIDTH 1000 0
DWIDTH 16 0
BBX 16 16 0 -2
BITMAP 
0000
0000
0000
1818
1818
0000
0000
0180
0180
0000
0000
1818
1818
0000
0000
0000
ENDCHAR
STARTCHAR U+2070
ENCODING 8304
SWIDTH 1000 0
DWIDTH 16 0
BBX 16 16 0 -2
BITMAP 
0000
0000
0000
0180
0240
0420
0420
0420
0240
0180
0000
0000
0000
0000
0000
0000
ENDCHAR
STARTCHAR U+2071
ENCODING 8305
SWIDTH 1000 0
DWIDTH 16 0
BBX 16 16 0 -2
BITMAP 
0000
0000
0000
0100
0000
0300
0100
0100
0100
07C0
0000
0000
0000
0000
0000
0000
ENDCHAR
STARTCHAR U+2074
ENCODING 8308
SWIDTH 1000 0
DWIDTH 16 0
BBX 16 16 0 -2
BITMAP 
0000
0000
0000
00C0
0140
0240
0440
07E0
0040
0040
0000
0000
0000
0000
0000
0000
ENDCHAR
STARTCHAR U+2075
ENCODING 8309
SWIDTH 1000 0
DWIDTH 16 0
BBX 16 16 0 -2
BITMAP 
0000
0000
0000
07C0
0400
0400
0780
0040
0040
0780
0000
0000
0000
0000
0000
0000
ENDCHAR
STARTCHAR U+2076
ENCODING 8310
SWIDTH 1000 0
DWIDTH 16 0
BBX 16 16 0 -2
BITMAP 
0000
0000
0000
0180
0200
0400
0780
0440
0440
0380
0000
0000
0000
0000
0000
0000
ENDCHAR
STARTCHAR U+2077
ENCODING 8311
SWIDTH 1000 0
DWIDTH 16 0
BBX 16 16 0 -2
BITMAP 
0000
0000
0000
07C0
0040
0080
0080
0100
0100
0100
0000
0000
0000
0000
0000
0000
ENDCHAR
STARTCHAR U+2078
ENCODING 8312
SWIDTH 1000 0
DWIDTH 16 0
BBX 16 16 0 -2
BITMAP 
0000
0000
0000
0380
0440
0440
0380
0440
0440
0380
0000
0000
0000
0000
0000
0000
ENDCHAR
STARTCHAR U+2079
ENCODING 8313
SWIDTH 1000 0
DWIDTH 16 0
BBX 16 16 0 -2
BITMAP 
0000
0000
0000
0380
0440
0440
03C0
0040
0080
0300
0000
0000
0000
0000
0000
0000
ENDCHAR
STARTCHAR U+207A
ENCODING 8314
SWIDTH 1000 0
DWIDTH 16 0
BBX 16 16 0 -2
BITMAP 
0000
0000
0000
0000
0100
0100
07C0
0100
0100
0000
0000
0000
0000
0000
0000
0000
ENDCHAR
STARTCHAR U+207B
ENCODING 8315
SWIDTH 1000 0
DWIDTH 16 0
BBX 16 16 0 -2
BITMAP 
0000
0000
0000
0000
0000
0000
07C0
0000
0000
0000
0000
0000
0000
0000
0000
0000
ENDCHAR
STARTCHAR U+207C
ENCODING 8316
SWIDTH 1000 0
DWIDTH 16 0
BBX 16 16 0 -2
BITMAP 
0000
0000
0000
0000
0000
07C0
0000
0000
07C0
0000
0000
0000
0000
0000
0000
0000
ENDCHAR
STARTCHAR U+207D
ENCODING 8317
SWIDTH 1000 0
DWIDTH 16 0
BBX 16 16 0 -2
BITMAP 
0000
0000
0040
0080
0100
0100
0100
0100
0100
0080
0040
0000
0000
0000
0000
0000
ENDCHAR
STARTCHAR U+207E
ENCODING 8318
SWIDTH 1000 0
DWIDTH 16 0
BBX 16 16 0 -2
BITMAP 
0000
0000
0200
0100
0080
0080
0080
0080
0080
0100
0200
0000
0000
0000
0000
0000
ENDCHAR
STARTCHAR U+207F
ENCODING 8319
SWIDTH 1000 0
DWIDTH 16 0
BBX 16 16 0 -2
BITMAP 
0000
0000
0000
0000
0000
0580
0640
0440
0440
0440
0000
0000
0000
0000
0000
0000
ENDCHAR
STARTCHAR U+2080
ENCODING 8320
SWIDTH 1000 0
DWIDTH 16 0
BBX 16 16 0 -2
BITMAP 
0000
0000
0000
0000
0000
0000
0000
0000
0180
0240
0420
0420
0420
0240
0180
0000
ENDCHAR
STARTCHAR U+2081
ENCODING 8321
SWIDTH 1000 0
DWIDTH 16 0
BBX 16 16 0 -2
BITMAP 
0000
0000
0000
0000
0000
0000
0000
0000
0100
0300
0500
0100
0100
0100
07C0
0000
ENDCHAR
STARTCHAR U+2082
ENCODING 8322
SWIDTH 1000 0
DWIDTH 16 0
BBX 16 16 0 -2
BITMAP 
0000
0000
0000
0000
0000
0000
0000
0000
0380
0440
0040
0180
0200
0400
07C0
0000
ENDCHAR
STARTCHAR U+2083
ENCODING 8323
SWIDTH 1000 0
DWIDTH 16 0
BBX 16 16 0 -2
BITMAP 
0000
0000
0000
0000
0000
0000
0000
0000
0380
0440
0040
0380
0040
0440
0380
0000
ENDCHAR
STARTCHAR U+2084
ENCODING 8324
SWIDTH 1000 0
DWIDTH 16 0
BBX 16 16 0 -2
BITMAP 
0000
0000
0000
0000
0000
0000
0000
0000
00C0
0140
0240
0440
07E0
0040
0040
0000
ENDCHAR
STARTCHAR U+2085
ENCODING 8325
SWIDTH 1000 0
DWIDTH 16 0
BBX 16 16 0 -2
BITMAP 
0000
0000
0000
0000
0000
0000
0000
0000
07C0
0400
0400
0780
0040
0040
0780
0000
ENDCHAR
STARTCHAR U+2086
ENCODING 8326
SWIDTH 1000 0
DWIDTH 16 0
BBX 16 16 0 -2
BITMAP 
0000
0000
0000
0000
0000
0000
0000
0000
0180
0200
0400
0780
0440
0440
0380
0000
ENDCHAR
STARTCHAR U+2087
ENCODING 8327
SWIDTH 1000 0
DWIDTH 16 0
BBX 16 16 0 -2
BITMAP 
0000
0000
0000
0000
0000
0000
0000
0000
07C0
0040
0080
0080
0100
0100
0100
0000
ENDCHAR
STARTCHAR U+2088
ENCODING 8328
SWIDTH 1000 0
DWIDTH 16 0
BBX 16 16 0 -2
BITMAP 
0000
0000
0000
0000
0000
0000
0000
0000
0380
0440
0440
0380
0440
0440
0380
0000
ENDCHAR
STARTCHAR U+2089
ENCODING 8329
SWIDTH 1000 0
DWIDTH 16 0
BBX 16 16 0 -2
BITMAP 
0000
0000
0000
0000
0000
0000
0000
0000
0380
0440
0440
03C0
0040
0080
0300
0000
ENDCHAR
STARTCHAR U+208A
ENCODING 8330
SWIDTH 1000 0
DWIDTH 16 0
BBX 16 16 0 -2
BITMAP 
0000
0000
0000
0000
0000
0000
0000
0000
0000
0000
0100
0100
07C0
0100
0100
0000
ENDCHAR
STARTCHAR U+208B
ENCODING 8331
SWIDTH 1000 0
DWIDTH 16 0
BBX 16 16 0 -2
BITMAP 
0000
0000
0000
0000
0000
0000
0000
0000
0000
0000
0000
0000
07C0
0000
0000
0000
ENDCHAR
STARTCHAR U+208C
ENCODING 8332
SWIDTH 1000 0
DWIDTH 16 0
BBX 16 16 0 -2
BITMAP 
0000
0000
0000
0000
0000
0000
0000
0000
0000
0000
0000
07C0
0000
0000
07C0
0000
ENDCHAR
STARTCHAR U+208D
ENCODING 8333
SWIDTH 1000 0
DWIDTH 16 0
BBX 16 16 0 -2
BITMAP 
0000
0000
0000
0000
0000
0000
0000
0040
0080
0100
0100
0100
0100
0100
0080
0040
ENDCHAR
STARTCHAR U+208E
ENCODING 8334
SWIDTH 1000 0
DWIDTH 16 0
BBX 16 16 0 -2
BITMAP 
0000
0000
0000
0000
0000
0000
0000
0200
0100
0080
0080
0080
0080
0080
0100
0200
ENDCHAR
STARTCHAR U+2090
ENCODING 8336
SWIDTH 1000 0
DWIDTH 16 0
BBX 16 16 0 -2
BITMAP 
0000
0000
0000
0000
0000
0000
0000
0000
0000
0000
0380
0040
03C0
0440
03C0
0000
ENDCHAR
STARTCHAR U+2091
ENCODING 8337
SWIDTH 1000 0
DWIDTH 16 0
BBX 16 16 0 -2
BITMAP 
0000
0000
0000
0000
0000
0000
0000
0000
0000
0000
0380
0440
07C0
0400
03C0
0000
ENDCHAR
STARTCHAR U+2092
ENCODING 8338
SWIDTH 1000 0
DWIDTH 16 0
BBX 16 16 0 -2
BITMAP 
0000
0000
0000
0000
0000
0000
0000
0000
0000
0000
0380
0440
0440
0440
0380
0000
ENDCHAR
STARTCHAR U+2093
ENCODING 8339
SWIDTH 1000 0
DWIDTH 16 0
BBX 16 16 0 -2
BITMAP 
0000
0000
0000
0000
0000
0000
0000
0000
0000
0000
0440
0280
0100
0280
0440
0000
ENDCHAR
STARTCHAR U+2094
ENCODING 8340
SWIDTH 1000 0
DWIDTH 16 0
BBX 16 16 0 -2
BITMAP 
0000
0000
0000
0000
0000
0000
0000
0000
0000
0000
0780
0040
07C0
0440
0380
0000
ENDCHAR
STARTCHAR U+2095
ENCODING 8341
SWIDTH 1000 0
DWIDTH 16 0
BBX 16 16 0 -2
BITMAP 
0000
0000
0000
0000
0000
0000
0000
0000
0400
0400
0580
0640
0440
0440
0440
0000
ENDCHAR
STARTCHAR U+2096
ENCODING 8342
SWIDTH 1000 0
DWIDTH 16 0
BBX 16 16 0 -2
BITMAP 
0000
0000
0000
0000
0000
0000
0000
0000
0200
0200
0240
0280
0300
0280
0240
0000
ENDCHAR
STARTCHAR U+2097
ENCODING 8343
SWIDTH 1000 0
DWIDTH 16 0
BBX 16 16 0 -2
BITMAP 
0000
0000
0000
0000
0000
0000
0000
0000
0300
0100
0100
0100
0100
0100
07C0
0000
ENDCHAR
STARTCHAR U+2098
ENCODING 8344
SWIDTH 1000 0
DWIDTH 16 0
BBX 16 16 0 -2
BITMAP 
0000
0000
0000
0000
0000
0000
0000
0000
0000
0000
0760
0490
0490
0490
0490
0000
ENDCHAR
STARTCHAR U+2099
ENCODING 8345
SWIDTH 1000 0
DWIDTH 16 0
BBX 16 16 0 -2
BITMAP 
0000
0000
0000
0000
0000
0000
0000
0000
0000
0000
0580
0640
0440
0440
0440
0000
ENDCHAR
STARTCHAR U+209A
ENCODING 8346
SWIDTH 1000 0
DWIDTH 16 0
BBX 16 16 0 -2
BITMAP 
0000
0000
0000
0000
0000
0000
0000
0000
0000
0000
0580
0640
0640
0580
0400
0400
ENDCHAR
STARTCHAR U+209B
ENCODING 8347
SWIDTH 1000 0
DWIDTH 16 0
BBX 16 16 0 -2
BITMAP 
0000
0000
0000
0000
0000
0000
0000
0000
0000
0000
03C0
0400
0380
0040
0780
0000
ENDCHAR
STARTCHAR U+209C
ENCODING 8348
SWIDTH 1000 0
DWIDTH 16 0
BBX 16 16 0 -2
BITMAP 
0000
0000
0000
0000
0000
0000
0000
0000
0100
0100
07C0
0100
0100
0100
00C0
0000
ENDCHAR
STARTCHAR U+20DB
ENCODING 8411
SWIDTH 1000 0
DWIDTH 16 0
BBX 16 16 0 -2
BITMAP 
0000
0000
0000
1998
1998
0000
0000
0000
0000
0000
0000
0000
0000
0000
0000
0000
ENDCHAR
STARTCHAR U+20DD
ENCODING 8413
SWIDTH 1000 0
DWIDTH 16 0
BBX 16 16 0 -2
BITMAP 
07E0
1818
2004
4002
4002
8001
8001
8001
8001
8001
8001
4002
4002
2004
1818
07E0
ENDCHAR
STARTCHAR U+20DE
ENCODING 8414
SWIDTH 1000 0
DWIDTH 16 0
BBX 16 16 0 -2
BITMAP 
FFFF
8001
8001
8001
8001
8001
8001
8001
8001
8001
8001
8001
8001
8001
8001
FFFF
ENDCHAR
STARTCHAR U+20DF
ENCODING 8415
SWIDTH 1000 0
DWIDTH 16 0
BBX 16 16 0 -2
BITMAP 
0180
0240
0420
0810
1008
2004
4002
8001
8001
4002
2004
1008
0810
0420
0240
0180
ENDCHAR
STARTCHAR U+20E4
ENCODING 8420
SWIDTH 1000 0
DWIDTH 16 0
BBX 16 16 0 -2
BITMAP 
0180
0240
0240
0420
0420
0810
0810
1008
1008
2004
4002
4002
8001
8001
8001
FFFF
ENDCHAR
STARTCHAR U+20E8
ENCODING 8424
SWIDTH 1000 0
DWIDTH 16 0
BBX 16 16 0 -2
BITMAP 
0000
0000
0000
0000
0000
0000
0000
0000
0000
0000
0000
1998
1998
0000
0000
0000
ENDCHAR
STARTCHAR U+22EF
ENCODING 8943
SWIDTH 1000 0
DWIDTH 16 0
BBX 16 16 0 -2
BITMAP 
0000
0000
0000
0000
0000
0000
0000
1998
1998
0000
0000
0000
0000
0000
0000
0000
ENDCHAR
STARTCHAR U+22F0
ENCODING 8944
SWIDTH 1000 0
DWIDTH 16 0
BBX 16 16 0 -2
BITMAP 
0000
0000
0000
0018
0018
0000
0000
0180
0180
0000
0000
1800
1800
0000
0000
0000
ENDCHAR
STARTCHAR U+22F1
ENCODING 8945
SWIDTH 1000 0
DWIDTH 16 0
BBX 16 16 0 -2
BITMAP 
0000
0000
0000
1800
1800
0000
0000
0180
0180
0000
0000
0018
0018
0000
0000
0000
ENDCHAR
STARTCHAR U+2460
ENCODING 9312
SWIDTH 1000 0
DWIDTH 16 0
BBX 16 16 0 -2
BITMAP 
07E0
1818
2004
4082
4182
8281
8081
8081
8081
8081
8081
4082
43E2
2004
1818
07E0
ENDCHAR
STARTCHAR U+2461
ENCODING 9313
SWIDTH 1000 0
DWIDTH 16 0
BBX 16 16 0 -2
BITMAP 
07E0
1818
2004
43C2
4422
8421
8021
80C1
8101
8201
8401
4402
47E2
2004
1818
07E0
ENDCHAR
STARTCHAR U+2462
ENCODING 9314
SWIDTH 1000 0
DWIDTH 16 0
BBX 16 16 0 -2
BITMAP 
07E0
1818
2004
43C2
4422
8421
8021
81C1
8021
8021
8421
4422
43C2
2004
1818
07E0
ENDCHAR
STARTCHAR U+2463
ENCODING 9315
SWIDTH 1000 0
DWIDTH 16 0
BBX 16 16 0 -2
BITMAP 
07E0
1818
2004
4042
40C2
8141
8241
8441
8441
87E1
8041
4042
4042
2004
1818
07E0
ENDCHAR
STARTCHAR U+2464
ENCODING 9316
SWIDTH 1000 0
DWIDTH 16 0
BBX 16 16 0 -2
BITMAP 
07E0
1818
2004
47E2
4402
8401
8401
87C1
8021
8021
8021
4422
43C2
2004
1818
07E0
ENDCHAR
STARTCHAR U+2465
ENCODING 9317
SWIDTH 1000 0
DWIDTH 16 0
BBX 16 16 0 -2
BITMAP 
07E0
1818
2004
41C2
4202
8401
8401
87C1
8421
8421
8421
4422
43C2
2004
1818
07E0
ENDCHAR
STARTCHAR U+2466
ENCODING 9318
SWIDTH 1000 0
DWIDTH 16 0
BBX 16 16 0 -2
BITMAP 
07E0
1818
2004
47E2
4022
8021
8041
8041
8041
8081
8081
4082
4082
2004
1818
07E0
ENDCHAR
STARTCHAR U+2467
ENCODING 9319
SWIDTH 1000 0
DWIDTH 16 0
BBX 16 16 0 -2
BITMAP 
07E0
1818
2004
43C2
4422
8421
8421
83C1
8421
8421
8421
4422
43C2
2004
1818
07E0
ENDCHAR
STARTCHAR U+2468
ENCODING 9320
SWIDTH 1000 0
DWIDTH 16 0
BBX 16 16 0 -2
BITMAP 
07E0
1818
2004
43C2
4422
8421
8421
83E1
8021
8021
8021
4042
4382
2004
1818
07E0
ENDCHAR
STARTCHAR U+2469
ENCODING 9321
SWIDTH 1000 0
DWIDTH 16 0
BBX 16 16 0 -2
BITMAP 
07E0
1818
2004
4432
4C4A
9485
848D
8495
84A5
84C5
8485
444A
5F32
2004
1818
07E0
ENDCHAR
STARTCHAR U+24B6
ENCODING 9398
SWIDTH 1000 0
DWIDTH 16 0
BBX 16 16 0 -2
BITMAP 
07E0
1818
2004
4182
4242
8241
8421
8421
87E1
8421
8421
4422
4422
2004
1818
07E0
ENDCHAR
STARTCHAR U+24B7
ENCODING 9399
SWIDTH 1000 0
DWIDTH 16 0
BBX 16 16 0 -2
BITMAP 
07E0
1818
2004
47C2
4422
8421
8421
87C1
8421
8421
8421
4422
47C2
2004
1818
07E0
ENDCHAR
STARTCHAR U+24B8
ENCODING 9400
SWIDTH 1000 0
DWIDTH 16 0
BBX 16 16 0 -2
BITMAP 
07E0
1818
2004
43C2
4422
8421
8401
8401
8401
8401
8421
4422
43C2
2004
1818
07E0
ENDCHAR
STARTCHAR U+24B9
ENCODING 9401
SWIDTH 1000 0
DWIDTH 16 0
BBX 16 16 0 -2
BITMAP 
07E0
1818
2004
4782
4442
8421
8421
8421
8421
8421
8421
4442
4782
2004
1818
07E0
ENDCHAR
STARTCHAR U+24BA
ENCODING 9402
SWIDTH 1000 0
DWIDTH 16 0
BBX 16 16 0 -2
BITMAP 
07E0
1818
2004
47E2
4402
8401
8401
87C1
8401
8401
8401
4402
47E2
2004
1818
07E0
ENDCHAR
STARTCHAR U+24BB
ENCODING 9403
SWIDTH 1000 0
DWIDTH 16 0
BBX 16 16 0 -2
BITMAP 
07E0
1818
2004
47E2
4402
8401
8401
87C1
8401
8401
8401
4402
4402
2004
1818
07E0
ENDCHAR
STARTCHAR U+24BC
ENCODING 9404
SWIDTH 1000 0
DWIDTH 16 0
BBX 16 16 0 -2
BITMAP 
07E0
1818
2004
43C2
4422
8421
8401
8401
84E1
8421
8421
4462
43A2
2004
1818
07E0
ENDCHAR
STARTCHAR U+24BD
ENCODING 9405
SWIDTH 1000 0
DWIDTH 16 0
BBX 16 16 0 -2
BITMAP 
07E0
1818
2004
4422
4422
8421
8421
87E1
8421
8421
8421
4422
4422
2004
1818
07E0
ENDCHAR
STARTCHAR U+24BE
ENCODING 9406
SWIDTH 1000 0
DWIDTH 16 0
BBX 16 16 0 -2
BITMAP 
07E0
1818
2004
43E2
4082
8081
8081
8081
8081
8081
8081
4082
43E2
2004
1818
07E0
ENDCHAR
STARTCHAR U+24BF
ENCODING 9407
SWIDTH 1000 0
DWIDTH 16 0
BBX 16 16 0 -2
BITMAP 
07E0
1818
2004
41F2
4042
8041
8041
8041
8041
8041
8441
4442
4382
2004
1818
07E0
ENDCHAR
STARTCHAR U+24C0
ENCODING 9408
SWIDTH 1000 0
DWIDTH 16 0
BBX 16 16 0 -2
BITMAP 
07E0
1818
2004
4422
4442
8481
8501
8601
8601
8501
8481
4442
4422
2004
1818
07E0
ENDCHAR
STARTCHAR U+24C1
ENCODING 9409
SWIDTH 1000 0
DWIDTH 16 0
BBX 16 16 0 -2
BITMAP 
07E0
1818
2004
4402
4402
8401
8401
8401
8401
8401
8401
4402
47E2
2004
1818
07E0
ENDCHAR
STARTCHAR U+24C2
ENCODING 9410
SWIDTH 1000 0
DWIDTH 16 0
BBX 16 16 0 -2
BITMAP 
07E0
1818
2004
4422
4422
8661
8661
85A1
85A1
8421
8421
4422
4422
2004
1818
07E0
ENDCHAR
STARTCHAR U+24C3
ENCODING 9411
SWIDTH 1000 0
DWIDTH 16 0
BBX 16 16 0 -2
BITMAP 
07E0
1818
2004
4422
4622
8621
8521
8521
84A1
84A1
8461
4462
4422
2004
1818
07E0
ENDCHAR
STARTCHAR U+24C4
ENCODING 9412
SWIDTH 1000 0
DWIDTH 16 0
BBX 16 16 0 -2
BITMAP 
07E0
1818
2004
43C2
4422
8421
8421
8421
8421
8421
8421
4422
43C2
2004
1818
07E0
ENDCHAR
STARTCHAR U+24C5
ENCODING 9413
SWIDTH 1000 0
DWIDTH 16 0
BBX 16 16 0 -2
BITMAP 
07E0
1818
2004
47C2
4422
8421
8421
87C1
8401
8401
8401
4402
4402
2004
1818
07E0
ENDCHAR
STARTCHAR U+24C6
ENCODING 9414
SWIDTH 1000 0
DWIDTH 16 0
BBX 16 16 0 -2
BITMAP 
07E0
1818
2004
43C2
4422
8421
8421
8421
8421
8421
85A1
4662
43C2
2034
1818
07E0
ENDCHAR
STARTCHAR U+24C7
ENCODING 9415
SWIDTH 1000 0
DWIDTH 16 0
BBX 16 16 0 -2
BITMAP 
07E0
1818
2004
47C2
4422
8421
8421
87C1
8481
8441
8441
4422
4422
2004
1818
07E0
ENDCHAR
STARTCHAR U+24C8
ENCODING 9416
SWIDTH 1000 0
DWIDTH 16 0
BBX 16 16 0 -2
BITMAP 
07E0
1818
2004
43C2
4422
8421
8401
8301
80C1
8021
8421
4422
43C2
2004
1818
07E0
ENDCHAR
STARTCHAR U+24C9
ENCODING 9417
SWIDTH 1000 0
DWIDTH 16 0
BBX 16 16 0 -2
BITMAP 
07E0
1818
2004
47F2
4082
8081
8081
8081
8081
8081
8081
4082
4082
2004
1818
07E0
ENDCHAR
STARTCHAR U+24CA
ENCODING 9418
SWIDTH 1000 0
DWIDTH 16 0
BBX 16 16 0 -2
BITMAP 
07E0
1818
2004
4422
4422
8421
8421
8421
8421
8421
8421
4422
43C2
2004
1818
07E0
ENDCHAR
STARTCHAR U+24CB
ENCODING 9419
SWIDTH 1000 0
DWIDTH 16 0
BBX 16 16 0 -2
BITMAP 
07E0
1818
2004
4412
4412
8411
8221
8221
8221
8141
8141
4082
4082
2004
1818
07E0
ENDCHAR
STARTCHAR U+24CC
ENCODING 9420
SWIDTH 1000 0
DWIDTH 16 0
BBX 16 16 0 -2
BITMAP 
07E0
1818
2004
4422
4422
8421
8421
85A1
85A1
8661
8661
4422
4422
2004
1818
07E0
ENDCHAR
STARTCHAR U+24CD
ENCODING 9421
SWIDTH 1000 0
DWIDTH 16 0
BBX 16 16 0 -2
BITMAP 
07E0
1818
2004
4422
4422
8241
8241
8181
8181
8241
8241
4422
4422
2004
1818
07E0
ENDCHAR
STARTCHAR U+24CE
ENCODING 9422
SWIDTH 1000 0
DWIDTH 16 0
BBX 16 16 0 -2
BITMAP 
07E0
1818
2004
4412
4412
8221
8221
8141
8081
8081
8081
4082
4082
2004
1818
07E0
ENDCHAR
STARTCHAR U+24CF
ENCODING 9423
SWIDTH 1000 0
DWIDTH 16 0
BBX 16 16 0 -2
BITMAP 
07E0
1818
2004
47E2
4022
8021
8041
8081
8101
8201
8401
4402
47E2
2004
1818
07E0
ENDCHAR
STARTCHAR U+24D0
ENCODING 9424
SWIDTH 1000 0
DWIDTH 16 0
BBX 16 16 0 -2
BITMAP 
07E0
1818
2004
4002
4002
83C1
8421
8021
83E1
8421
8421
4462
43A2
2004
1818
07E0
ENDCHAR
STARTCHAR U+24D1
ENCODING 9425
SWIDTH 1000 0
DWIDTH 16 0
BBX 16 16 0 -2
BITMAP 
07E0
1818
2404
4402
4402
85C1
8621
8421
8421
8421
8421
4622
45C2
2004
1818
07E0
ENDCHAR
STARTCHAR U+24D2
ENCODING 9426
SWIDTH 1000 0
DWIDTH 16 0
BBX 16 16 0 -2
BITMAP 
07E0
1818
2004
4002
4002
83C1
8421
8401
8401
8401
8401
4422
43C2
2004
1818
07E0
ENDCHAR
STARTCHAR U+24D3
ENCODING 9427
SWIDTH 1000 0
DWIDTH 16 0
BBX 16 16 0 -2
BITMAP 
07E0
1818
2024
4022
4022
83A1
8461
8421
8421
8421
8421
4462
43A2
2004
1818
07E0
ENDCHAR
STARTCHAR U+24D4
ENCODING 9428
SWIDTH 1000 0
DWIDTH 16 0
BBX 16 16 0 -2
BITMAP 
07E0
1818
2004
4002
4002
83C1
8421
8421
87E1
8401
8401
4422
43C2
2004
1818
07E0
ENDCHAR
STARTCHAR U+24D5
ENCODING 9429
SWIDTH 1000 0
DWIDTH 16 0
BBX 16 16 0 -2
BITMAP 
07E0
1818
20C4
4102
4102
8101
87C1
8101
8101
8101
8101
4102
4102
2004
1818
07E0
ENDCHAR
STARTCHAR U+24D6
ENCODING 9430
SWIDTH 1000 0
DWIDTH 16 0
BBX 16 16 0 -2
BITMAP 
07E0
1818
2004
4022
43A2
8441
8441
8441
8381
8201
83C1
4422
4422
23C4
1818
07E0
ENDCHAR
STARTCHAR U+24D7
ENCODING 9431
SWIDTH 1000 0
DWIDTH 16 0
BBX 16 16 0 -2
BITMAP 
07E0
1818
2404
4402
4402
85C1
8621
8421
8421
8421
8421
4422
4422
2004
1818
07E0
ENDCHAR
STARTCHAR U+24D8
ENCODING 9432
SWIDTH 1000 0
DWIDTH 16 0
BBX 16 16 0 -2
BITMAP 
07E0
1818
2084
4082
4002
8181
8081
8081
8081
8081
8081
4082
43E2
2004
1818
07E0
ENDCHAR
STARTCHAR U+24D9
ENCODING 9433
SWIDTH 1000 0
DWIDTH 16 0
BBX 16 16 0 -2
BITMAP 
07E0
1818
2044
4042
4002
80C1
8041
8041
8041
8041
8041
4042
4042
2484
1B18
07E0
ENDCHAR
STARTCHAR U+24DA
ENCODING 9434
SWIDTH 1000 0
DWIDTH 16 0
BBX 16 16 0 -2
BITMAP 
07E0
1818
2404
4402
4402
8441
8481
8501
8601
8501
8481
4442
4422
2004
1818
07E0
ENDCHAR
STARTCHAR U+24DB
ENCODING 9435
SWIDTH 1000 0
DWIDTH 16 0
BBX 16 16 0 -2
BITMAP 
07E0
1818
2184
4082
4082
8081
8081
8081
8081
8081
8081
4082
43E2
2004
1818
07E0
ENDCHAR
STARTCHAR U+24DC
ENCODING 9436
SWIDTH 1000 0
DWIDTH 16 0
BBX 16 16 0 -2
BITMAP 
07E0
1818
2004
4002
4002
8761
8491
8491
8491
8491
8491
4492
4492
2004
1818
07E0
ENDCHAR
STARTCHAR U+24DD
ENCODING 9437
SWIDTH 1000 0
DWIDTH 16 0
BBX 16 16 0 -2
BITMAP 
07E0
1818
2004
4002
4002
85C1
8621
8421
8421
8421
8421
4422
4422
2004
1818
07E0
ENDCHAR
STARTCHAR U+24DE
ENCODING 9438
SWIDTH 1000 0
DWIDTH 16 0
BBX 16 16 0 -2
BITMAP 
07E0
1818
2004
4002
4002
83C1
8421
8421
8421
8421
8421
4422
43C2
2004
1818
07E0
ENDCHAR
STARTCHAR U+24DF
ENCODING 9439
SWIDTH 1000 0
DWIDTH 16 0
BBX 16 16 0 -2
BITMAP 
07E0
1818
2004
4002
45C2
8621
8421
8421
8421
8421
8621
45C2
4402
2404
1818
07E0
ENDCHAR
STARTCHAR U+24E0
ENCODING 9440
SWIDTH 1000 0
DWIDTH 16 0
BBX 16 16 0 -2
BITMAP 
07E0
1818
2004
4002
43A2
8461
8421
8421
8421
8421
8461
43A2
4022
2024
1818
07E0
ENDCHAR
STARTCHAR U+24E1
ENCODING 9441
SWIDTH 1000 0
DWIDTH 16 0
BBX 16 16 0 -2
BITMAP 
07E0
1818
2004
4002
4002
85C1
8621
8421
8401
8401
8401
4402
4402
2004
1818
07E0
ENDCHAR
STARTCHAR U+24E2
ENCODING 9442
SWIDTH 1000 0
DWIDTH 16 0
BBX 16 16 0 -2
BITMAP 
07E0
1818
2004
4002
4002
83C1
8421
8401
8301
80C1
8021
4422
43C2
2004
1818
07E0
ENDCHAR
STARTCHAR U+24E3
ENCODING 9443
SWIDTH 1000 0
DWIDTH 16 0
BBX 16 16 0 -2
BITMAP 
07E0
1818
2004
4102
4102
8101
87C1
8101
8101
8101
8101
4102
40C2
2004
1818
07E0
ENDCHAR
STARTCHAR U+24E4
ENCODING 9444
SWIDTH 1000 0
DWIDTH 16 0
BBX 16 16 0 -2
BITMAP 
07E0
1818
2004
4002
4002
8421
8421
8421
8421
8421
8421
4462
43A2
2004
1818
07E0
ENDCHAR
STARTCHAR U+24E5
ENCODING 9445
SWIDTH 1000 0
DWIDTH 16 0
BBX 16 16 0 -2
BITMAP 
07E0
1818
2004
4002
4002
8421
8421
8421
8241
8241
8241
4182
4182
2004
1818
07E0
ENDCHAR
STARTCHAR U+24E6
ENCODING 9446
SWIDTH 1000 0
DWIDTH 16 0
BBX 16 16 0 -2
BITMAP 
07E0
1818
2004
4002
4002
8411
8491
8491
8491
8491
8491
4492
4362
2004
1818
07E0
ENDCHAR
STARTCHAR U+24E7
ENCODING 9447
SWIDTH 1000 0
DWIDTH 16 0
BBX 16 16 0 -2
BITMAP 
07E0
1818
2004
4002
4002
8421
8421
8241
8181
8181
8241
4422
4422
2004
1818
07E0
ENDCHAR
STARTCHAR U+24E8
ENCODING 9448
SWIDTH 1000 0
DWIDTH 16 0
BBX 16 16 0 -2
BITMAP 
07E0
1818
2004
4002
4422
8421
8421
8421
8421
8261
81A1
4022
4022
23C4
1818
07E0
ENDCHAR
STARTCHAR U+24E9
ENCODING 9449
SWIDTH 1000 0
DWIDTH 16 0
BBX 16 16 0 -2
BITMAP 
07E0
1818
2004
4002
4002
87E1
8021
8041
8081
8101
8201
4402
47E2
2004
1818
07E0
ENDCHAR
STARTCHAR U+24EA
ENCODING 9450
SWIDTH 1000 0
DWIDTH 16 0
BBX 16 16 0 -2
BITMAP 
07E0
1818
2004
4182
4242
8421
8461
84A1
8521
8621
8421
4242
4182
2004
1818
07E0
ENDCHAR
STARTCHAR U+24FF
ENCODING 9471
SWIDTH 1000 0
DWIDTH 16 0
BBX 16 16 0 -2
BITMAP 
07E0
1FF8
3FFC
7E7E
7DBE
FBDF
FB9F
FB5F
FADF
F9DF
FBDF
7DBE
7E7E
3FFC
1FF8
07E0
ENDCHAR
STARTCHAR U+2500
ENCODING 9472
SWIDTH 1000 0
DWIDTH 16 0
BBX 16 16 0 -2
BITMAP 
0000
0000
0000
0000
0000
0000
0000
FFFF
FFFF
0000
0000
0000
0000
0000
0000
0000
ENDCHAR
STARTCHAR U+2501
ENCODING 9473
SWIDTH 1000 0
DWIDTH 16 0
BBX 16 16 0 -2
BITMAP 
0000
0000
0000
0000
0000
0000
FFFF
FFFF
FFFF
FFFF
0000
0000
0000
0000
0000
0000
ENDCHAR
STARTCHAR U+2502
ENCODING 9474
SWIDTH 1000 0
DWIDTH 16 0
BBX 16 16 0 -2
BITMAP 
0180
0180
0180
0180
0180
0180
0180
0180
0180
0180
0180
0180
0180
0180
0180
0180
ENDCHAR
STARTCHAR U+2503
ENCODING 9475
SWIDTH 1000 0
DWIDTH 16 0
BBX 16 16 0 -2
BITMAP 
03C0
03C0
03C0
03C0
03C0
03C0
03C0
03C0
03C0
03C0
03C0
03C0
03C0
03C0
03C0
03C0
ENDCHAR
STARTCHAR U+2504
ENCODING 9476
SWIDTH 1000 0
DWIDTH 16 0
BBX 16 16 0 -2
BITMAP 
0000
0000
0000
0000
0000
0000
0000
0000
73CE
73CE
0000
0000
0000
0000
0000
0000
ENDCHAR
STARTCHAR U+2505
ENCODING 9477
SWIDTH 1000 0
DWIDTH 16 0
BBX 16 16 0 -2
BITMAP 
0000
0000
0000
0000
0000
0000
0000
73CE
73CE
73CE
73CE
0000
0000
0000
0000
0000
ENDCHAR
STARTCHAR U+2506
ENCODING 9478
SWIDTH 1000 0
DWIDTH 16 0
BBX 16 16 0 -2
BITMAP 
0000
0300
0300
0300
0000
0000
0300
0300
0300
0300
0000
0000
0300
0300
0300
0000
ENDCHAR
STARTCHAR U+2507
ENCODING 9479
SWIDTH 1000 0
DWIDTH 16 0
BBX 16 16 0 -2
BITMAP 
0000
0780
0780
0780
0000
0000
0780
0780
0780
0780
0000
0000
0780
0780
0780
0000
ENDCHAR
STARTCHAR U+2508
ENCODING 9480
SWIDTH 1000 0
DWIDTH 16 0
BBX 16 16 0 -2
BITMAP 
0000
0000
0000
0000
0000
0000
0000
0000
6666
6666
0000
0000
0000
0000
0000
0000
ENDCHAR
STARTCHAR U+2509
ENCODING 9481
SWIDTH 1000 0
DWIDTH 16 0
BBX 16 16 0 -2
BITMAP 
0000
0000
0000
0000
0000
0000
0000
6666
6666
6666
6666
0000
0000
0000
0000
0000
ENDCHAR
STARTCHAR U+250A
ENCODING 9482
SWIDTH 1000 0
DWIDTH 16 0
BBX 16 16 0 -2
BITMAP 
0000
0300
0300
0000
0000
0300
0300
0000
0000
0300
0300
0000
0000
0300
0300
0000
ENDCHAR
STARTCHAR U+250B
ENCODING 9483
SWIDTH 1000 0
DWIDTH 16 0
BBX 16 16 0 -2
BITMAP 
0000
0780
0780
0000
0000
0780
0780
0000
0000
0780
0780
0000
0000
0780
0780
0000
ENDCHAR
STARTCHAR U+250C
ENCODING 9484
SWIDTH 1000 0
DWIDTH 16 0
BBX 16 16 0 -2
BITMAP 
0000
0000
0000
0000
0000
0000
0000
01FF
01FF
0180
0180
0180
0180
0180
0180
0180
ENDCHAR
STARTCHAR U+250D
ENCODING 9485
SWIDTH 1000 0
DWIDTH 16 0
BBX 16 16 0 -2
BITMAP 
0000
0000
0000
0000
0000
0000
01FF
01FF
01FF
01FF
0180
0180
0180
0180
0180
0180
ENDCHAR
STARTCHAR U+250E
ENCODING 9486
SWIDTH 1000 0
DWIDTH 16 0
BBX 16 16 0 -2
BITMAP 
0000
0000
0000
0000
0000
0000
0000
03FF
03FF
03C0
03C0
03C0
03C0
03C0
03C0
03C0
ENDCHAR
STARTCHAR U+250F
ENCODING 9487
SWIDTH 1000 0
DWIDTH 16 0
BBX 16 16 0 -2
BITMAP 
0000
0000
0000
0000
0000
0000
03FF
03FF
03FF
03FF
03C0
03C0
03C0
03C0
03C0
03C0
ENDCHAR
STARTCHAR U+2510
ENCODING 9488
SWIDTH 1000 0
DWIDTH 16 0
BBX 16 16 0 -2
BITMAP 
0000
0000
0000
0000
0000
0000
0000
FF80
FF80
0180
0180
0180
0180
0180
0180
0180
ENDCHAR
STARTCHAR U+2511
ENCODING 9489
SWIDTH 1000 0
DWIDTH 16 0
BBX 16 16 0 -2
BITMAP 
0000
0000
0000
0000
0000
0000
FF80
FF80
FF80
FF80
0180
0180
0180
0180
0180
0180
ENDCHAR
STARTCHAR U+2512
ENCODING 9490
SWIDTH 1000 0
DWIDTH 16 0
BBX 16 16 0 -2
BITMAP 
0000
0000
0000
0000
0000
0000
0000
FFC0
FFC0
03C0
03C0
03C0
03C0
03C0
03C0
03C0
ENDCHAR
STARTCHAR U+2513
ENCODING 9491
SWIDTH 1000 0
DWIDTH 16 0
BBX 16 16 0 -2
BITMAP 
0000
0000
0000
0000
0000
0000
FFC0
FFC0
FFC0
FFC0
03C0
03C0
03C0
03C0
03C0
03C0
ENDCHAR
STARTCHAR U+2514
ENCODING 9492
SWIDTH 1000 0
DWIDTH 16 0
BBX 16 16 0 -2
BITMAP 
0180
0180
0180
0180
0180
0180
0180
01FF
01FF
0000
0000
0000
0000
0000
0000
0000
ENDCHAR
STARTCHAR U+2515
ENCODING 9493
SWIDTH 1000 0
DWIDTH 16 0
BBX 16 16 0 -2
BITMAP 
0180
0180
0180
0180
0180
0180
01FF
01FF
01FF
01FF
0000
0000
0000
0000
0000
0000
ENDCHAR
STARTCHAR U+2516
ENCODING 9494
SWIDTH 1000 0
DWIDTH 16 0
BBX 16 16 0 -2
BITMAP 
03C0
03C0
03C0
03C0
03C0
03C0
03C0
03FF
03FF
0000
0000
0000
0000
0000
0000
0000
ENDCHAR
STARTCHAR U+2517
ENCODING 9495
SWIDTH 1000 0
DWIDTH 16 0
BBX 16 16 0 -2
BITMAP 
03C0
03C0
03C0
03C0
03C0
03C0
03FF
03FF
03FF
03FF
0000
0000
0000
0000
0000
0000
ENDCHAR
STARTCHAR U+2518
ENCODING 9496
SWIDTH 1000 0
DWIDTH 16 0
BBX 16 16 0 -2
BITMAP 
0180
0180
0180
0180
0180
0180
0180
FF80
FF80
0000
0000
0000
0000
0000
0000
0000
ENDCHAR
STARTCHAR U+2519
ENCODING 9497
SWIDTH 1000 0
DWIDTH 16 0
BBX 16 16 0 -2
BITMAP 
0180
0180
0180
0180
0180
0180
FF80
FF80
FF80
FF80
0000
0000
0000
0000
0000
0000
ENDCHAR
STARTCHAR U+251A
ENCODING 9498
SWIDTH 1000 0
DWIDTH 16 0
BBX 16 16 0 -2
BITMAP 
03C0
03C0
03C0
03C0
03C0
03C0
03C0
FFC0
FFC0
0000
0000
0000
0000
0000
0000
0000
ENDCHAR
STARTCHAR U+251B
ENCODING 9499
SWIDTH 1000 0
DWIDTH 16 0
BBX 16 16 0 -2
BITMAP 
03C0
03C0
03C0
03C0
03C0
03C0
FFC0
FFC0
FFC0
FFC0
0000
0000
0000
0000
0000
0000
ENDCHAR
STARTCHAR U+251C
ENCODING 9500
SWIDTH 1000 0
DWIDTH 16 0
BBX 16 16 0 -2
BITMAP 
0180
0180
0180
0180
0180
0180
0180
01FF
01FF
0180
0180
0180
0180
0180
0180
0180
ENDCHAR
STARTCHAR U+251D
ENCODING 9501
SWIDTH 1000 0
DWIDTH 16 0
BBX 16 16 0 -2
BITMAP 
0180
0180
0180
0180
0180
0180
01FF
01FF
01FF
01FF
0180
0180
0180
0180
0180
0180
ENDCHAR
STARTCHAR U+251E
ENCODING 9502
SWIDTH 1000 0
DWIDTH 16 0
BBX 16 16 0 -2
BITMAP 
03C0
03C0
03C0
03C0
03C0
03C0
03C0
03FF
03FF
0180
0180
0180
0180
0180
0180
0180
ENDCHAR
STARTCHAR U+251F
ENCODING 9503
SWIDTH 1000 0
DWIDTH 16 0
BBX 16 16 0 -2
BITMAP 
0180
0180
0180
0180
0180
0180
0180
03FF
03FF
03C0
03C0
03C0
03C0
03C0
03C0
03C0
ENDCHAR
STARTCHAR U+2520
ENCODING 9504
SWIDTH 1000 0
DWIDTH 16 0
BBX 16 16 0 -2
BITMAP 
03C0
03C0
03C0
03C0
03C0
03C0
03C0
03FF
03FF
03C0
03C0
03C0
03C0
03C0
03C0
03C0
ENDCHAR
STARTCHAR U+2521
ENCODING 9505
SWIDTH 1000 0
DWIDTH 16 0
BBX 16 16 0 -2
BITMAP 
03C0
03C0
03C0
03C0
03C0
03C0
03FF
03FF
03FF
03FF
0180
0180
0180
0180
0180
0180
ENDCHAR
STARTCHAR U+2522
ENCODING 9506
SWIDTH 1000 0
DWIDTH 16 0
BBX 16 16 0 -2
BITMAP 
0180
0180
0180
0180
0180
0180
03FF
03FF
03FF
03FF
03C0
03C0
03C0
03C0
03C0
03C0
ENDCHAR
STARTCHAR U+2523
ENCODING 9507
SWIDTH 1000 0
DWIDTH 16 0
BBX 16 16 0 -2
BITMAP 
03C0
03C0
03C0
03C0
03C0
03C0
03FF
03FF
03FF
03FF
03C0
03C0
03C0
03C0
03C0
03C0
ENDCHAR
STARTCHAR U+2524
ENCODING 9508
SWIDTH 1000 0
DWIDTH 16 0
BBX 16 16 0 -2
BITMAP 
0180
0180
0180
0180
0180
0180
0180
FF80
FF80
0180
0180
0180
0180
0180
0180
0180
ENDCHAR
STARTCHAR U+2525
ENCODING 9509
SWIDTH 1000 0
DWIDTH 16 0
BBX 16 16 0 -2
BITMAP 
0180
0180
0180
0180
0180
0180
FF80
FF80
FF80
FF80
0180
0180
0180
0180
0180
0180
ENDCHAR
STARTCHAR U+2526
ENCODING 9510
SWIDTH 1000 0
DWIDTH 16 0
BBX 16 16 0 -2
BITMAP 
03C0
03C0
03C0
03C0
03C0
03C0
03C0
FFC0
FFC0
0180
0180
0180
0180
0180
0180
0180
ENDCHAR
STARTCHAR U+2527
ENCODING 9511
SWIDTH 1000 0
DWIDTH 16 0
BBX 16 16 0 -2
BITMAP 
0180
0180
0180
0180
0180
0180
0180
FF80
FFC0
03C0
03C0
03C0
03C0
03C0
03C0
03C0
ENDCHAR
STARTCHAR U+2528
ENCODING 9512
SWIDTH 1000 0
DWIDTH 16 0
BBX 16 16 0 -2
BITMAP 
03C0
03C0
03C0
03C0
03C0
03C0
03C0
FFC0
FFC0
03C0
03C0
03C0
03C0
03C0
03C0
03C0
ENDCHAR
STARTCHAR U+2529
ENCODING 9513
SWIDTH 1000 0
DWIDTH 16 0
BBX 16 16 0 -2
BITMAP 
03C0
03C0
03C0
03C0
03C0
03C0
FFC0
FFC0
FFC0
FFC0
0180
0180
0180
0180
0180
0180
ENDCHAR
STARTCHAR U+252A
ENCODING 9514
SWIDTH 1000 0
DWIDTH 16 0
BBX 16 16 0 -2
BITMAP 
0180
0180
0180
0180
0180
0180
FFC0
FFC0
FFC0
FFC0
03C0
03C0
03C0
03C0
03C0
03C0
ENDCHAR
STARTCHAR U+252B
ENCODING 9515
SWIDTH 1000 0
DWIDTH 16 0
BBX 16 16 0 -2
BITMAP 
03C0
03C0
03C0
03C0
03C0
03C0
FFC0
FFC0
FFC0
FFC0
03C0
03C0
03C0
03C0
03C0
03C0
ENDCHAR
STARTCHAR U+252C
ENCODING 9516
SWIDTH 1000 0
DWIDTH 16 0
BBX 16 16 0 -2
BITMAP 
0000
0000
0000
0000
0000
0000
0000
FFFF
FFFF
0180
0180
0180
0180
0180
0180
0180
ENDCHAR
STARTCHAR U+252D
ENCODING 9517
SWIDTH 1000 0
DWIDTH 16 0
BBX 16 16 0 -2
BITMAP 
0000
0000
0000
0000
0000
0000
FF80
FFFF
FFFF
FF80
0180
0180
0180
0180
0180
0180
ENDCHAR
STARTCHAR U+252E
ENCODING 9518
SWIDTH 1000 0
DWIDTH 16 0
BBX 16 16 0 -2
BITMAP 
0000
0000
0000
0000
0000
0000
01FF
FFFF
FFFF
01FF
0180
0180
0180
0180
0180
0180
ENDCHAR
STARTCHAR U+252F
ENCODING 9519
SWIDTH 1000 0
DWIDTH 16 0
BBX 16 16 0 -2
BITMAP 
0000
0000
0000
0000
0000
0000
FFFF
FFFF
FFFF
FFFF
0180
0180
0180
0180
0180
0180
ENDCHAR
STARTCHAR U+2530
ENCODING 9520
SWIDTH 1000 0
DWIDTH 16 0
BBX 16 16 0 -2
BITMAP 
0000
0000
0000
0000
0000
0000
0000
FFFF
FFFF
03C0
03C0
03C0
03C0
03C0
03C0
03C0
ENDCHAR
STARTCHAR U+2531
ENCODING 9521
SWIDTH 1000 0
DWIDTH 16 0
BBX 16 16 0 -2
BITMAP 
0000
0000
0000
0000
0000
0000
FFC0
FFFF
FFFF
FFC0
03C0
03C0
03C0
03C0
03C0
03C0
ENDCHAR
STARTCHAR U+2532
ENCODING 9522
SWIDTH 1000 0
DWIDTH 16 0
BBX 16 16 0 -2
BITMAP 
0000
0000
0000
0000
0000
0000
03FF
FFFF
FFFF
03FF
03C0
03C0
03C0
03C0
03C0
03C0
ENDCHAR
STARTCHAR U+2533
ENCODING 9523
SWIDTH 1000 0
DWIDTH 16 0
BBX 16 16 0 -2
BITMAP 
0000
0000
0000
0000
0000
0000
FFFF
FFFF
FFFF
FFFF
03C0
03C0
03C0
03C0
03C0
03C0
ENDCHAR
STARTCHAR U+2534
ENCODING 9524
SWIDTH 1000 0
DWIDTH 16 0
BBX 16 16 0 -2
BITMAP 
0180
0180
0180
0180
0180
0180
0180
FFFF
FFFF
0000
0000
0000
0000
0000
0000
0000
ENDCHAR
STARTCHAR U+2535
ENCODING 9525
SWIDTH 1000 0
DWIDTH 16 0
BBX 16 16 0 -2
BITMAP 
0180
0180
0180
0180
0180
0180
FF80
FFFF
FFFF
FF80
0000
0000
0000
0000
0000
0000
ENDCHAR
STARTCHAR U+2536
ENCODING 9526
SWIDTH 1000 0
DWIDTH 16 0
BBX 16 16 0 -2
BITMAP 
0180
0180
0180
0180
0180
0180
01FF
FFFF
FFFF
01FF
0000
0000
0000
0000
0000
0000
ENDCHAR
STARTCHAR U+2537
ENCODING 9527
SWIDTH 1000 0
DWIDTH 16 0
BBX 16 16 0 -2
BITMAP 
0180
0180
0180
0180
0180
0180
FFFF
FFFF
FFFF
FFFF
0000
0000
0000
0000
0000
0000
ENDCHAR
STARTCHAR U+2538
ENCODING 9528
SWIDTH 1000 0
DWIDTH 16 0
BBX 16 16 0 -2
BITMAP 
03C0
03C0
03C0
03C0
03C0
03C0
03C0
FFFF
FFFF
0000
0000
0000
0000
0000
0000
0000
ENDCHAR
STARTCHAR U+2539
ENCODING 9529
SWIDTH 1000 0
DWIDTH 16 0
BBX 16 16 0 -2
BITMAP 
03C0
03C0
03C0
03C0
03C0
03C0
FFC0
FFFF
FFFF
FFC0
0000
0000
0000
0000
0000
0000
ENDCHAR
STARTCHAR U+253A
ENCODING 9530
SWIDTH 1000 0
DWIDTH 16 0
BBX 16 16 0 -2
BITMAP 
03C0
03C0
03C0
03C0
03C0
03C0
03FF
FFFF
FFFF
03FF
0000
0000
0000
0000
0000
0000
ENDCHAR
STARTCHAR U+253B
ENCODING 9531
SWIDTH 1000 0
DWIDTH 16 0
BBX 16 16 0 -2
BITMAP 
03C0
03C0
03C0
03C0
03C0
03C0
FFFF
FFFF
FFFF
FFFF
0000
0000
0000
0000
0000
0000
ENDCHAR
STARTCHAR U+253C
ENCODING 9532
SWIDTH 1000 0
DWIDTH 16 0
BBX 16 16 0 -2
BITMAP 
0180
0180
0180
0180
0180
0180
0180
FFFF
FFFF
0180
0180
0180
0180
0180
0180
0180
ENDCHAR
STARTCHAR U+253D
ENCODING 9533
SWIDTH 1000 0
DWIDTH 16 0
BBX 16 16 0 -2
BITMAP 
0180
0180
0180
0180
0180
0180
FF80
FFFF
FFFF
FF80
0180
0180
0180
0180
0180
0180
ENDCHAR
STARTCHAR U+253E
ENCODING 9534
SWIDTH 1000 0
DWIDTH 16 0
BBX 16 16 0 -2
BITMAP 
0180
0180
0180
0180
0180
0180
01FF
FFFF
FFFF
01FF
0180
0180
0180
0180
0180
0180
ENDCHAR
STARTCHAR U+253F
ENCODING 9535
SWIDTH 1000 0
DWIDTH 16 0
BBX 16 16 0 -2
BITMAP 
0180
0180
0180
0180
0180
0180
FFFF
FFFF
FFFF
FFFF
0180
0180
0180
0180
0180
0180
ENDCHAR
STARTCHAR U+2540
ENCODING 9536
SWIDTH 1000 0
DWIDTH 16 0
BBX 16 16 0 -2
BITMAP 
03C0
03C0
03C0
03C0
03C0
03C0
03C0
FFFF
FFFF
0180
0180
0180
0180
0180
0180
0180
ENDCHAR
STARTCHAR U+2541
ENCODING 9537
SWIDTH 1000 0
DWIDTH 16 0
BBX 16 16 0 -2
BITMAP 
0180
0180
0180
0180
0180
0180
0180
FFFF
FFFF
03C0
03C0
03C0
03C0
03C0
03C0
03C0
ENDCHAR
STARTCHAR U+2542
ENCODING 9538
SWIDTH 1000 0
DWIDTH 16 0
BBX 16 16 0 -2
BITMAP 
03C0
03C0
03C0
03C0
03C0
03C0
03C0
FFFF
FFFF
03C0
03C0
03C0
03C0
03C0
03C0
03C0
ENDCHAR
STARTCHAR U+2543
ENCODING 9539
SWIDTH 1000 0
DWIDTH 16 0
BBX 16 16 0 -2
BITMAP 
03C0
03C0
03C0
03C0
03C0
03C0
FFC0
FFFF
FFFF
FFC0
0180
0180
0180
0180
0180
0180
ENDCHAR
STARTCHAR U+2544
ENCODING 9540
SWIDTH 1000 0
DWIDTH 16 0
BBX 16 16 0 -2
BITMAP 
03C0
03C0
03C0
03C0
03C0
03C0
03FF
FFFF
FFFF
03FF
0180
0180
0180
0180
0180
0180
ENDCHAR
STARTCHAR U+2545
ENCODING 9541
SWIDTH 1000 0
DWIDTH 16 0
BBX 16 16 0 -2
BITMAP 
0180
0180
0180
0180
0180
0180
FFC0
FFFF
FFFF
FFC0
03C0
03C0
03C0
03C0
03C0
03C0
ENDCHAR
STARTCHAR U+2546
ENCODING 9542
SWIDTH 1000 0
DWIDTH 16 0
BBX 16 16 0 -2
BITMAP 
0180
0180
0180
0180
0180
0180
03FF
FFFF
FFFF
03FF
03C0
03C0
03C0
03C0
03C0
03C0
ENDCHAR
STARTCHAR U+2547
ENCODING 9543
SWIDTH 1000 0
DWIDTH 16 0
BBX 16 16 0 -2
BITMAP 
03C0
03C0
03C0
03C0
03C0
03C0
FFFF
FFFF
FFFF
FFFF
0180
0180
0180
0180
0180
0180
ENDCHAR
STARTCHAR U+2548
ENCODING 9544
SWIDTH 1000 0
DWIDTH 16 0
BBX 16 16 0 -2
BITMAP 
0180
0180
0180
0180
0180
0180
FFFF
FFFF
FFFF
FFFF
03C0
03C0
03C0
03C0
03C0
03C0
ENDCHAR
STARTCHAR U+2549
ENCODING 9545
SWIDTH 1000 0
DWIDTH 16 0
BBX 16 16 0 -2
BITMAP 
03C0
03C0
03C0
03C0
03C0
03C0
FFC0
FFFF
FFFF
FFC0
03C0
03C0
03C0
03C0
03C0
03C0
ENDCHAR
STARTCHAR U+254A
ENCODING 9546
SWIDTH 1000 0
DWIDTH 16 0
BBX 16 16 0 -2
BITMAP 
03C0
03C0
03C0
03C0
03C0
03C0
03FF
FFFF
FFFF
03FF
03C0
03C0
03C0
03C0
03C0
03C0
ENDCHAR
STARTCHAR U+254B
ENCODING 9547
SWIDTH 1000 0
DWIDTH 16 0
BBX 16 16 0 -2
BITMAP 
03C0
03C0
03C0
03C0
03C0
03C0
FFFF
FFFF
FFFF
FFFF
03C0
03C0
03C0
03C0
03C0
03C0
ENDCHAR
STARTCHAR U+254C
ENCODING 9548
SWIDTH 1000 0
DWIDTH 16 0
BBX 16 16 0 -2
BITMAP 
0000
0000
0000
0000
0000
0000
0000
0000
7E7E
7E7E
0000
0000
0000
0000
0000
0000
ENDCHAR
STARTCHAR U+254D
ENCODING 9549
SWIDTH 1000 0
DWIDTH 16 0
BBX 16 16 0 -2
BITMAP 
0000
0000
0000
0000
0000
0000
0000
7E7E
7E7E
7E7E
7E7E
0000
0000
0000
0000
0000
ENDCHAR
STARTCHAR U+254E
ENCODING 9550
SWIDTH 1000 0
DWIDTH 16 0
BBX 16 16 0 -2
BITMAP 
0000
0300
0300
0300
0300
0300
0300
0000
0000
0300
0300
0300
0300
0300
0300
0000
ENDCHAR
STARTCHAR U+254F
ENCODING 9551
SWIDTH 1000 0
DWIDTH 16 0
BBX 16 16 0 -2
BITMAP 
0000
0780
0780
0780
0780
0780
0780
0000
0000
0780
0780
0780
0780
0780
0780
0000
ENDCHAR
STARTCHAR U+2550
ENCODING 9552
SWIDTH 1000 0
DWIDTH 16 0
BBX 16 16 0 -2
BITMAP 
0000
0000
0000
0000
0000
FFFF
FFFF
0000
0000
FFFF
FFFF
0000
0000
0000
0000
0000
ENDCHAR
STARTCHAR U+2551
ENCODING 9553
SWIDTH 1000 0
DWIDTH 16 0
BBX 16 16 0 -2
BITMAP 
0660
0660
0660
0660
0660
0660
0660
0660
0660
0660
0660
0660
0660
0660
0660
0660
ENDCHAR
STARTCHAR U+2552
ENCODING 9554
SWIDTH 1000 0
DWIDTH 16 0
BBX 16 16 0 -2
BITMAP 
0000
0000
0000
0000
0000
01FF
01FF
0180
0180
01FF
01FF
0180
0180
0180
0180
0180
ENDCHAR
STARTCHAR U+2553
ENCODING 9555
SWIDTH 1000 0
DWIDTH 16 0
BBX 16 16 0 -2
BITMAP 
0000
0000
0000
0000
0000
0000
0000
07FF
07FF
0660
0660
0660
0660
0660
0660
0660
ENDCHAR
STARTCHAR U+2554
ENCODING 9556
SWIDTH 1000 0
DWIDTH 16 0
BBX 16 16 0 -2
BITMAP 
0000
0000
0000
0000
0000
07FF
07FF
0600
0600
067F
067F
0660
0660
0660
0660
0660
ENDCHAR
STARTCHAR U+2555
ENCODING 9557
SWIDTH 1000 0
DWIDTH 16 0
BBX 16 16 0 -2
BITMAP 
0000
0000
0000
0000
0000
FF80
FF80
0180
0180
FF80
FF80
0180
0180
0180
0180
0180
ENDCHAR
STARTCHAR U+2556
ENCODING 9558
SWIDTH 1000 0
DWIDTH 16 0
BBX 16 16 0 -2
BITMAP 
0000
0000
0000
0000
0000
0000
0000
FFE0
FFE0
0660
0660
0660
0660
0660
0660
0660
ENDCHAR
STARTCHAR U+2557
ENCODING 9559
SWIDTH 1000 0
DWIDTH 16 0
BBX 16 16 0 -2
BITMAP 
0000
0000
0000
0000
0000
FFE0
FFE0
0060
0060
FE60
FE60
0660
0660
0660
0660
0660
ENDCHAR
STARTCHAR U+2558
ENCODING 9560
SWIDTH 1000 0
DWIDTH 16 0
BBX 16 16 0 -2
BITMAP 
0180
0180
0180
0180
0180
01FF
01FF
0180
0180
01FF
01FF
0000
0000
0000
0000
0000
ENDCHAR
STARTCHAR U+2559
ENCODING 9561
SWIDTH 1000 0
DWIDTH 16 0
BBX 16 16 0 -2
BITMAP 
0660
0660
0660
0660
0660
0660
0660
07FF
07FF
0000
0000
0000
0000
0000
0000
0000
ENDCHAR
STARTCHAR U+255A
ENCODING 9562
SWIDTH 1000 0
DWIDTH 16 0
BBX 16 16 0 -2
BITMAP 
0660
0660
0660
0660
0660
067F
067F
0600
0600
07FF
07FF
0000
0000
0000
0000
0000
ENDCHAR
STARTCHAR U+255B
ENCODING 9563
SWIDTH 1000 0
DWIDTH 16 0
BBX 16 16 0 -2
BITMAP 
0180
0180
0180
0180
0180
FF80
FF80
0180
0180
FF80
FF80
0000
0000
0000
0000
0000
ENDCHAR
STARTCHAR U+255C
ENCODING 9564
SWIDTH 1000 0
DWIDTH 16 0
BBX 16 16 0 -2
BITMAP 
0660
0660
0660
0660
0660
0660
0660
FFE0
FFE0
0000
0000
0000
0000
0000
0000
0000
ENDCHAR
STARTCHAR U+255D
ENCODING 9565
SWIDTH 1000 0
DWIDTH 16 0
BBX 16 16 0 -2
BITMAP 
0660
0660
0660
0660
0660
FE60
FE60
0060
0060
FFE0
FFE0
0000
0000
0000
0000
0000
ENDCHAR
STARTCHAR U+255E
ENCODING 9566
SWIDTH 1000 0
DWIDTH 16 0
BBX 16 16 0 -2
BITMAP 
0180
0180
0180
0180
0180
01FF
01FF
0180
0180
01FF
01FF
0180
0180
0180
0180
0180
ENDCHAR
STARTCHAR U+255F
ENCODING 9567
SWIDTH 1000 0
DWIDTH 16 0
BBX 16 16 0 -2
BITMAP 
0660
0660
0660
0660
0660
0660
0660
067F
067F
0660
0660
0660
0660
0660
0660
0660
ENDCHAR
STARTCHAR U+2560
ENCODING 9568
SWIDTH 1000 0
DWIDTH 16 0
BBX 16 16 0 -2
BITMAP 
0660
0660
0660
0660
0660
067F
067F
0600
0600
067F
067F
0660
0660
0660
0660
0660
ENDCHAR
STARTCHAR U+2561
ENCODING 9569
SWIDTH 1000 0
DWIDTH 16 0
BBX 16 16 0 -2
BITMAP 
0180
0180
0180
0180
0180
FF80
FF80
0180
0180
FF80
FF80
0180
0180
0180
0180
0180
ENDCHAR
STARTCHAR U+2562
ENCODING 9570
SWIDTH 1000 0
DWIDTH 16 0
BBX 16 16 0 -2
BITMAP 
0660
0660
0660
0660
0660
0660
0660
FE60
FE60
0660
0660
0660
0660
0660
0660
0660
ENDCHAR
STARTCHAR U+2563
ENCODING 9571
SWIDTH 1000 0
DWIDTH 16 0
BBX 16 16 0 -2
BITMAP 
0660
0660
0660
0660
0660
FE60
FE60
0060
0060
FE60
FE60
0660
0660
0660
0660
0660
ENDCHAR
STARTCHAR U+2564
ENCODING 9572
SWIDTH 1000 0
DWIDTH 16 0
BBX 16 16 0 -2
BITMAP 
0000
0000
0000
0000
0000
FFFF
FFFF
0000
0000
FFFF
FFFF
0180
0180
0180
0180
0180
ENDCHAR
STARTCHAR U+2565
ENCODING 9573
SWIDTH 1000 0
DWIDTH 16 0
BBX 16 16 0 -2
BITMAP 
0000
0000
0000
0000
0000
0000
0000
FFFF
FFFF
0660
0660
0660
0660
0660
0660
0660
ENDCHAR
STARTCHAR U+2566
ENCODING 9574
SWIDTH 1000 0
DWIDTH 16 0
BBX 16 16 0 -2
BITMAP 
0000
0000
0000
0000
0000
FFFF
FFFF
0000
0000
FE7F
FE7F
0660
0660
0660
0660
0660
ENDCHAR
STARTCHAR U+2567
ENCODING 9575
SWIDTH 1000 0
DWIDTH 16 0
BBX 16 16 0 -2
BITMAP 
0180
0180
0180
0180
0180
FFFF
FFFF
0000
0000
FFFF
FFFF
0000
0000
0000
0000
0000
ENDCHAR
STARTCHAR U+2568
ENCODING 9576
SWIDTH 1000 0
DWIDTH 16 0
BBX 16 16 0 -2
BITMAP 
0660
0660
0660
0660
0660
0660
0660
FFFF
FFFF
0000
0000
0000
0000
0000
0000
0000
ENDCHAR
STARTCHAR U+2569
ENCODING 9577
SWIDTH 1000 0
DWIDTH 16 0
BBX 16 16 0 -2
BITMAP 
0660
0660
0660
0660
0660
FE7F
FE7F
0000
0000
FFFF
FFFF
0000
0000
0000
0000
0000
ENDCHAR
STARTCHAR U+256A
ENCODING 9578
SWIDTH 1000 0
DWIDTH 16 0
BBX 16 16 0 -2
BITMAP 
0180
0180
0180
0180
0180
FFFF
FFFF
0180
0180
FFFF
FFFF
0180
0180
0180
0180
0180
ENDCHAR
STARTCHAR U+256B
ENCODING 9579
SWIDTH 1000 0
DWIDTH 16 0
BBX 16 16 0 -2
BITMAP 
0660
0660
0660
0660
0660
0660
0660
FFFF
FFFF
0660
0660
0660
0660
0660
0660
0660
ENDCHAR
STARTCHAR U+256C
ENCODING 9580
SWIDTH 1000 0
DWIDTH 16 0
BBX 16 16 0 -2
BITMAP 
0660
0660
0660
0660
0660
FE7F
FE7F
0000
0000
FE7F
FE7F
0660
0660
0660
0660
0660
ENDCHAR
STARTCHAR U+256D
ENCODING 9581
SWIDTH 1000 0
DWIDTH 16 0
BBX 16 16 0 -2
BITMAP 
0000
0000
0000
0000
0000
0000
0000
007F
00FF
01C0
0180
0180
0180
0180
0180
0180
ENDCHAR
STARTCHAR U+256E
ENCODING 9582
SWIDTH 1000 0
DWIDTH 16 0
BBX 16 16 0 -2
BITMAP 
0000
0000
0000
0000
0000
0000
0000
FE00
FF00
0380
0180
0180
0180
0180
0180
0180
ENDCHAR
STARTCHAR U+256F
ENCODING 9583
SWIDTH 1000 0
DWIDTH 16 0
BBX 16 16 0 -2
BITMAP 
0180
0180
0180
0180
0180
0180
0380
FF00
FE00
0000
0000
0000
0000
0000
0000
0000
ENDCHAR
STARTCHAR U+2570
ENCODING 9584
SWIDTH 1000 0
DWIDTH 16 0
BBX 16 16 0 -2
BITMAP 
0180
0180
0180
0180
0180
0180
01C0
00FF
007F
0000
0000
0000
0000
0000
0000
0000
ENDCHAR
STARTCHAR U+2571
ENCODING 9585
SWIDTH 1000 0
DWIDTH 16 0
BBX 16 16 0 -2
BITMAP 
0003
0007
000E
001C
0038
0070
00E0
01C0
0380
0700
0E00
1C00
3800
7000
E000
C000
ENDCHAR
STARTCHAR U+2572
ENCODING 9586
SWIDTH 1000 0
DWIDTH 16 0
BBX 16 16 0 -2
BITMAP 
C000
E000
7000
3800
1C00
0E00
0700
0380
01C0
00E0
0070
0038
001C
000E
0007
0003
ENDCHAR
STARTCHAR U+2573
ENCODING 9587
SWIDTH 1000 0
DWIDTH 16 0
BBX 16 16 0 -2
BITMAP 
C003
E007
700E
381C
1C38
0E70
07E0
03C0
03C0
07E0
0E70
1C38
381C
700E
E007
C003
ENDCHAR
STARTCHAR U+2574
ENCODING 9588
SWIDTH 1000 0
DWIDTH 16 0
BBX 16 16 0 -2
BITMAP 
0000
0000
0000
0000
0000
0000
0000
FF00
FF00
0000
0000
0000
0000
0000
0000
0000
ENDCHAR
STARTCHAR U+2575
ENCODING 9589
SWIDTH 1000 0
DWIDTH 16 0
BBX 16 16 0 -2
BITMAP 
0180
0180
0180
0180
0180
0180
0180
0180
0000
0000
0000
0000
0000
0000
0000
0000
ENDCHAR
STARTCHAR U+2576
ENCODING 9590
SWIDTH 1000 0
DWIDTH 16 0
BBX 16 16 0 -2
BITMAP 
0000
0000
0000
0000
0000
0000
0000
00FF
00FF
0000
0000
0000
0000
0000
0000
0000
ENDCHAR
STARTCHAR U+2577
ENCODING 9591
SWIDTH 1000 0
DWIDTH 16 0
BBX 16 16 0 -2
BITMAP 
0000
0000
0000
0000
0000
0000
0000
0000
0180
0180
0180
0180
0180
0180
0180
0180
ENDCHAR
STARTCHAR U+2578
ENCODING 9592
SWIDTH 1000 0
DWIDTH 16 0
BBX 16 16 0 -2
BITMAP 
0000
0000
0000
0000
0000
0000
FF00
FF00
FF00
FF00
0000
0000
0000
0000
0000
0000
ENDCHAR
STARTCHAR U+2579
ENCODING 9593
SWIDTH 1000 0
DWIDTH 16 0
BBX 16 16 0 -2
BITMAP 
03C0
03C0
03C0
03C0
03C0
03C0
03C0
03C0
0000
0000
0000
0000
0000
0000
0000
0000
ENDCHAR
STARTCHAR U+257A
ENCODING 9594
SWIDTH 1000 0
DWIDTH 16 0
BBX 16 16 0 -2
BITMAP 
0000
0000
0000
0000
0000
0000
00FF
00FF
00FF
00FF
0000
0000
0000
0000
0000
0000
ENDCHAR
STARTCHAR U+257B
ENCODING 9595
SWIDTH 1000 0
DWIDTH 16 0
BBX 16 16 0 -2
BITMAP 
0000
0000
0000
0000
0000
0000
0000
0000
03C0
03C0
03C0
03C0
03C0
03C0
03C0
03C0
ENDCHAR
STARTCHAR U+257C
ENCODING 9596
SWIDTH 1000 0
DWIDTH 16 0
BBX 16 16 0 -2
BITMAP 
0000
0000
0000
0000
0000
0000
00FF
FFFF
FFFF
00FF
0000
0000
0000
0000
0000
0000
ENDCHAR
STARTCHAR U+257D
ENCODING 9597
SWIDTH 1000 0
DWIDTH 16 0
BBX 16 16 0 -2
BITMAP 
0180
0180
0180
0180
0180
0180
0180
0180
03C0
03C0
03C0
03C0
03C0
03C0
03C0
03C0
ENDCHAR
STARTCHAR U+257E
ENCODING 9598
SWIDTH 1000 0
DWIDTH 16 0
BBX 16 16 0 -2
BITMAP 
0000
0000
0000
0000
0000
0000
FF00
FFFF
FFFF
FF00
0000
0000
0000
0000
0000
0000
ENDCHAR
STARTCHAR U+257F
ENCODING 9599
SWIDTH 1000 0
DWIDTH 16 0
BBX 16 16 0 -2
BITMAP 
03C0
03C0
03C0
03C0
03C0
03C0
03C0
03C0
0180
0180
0180
0180
0180
0180
0180
0180
ENDCHAR
STARTCHAR U+2580
ENCODING 9600
SWIDTH 1000 0
DWIDTH 16 0
BBX 16 16 0 -2
BITMAP 
FFFF
FFFF
FFFF
FFFF
FFFF
FFFF
FFFF
FFFF
0000
0000
0000
0000
0000
0000
0000
0000
ENDCHAR
STARTCHAR U+2581
ENCODING 9601
SWIDTH 1000 0
DWIDTH 16 0
BBX 16 16 0 -2
BITMAP 
0000
0000
0000
0000
0000
0000
0000
0000
0000
0000
0000
0000
0000
0000
FFFF
FFFF
ENDCHAR
STARTCHAR U+2582
ENCODING 9602
SWIDTH 1000 0
DWIDTH 16 0
BBX 16 16 0 -2
BITMAP 
0000
0000
0000
0000
0000
0000
0000
0000
0000
0000
0000
0000
FFFF
FFFF
FFFF
FFFF
ENDCHAR
STARTCHAR U+2583
ENCODING 9603
SWIDTH 1000 0
DWIDTH 16 0
BBX 16 16 0 -2
BITMAP 
0000
0000
0000
0000
0000
0000
0000
0000
0000
0000
FFFF
FFFF
FFFF
FFFF
FFFF
FFFF
ENDCHAR
STARTCHAR U+2584
ENCODING 9604
SWIDTH 1000 0
DWIDTH 16 0
BBX 16 16 0 -2
BITMAP 
0000
0000
0000
0000
0000
0000
0000
0000
FFFF
FFFF
FFFF
FFFF
FFFF
FFFF
FFFF
FFFF
ENDCHAR
STARTCHAR U+2585
ENCODING 9605
SWIDTH 1000 0
DWIDTH 16 0
BBX 16 16 0 -2
BITMAP 
0000
0000
0000
0000
0000
0000
FFFF
FFFF
FFFF
FFFF
FFFF
FFFF
FFFF
FFFF
FFFF
FFFF
ENDCHAR
STARTCHAR U+2586
ENCODING 9606
SWIDTH 1000 0
DWIDTH 16 0
BBX 16 16 0 -2
BITMAP 
0000
0000
0000
0000
FFFF
FFFF
FFFF
FFFF
FFFF
FFFF
FFFF
FFFF
FFFF
FFFF
FFFF
FFFF
ENDCHAR
STARTCHAR U+2587
ENCODING 9607
SWIDTH 1000 0
DWIDTH 16 0
BBX 16 16 0 -2
BITMAP 
0000
0000
FFFF
FFFF
FFFF
FFFF
FFFF
FFFF
FFFF
FFFF
FFFF
FFFF
FFFF
FFFF
FFFF
FFFF
ENDCHAR
STARTCHAR U+2588
ENCODING 9608
SWIDTH 1000 0
DWIDTH 16 0
BBX 16 16 0 -2
BITMAP 
FFFF
FFFF
FFFF
FFFF
FFFF
FFFF
FFFF
FFFF
FFFF
FFFF
FFFF
FFFF
FFFF
FFFF
FFFF
FFFF
ENDCHAR
STARTCHAR U+2589
ENCODING 9609
SWIDTH 1000 0
DWIDTH 16 0
BBX 16 16 0 -2
BITMAP 
FFFC
FFFC
FFFC
FFFC
FFFC
FFFC
FFFC
FFFC
FFFC
FFFC
FFFC
FFFC
FFFC
FFFC
FFFC
FFFC
ENDCHAR
STARTCHAR U+258A
ENCODING 9610
SWIDTH 1000 0
DWIDTH 16 0
BBX 16 16 0 -2
BITMAP 
FFF0
FFF0
FFF0
FFF0
FFF0
FFF0
FFF0
FFF0
FFF0
FFF0
FFF0
FFF0
FFF0
FFF0
FFF0
FFF0
ENDCHAR
STARTCHAR U+258B
ENCODING 9611
SWIDTH 1000 0
DWIDTH 16 0
BBX 16 16 0 -2
BITMAP 
FFC0
FFC0
FFC0
FFC0
FFC0
FFC0
FFC0
FFC0
FFC0
FFC0
FFC0
FFC0
FFC0
FFC0
FFC0
FFC0
ENDCHAR
STARTCHAR U+258C
ENCODING 9612
SWIDTH 1000 0
DWIDTH 16 0
BBX 16 16 0 -2
BITMAP 
FF00
FF00
FF00
FF00
FF00
FF00
FF00
FF00
FF00
FF00
FF00
FF00
FF00
FF00
FF00
FF00
ENDCHAR
STARTCHAR U+258D
ENCODING 9613
SWIDTH 1000 0
DWIDTH 16 0
BBX 16 16 0 -2
BITMAP 
FC00
FC00
FC00
FC00
FC00
FC00
FC00
FC00
FC00
FC00
FC00
FC00
FC00
FC00
FC00
FC00
ENDCHAR
STARTCHAR U+258E
ENCODING 9614
SWIDTH 1000 0
DWIDTH 16 0
BBX 16 16 0 -2
BITMAP 
F000
F000
F000
F000
F000
F000
F000
F000
F000
F000
F000
F000
F000
F000
F000
F000
ENDCHAR
STARTCHAR U+258F
ENCODING 9615
SWIDTH 1000 0
DWIDTH 16 0
BBX 16 16 0 -2
BITMAP 
C000
C000
C000
C000
C000
C000
C000
C000
C000
C000
C000
C000
C000
C000
C000
C000
ENDCHAR
STARTCHAR U+2590
ENCODING 9616
SWIDTH 1000 0
DWIDTH 16 0
BBX 16 16 0 -2
BITMAP 
00FF
00FF
00FF
00FF
00FF
00FF
00FF
00FF
00FF
00FF
00FF
00FF
00FF
00FF
00FF
00FF
ENDCHAR
STARTCHAR U+2591
ENCODING 9617
SWIDTH 1000 0
DWIDTH 16 0
BBX 16 16 0 -2
BITMAP 
8888
2222
8888
2222
8888
2222
8888
2222
8888
2222
8888
2222
8888
2222
8888
2222
ENDCHAR
STARTCHAR U+2592
ENCODING 9618
SWIDTH 1000 0
DWIDTH 16 0
BBX 16 16 0 -2
BITMAP 
AAAA
5555
AAAA
5555
AAAA
5555
AAAA
5555
AAAA
5555
AAAA
5555
AAAA
5555
AAAA
5555
ENDCHAR
STARTCHAR U+2593
ENCODING 9619
SWIDTH 1000 0
DWIDTH 16 0
BBX 16 16 0 -2
BITMAP 
EEEE
BBBB
EEEE
BBBB
EEEE
BBBB
EEEE
BBBB
EEEE
BBBB
EEEE
BBBB
EEEE
BBBB
EEEE
BBBB
ENDCHAR
STARTCHAR U+2594
ENCODING 9620
SWIDTH 1000 0
DWIDTH 16 0
BBX 16 16 0 -2
BITMAP 
FFFF
FFFF
0000
0000
0000
0000
0000
0000
0000
0000
0000
0000
0000
0000
0000
0000
ENDCHAR
STARTCHAR U+2595
ENCODING 9621
SWIDTH 1000 0
DWIDTH 16 0
BBX 16 16 0 -2
BITMAP 
0003
0003
0003
0003
0003
0003
0003
0003
0003
0003
0003
0003
0003
0003
0003
0003
ENDCHAR
STARTCHAR U+2596
ENCODING 9622
SWIDTH 1000 0
DWIDTH 16 0
BBX 16 16 0 -2
BITMAP 
0000
0000
0000
0000
0000
0000
0000
0000
FF00
FF00
FF00
FF00
FF00
FF00
FF00
FF00
ENDCHAR
STARTCHAR U+2597
ENCODING 9623
SWIDTH 1000 0
DWIDTH 16 0
BBX 16 16 0 -2
BITMAP 
0000
0000
0000
0000
0000
0000
0000
0000
00FF
00FF
00FF
00FF
00FF
00FF
00FF
00FF
ENDCHAR
STARTCHAR U+2598
ENCODING 9624
SWIDTH 1000 0
DWIDTH 16 0
BBX 16 16 0 -2
BITMAP 
FF00
FF00
FF00
FF00
FF00
FF00
FF00
FF00
0000
0000
0000
0000
0000
0000
0000
0000
ENDCHAR
STARTCHAR U+2599
ENCODING 9625
SWIDTH 1000 0
DWIDTH 16 0
BBX 16 16 0 -2
BITMAP 
FF00
FF00
FF00
FF00
FF00
FF00
FF00
FF00
FFFF
FFFF
FFFF
FFFF
FFFF
FFFF
FFFF
FFFF
ENDCHAR
STARTCHAR U+259A
ENCODING 9626
SWIDTH 1000 0
DWIDTH 16 0
BBX 16 16 0 -2
BITMAP 
FF00
FF00
FF00
FF00
FF00
FF00
FF00
FF00
00FF
00FF
00FF
00FF
00FF
00FF
00FF
00FF
ENDCHAR
STARTCHAR U+259B
ENCODING 9627
SWIDTH 1000 0
DWIDTH 16 0
BBX 16 16 0 -2
BITMAP 
FFFF
FFFF
FFFF
FFFF
FFFF
FFFF
FFFF
FFFF
FF00
FF00
FF00
FF00
FF00
FF00
FF00
FF00
ENDCHAR
STARTCHAR U+259C
ENCODING 9628
SWIDTH 1000 0
DWIDTH 16 0
BBX 16 16 0 -2
BITMAP 
FFFF
FFFF
FFFF
FFFF
FFFF
FFFF
FFFF
FFFF
00FF
00FF
00FF
00FF
00FF
00FF
00FF
00FF
ENDCHAR
STARTCHAR U+259D
ENCODING 9629
SWIDTH 1000 0
DWIDTH 16 0
BBX 16 16 0 -2
BITMAP 
00FF
00FF
00FF
00FF
00FF
00FF
00FF
00FF
0000
0000
0000
0000
0000
0000
0000
0000
ENDCHAR
STARTCHAR U+259E
ENCODING 9630
SWIDTH 1000 0
DWIDTH 16 0
BBX 16 16 0 -2
BITMAP 
00FF
00FF
00FF
00FF
00FF
00FF
00FF
00FF
FF00
FF00
FF00
FF00
FF00
FF00
FF00
FF00
ENDCHAR
STARTCHAR U+259F
ENCODING 9631
SWIDTH 1000 0
DWIDTH 16 0
BBX 16 16 0 -2
BITMAP 
00FF
00FF
00FF
00FF
00FF
00FF
00FF
00FF
FFFF
FFFF
FFFF
FFFF
FFFF
FFFF
FFFF
FFFF
ENDCHAR
STARTCHAR U+25A0
ENCODING 9632
SWIDTH 1000 0
DWIDTH 16 0
BBX 16 16 0 -2
BITMAP 
FFFF
FFFF
FFFF
FFFF
FFFF
FFFF
FFFF
FFFF
FFFF
FFFF
FFFF
FFFF
FFFF
FFFF
FFFF
FFFF
ENDCHAR
STARTCHAR U+25A1
ENCODING 9633
SWIDTH 1000 0
DWIDTH 16 0
BBX 16 16 0 -2
BITMAP 
FFFF
8001
8001
8001
8001
8001
8001
8001
8001
8001
8001
8001
8001
8001
8001
FFFF
ENDCHAR
STARTCHAR U+25A2
ENCODING 9634
SWIDTH 1000 0
DWIDTH 16 0
BBX 16 16 0 -2
BITMAP 
3FFC
4002
8001
8001
8001
8001
8001
8001
8001
8001
8001
8001
8001
8001
4002
3FFC
ENDCHAR
STARTCHAR U+25A3
ENCODING 9635
SWIDTH 1000 0
DWIDTH 16 0
BBX 16 16 0 -2
BITMAP 
FFFF
8001
8001
8001
8FF1
8FF1
8FF1
8FF1
8FF1
8FF1
8FF1
8FF1
8001
8001
8001
FFFF
ENDCHAR
STARTCHAR U+25A4
ENCODING 9636
SWIDTH 1000 0
DWIDTH 16 0
BBX 16 16 0 -2
BITMAP 
FFFF
8001
8001
FFFF
8001
8001
FFFF
8001
8001
FFFF
8001
8001
FFFF
8001
8001
FFFF
ENDCHAR
STARTCHAR U+25A5
ENCODING 9637
SWIDTH 1000 0
DWIDTH 16 0
BBX 16 16 0 -2
BITMAP 
FFFF
9249
9249
9249
9249
9249
9249
9249
9249
9249
9249
9249
9249
9249
9249
FFFF
ENDCHAR
STARTCHAR U+25A6
ENCODING 9638
SWIDTH 1000 0
DWIDTH 16 0
BBX 16 16 0 -2
BITMAP 
FFFF
9249
9249
FFFF
9249
9249
FFFF
9249
9249
FFFF
9249
9249
FFFF
9249
9249
FFFF
ENDCHAR
STARTCHAR U+25A7
ENCODING 9639
SWIDTH 1000 0
DWIDTH 16 0
BBX 16 16 0 -2
BITMAP 
FFFF
8843
9085
A109
C211
8421
8843
9085
A109
C211
8421
8843
9085
A109
C211
FFFF
ENDCHAR
STARTCHAR U+25A8
ENCODING 9640
SWIDTH 1000 0
DWIDTH 16 0
BBX 16 16 0 -2
BITMAP 
FFFF
C211
A109
9085
8843
8421
C211
A109
9085
8843
8421
C211
A109
9085
8843
FFFF
ENDCHAR
STARTCHAR U+25A9
ENCODING 9641
SWIDTH 1000 0
DWIDTH 16 0
BBX 16 16 0 -2
BITMAP 
FFFF
C183
A245
9429
8811
9429
A245
C183
C183
A245
9429
8811
9429
A245
C183
FFFF
ENDCHAR
STARTCHAR U+25AA
ENCODING 9642
SWIDTH 1000 0
DWIDTH 16 0
BBX 16 16 0 -2
BITMAP 
0000
0000
0000
0000
0000
0000
03C0
03C0
03C0
03C0
0000
0000
0000
0000
0000
0000
ENDCHAR
STARTCHAR U+25AB
ENCODING 9643
SWIDTH 1000 0
DWIDTH 16 0
BBX 16 16 0 -2
BITMAP 
0000
0000
0000
0000
0000
0000
03C0
0240
0240
03C0
0000
0000
0000
0000
0000
0000
ENDCHAR
STARTCHAR U+25AC
ENCODING 9644
SWIDTH 1000 0
DWIDTH 16 0
BBX 16 16 0 -2
BITMAP 
0000
0000
0000
0000
0000
3FFC
3FFC
3FFC
3FFC
3FFC
3FFC
0000
0000
0000
0000
0000
ENDCHAR
STARTCHAR U+25AD
ENCODING 9645
SWIDTH 1000 0
DWIDTH 16 0
BBX 16 16 0 -2
BITMAP 
0000
0000
0000
0000
0000
3FFC
2004
2004
2004
2004
3FFC
0000
0000
0000
0000
0000
ENDCHAR
STARTCHAR U+25AE
ENCODING 9646
SWIDTH 1000 0
DWIDTH 16 0
BBX 16 16 0 -2
BITMAP 
0000
0000
07E0
07E0
07E0
07E0
07E0
07E0
07E0
07E0
07E0
07E0
07E0
07E0
0000
0000
ENDCHAR
STARTCHAR U+25AF
ENCODING 9647
SWIDTH 1000 0
DWIDTH 16 0
BBX 16 16 0 -2
BITMAP 
0000
0000
07E0
0420
0420
0420
0420
0420
0420
0420
0420
0420
0420
07E0
0000
0000
ENDCHAR
STARTCHAR U+25B0
ENCODING 9648
SWIDTH 1000 0
DWIDTH 16 0
BBX 16 16 0 -2
BITMAP 
0000
0000
0000
0000
0000
0000
07FC
0FF8
1FF0
3FE0
0000
0000
0000
0000
0000
0000
ENDCHAR
STARTCHAR U+25B1
ENCODING 9649
SWIDTH 1000 0
DWIDTH 16 0
BBX 16 16 0 -2
BITMAP 
0000
0000
0000
0000
0000
0000
07FC
0808
1010
3FE0
0000
0000
0000
0000
0000
0000
ENDCHAR
STARTCHAR U+25B2
ENCODING 9650
SWIDTH 1000 0
DWIDTH 16 0
BBX 16 16 0 -2
BITMAP 
0180
03C0
03C0
07E0
07E0
0FF0
0FF0
1FF8
1FF8
3FFC
7FFE
7FFE
FFFF
FFFF
FFFF
FFFF
ENDCHAR
STARTCHAR U+25B3
ENCODING 9651
SWIDTH 1000 0
DWIDTH 16 0
BBX 16 16 0 -2
BITMAP 
0180
0240
0240
0420
0420
0810
0810
1008
1008
2004
4002
4002
8001
8001
8001
FFFF
ENDCHAR
STARTCHAR U+25B4
ENCODING 9652
SWIDTH 1000 0
DWIDTH 16 0
BBX 16 16 0 -2
BITMAP 
0000
0000
0180
0180
03C0
03C0
07E0
07E0
0FF0
0FF0
0000
0000
0000
0000
0000
0000
ENDCHAR
STARTCHAR U+25B5
ENCODING 9653
SWIDTH 1000 0
DWIDTH 16 0
BBX 16 16 0 -2
BITMAP 
0000
0000
0180
0180
0240
0240
0420
0420
0810
0FF0
0000
0000
0000
0000
0000
0000
ENDCHAR
STARTCHAR U+25B6
ENCODING 9654
SWIDTH 1000 0
DWIDTH 16 0
BBX 16 16 0 -2
BITMAP 
F000
FC00
FE00
FF80
FFE0
FFF8
FFFE
FFFF
FFFF
FFFE
FFF8
FFE0
FF80
FE00
FC00
F000
ENDCHAR
STARTCHAR U+25B7
ENCODING 9655
SWIDTH 1000 0
DWIDTH 16 0
BBX 16 16 0 -2
BITMAP 
F000
8C00
8200
8180
8060
8018
8006
8001
8001
8006
8018
8060
8180
8200
8C00
F000
ENDCHAR
STARTCHAR U+25B8
ENCODING 9656
SWIDTH 1000 0
DWIDTH 16 0
BBX 16 16 0 -2
BITMAP 
0000
0000
0C00
0F00
0FC0
0FF0
0FF0
0FC0
0F00
0C00
0000
0000
0000
0000
0000
0000
ENDCHAR
STARTCHAR U+25B9
ENCODING 9657
SWIDTH 1000 0
DWIDTH 16 0
BBX 16 16 0 -2
BITMAP 
0000
0000
0C00
0B00
08C0
0830
0830
08C0
0B00
0C00
0000
0000
0000
0000
0000
0000
ENDCHAR
STARTCHAR U+25BA
ENCODING 9658
SWIDTH 1000 0
DWIDTH 16 0
BBX 16 16 0 -2
BITMAP 
0000
0000
0000
0000
F000
FF00
FFF0
FFFF
FFFF
FFF0
FF00
F000
0000
0000
0000
0000
ENDCHAR
STARTCHAR U+25BB
ENCODING 9659
SWIDTH 1000 0
DWIDTH 16 0
BBX 16 16 0 -2
BITMAP 
0000
0000
0000
0000
F000
8F00
80F0
800F
800F
80F0
8F00
F000
0000
0000
0000
0000
ENDCHAR
STARTCHAR U+25BC
ENCODING 9660
SWIDTH 1000 0
DWIDTH 16 0
BBX 16 16 0 -2
BITMAP 
FFFF
FFFF
FFFF
FFFF
7FFE
7FFE
3FFC
1FF8
1FF8
0FF0
0FF0
07E0
07E0
03C0
03C0
0180
ENDCHAR
STARTCHAR U+25BD
ENCODING 9661
SWIDTH 1000 0
DWIDTH 16 0
BBX 16 16 0 -2
BITMAP 
FFFF
8001
8001
8001
4002
4002
2004
1008
1008
0810
0810
0420
0420
0240
0240
0180
ENDCHAR
STARTCHAR U+25BE
ENCODING 9662
SWIDTH 1000 0
DWIDTH 16 0
BBX 16 16 0 -2
BITMAP 
0000
0000
0FF0
0FF0
07E0
07E0
03C0
03C0
0180
0180
0000
0000
0000
0000
0000
0000
ENDCHAR
STARTCHAR U+25BF
ENCODING 9663
SWIDTH 1000 0
DWIDTH 16 0
BBX 16 16 0 -2
BITMAP 
0000
0000
0FF0
0810
0420
0420
0240
0240
0180
0180
0000
0000
0000
0000
0000
0000
ENDCHAR
STARTCHAR U+25C0
ENCODING 9664
SWIDTH 1000 0
DWIDTH 16 0
BBX 16 16 0 -2
BITMAP 
000F
003F
007F
01FF
07FF
1FFF
7FFF
FFFF
FFFF
7FFF
1FFF
07FF
01FF
007F
003F
000F
ENDCHAR
STARTCHAR U+25C1
ENCODING 9665
SWIDTH 1000 0
DWIDTH 16 0
BBX 16 16 0 -2
BITMAP 
000F
0031
0041
0181
0601
1801
6001
8001
8001
6001
1801
0601
0181
0041
0031
000F
ENDCHAR
STARTCHAR U+25C2
ENCODING 9666
SWIDTH 1000 0
DWIDTH 16 0
BBX 16 16 0 -2
BITMAP 
0000
0000
0030
00F0
03F0
0FF0
0FF0
03F0
00F0
0030
0000
0000
0000
0000
0000
0000
ENDCHAR
STARTCHAR U+25C3
ENCODING 9667
SWIDTH 1000 0
DWIDTH 16 0
BBX 16 16 0 -2
BITMAP 
0000
0000
0030
00D0
0310
0C10
0C10
0310
00D0
0030
0000
0000
0000
0000
0000
0000
ENDCHAR
STARTCHAR U+25C4
ENCODING 9668
SWIDTH 1000 0
DWIDTH 16 0
BBX 16 16 0 -2
BITMAP 
0000
0000
0000
0000
000F
00FF
0FFF
FFFF
FFFF
0FFF
00FF
000F
0000
0000
0000
0000
ENDCHAR
STARTCHAR U+25C5
ENCODING 9669
SWIDTH 1000 0
DWIDTH 16 0
BBX 16 16 0 -2
BITMAP 
0000
0000
0000
0000
000F
00F1
0F01
F001
F001
0F01
00F1
000F
0000
0000
0000
0000
ENDCHAR
STARTCHAR U+25C6
ENCODING 9670
SWIDTH 1000 0
DWIDTH 16 0
BBX 16 16 0 -2
BITMAP 
0180
03C0
07E0
0FF0
1FF8
3FFC
7FFE
FFFF
FFFF
7FFE
3FFC
1FF8
0FF0
07E0
03C0
0180
ENDCHAR
STARTCHAR U+25C7
ENCODING 9671
SWIDTH 1000 0
DWIDTH 16 0
BBX 16 16 0 -2
BITMAP 
0180
0240
0420
0810
1008
2004
4002
8001
8001
4002
2004
1008
0810
0420
0240
0180
ENDCHAR
STARTCHAR U+25C8
ENCODING 9672
SWIDTH 1000 0
DWIDTH 16 0
BBX 16 16 0 -2
BITMAP 
0180
0240
0420
0990
13C8
27E4
4FF2
9FF9
9FF9
4FF2
27E4
13C8
0990
0420
0240
0180
ENDCHAR
STARTCHAR U+25C9
ENCODING 9673
SWIDTH 1000 0
DWIDTH 16 0
BBX 16 16 0 -2
BITMAP 
07E0
1818
2004
43C2
4FF2
8FF1
9FF9
9FF9
9FF9
9FF9
8FF1
4FF2
43C2
2004
1818
07E0
ENDCHAR
STARTCHAR U+25CA
ENCODING 9674
SWIDTH 1000 0
DWIDTH 16 0
BBX 16 16 0 -2
BITMAP 
0180
0180
0240
0240
0420
0420
0810
0810
0810
0810
0420
0420
0240
0240
0180
0180
ENDCHAR
STARTCHAR U+25CB
ENCODING 9675
SWIDTH 1000 0
DWIDTH 16 0
BBX 16 16 0 -2
BITMAP 
07E0
1818
2004
4002
4002
8001
8001
8001
8001
8001
8001
4002
4002
2004
1818
07E0
ENDCHAR
STARTCHAR U+25CC
ENCODING 9676
SWIDTH 1000 0
DWIDTH 16 0
BBX 16 16 0 -2
BITMAP 
03C0
1008
2004
4002
0000
0000
8001
8001
8001
8001
0000
0000
4002
2004
1008
03C0
ENDCHAR
STARTCHAR U+25CD
ENCODING 9677
SWIDTH 1000 0
DWIDTH 16 0
BBX 16 16 0 -2
BITMAP 
07E0
1A58
324C
524A
524A
9249
9249
9249
9249
9249
9249
524A
524A
324C
1A58
07E0
ENDCHAR
STARTCHAR U+25CE
ENCODING 9678
SWIDTH 1000 0
DWIDTH 16 0
BBX 16 16 0 -2
BITMAP 
07E0
1818
2004
43C2
4C32
8811
9009
9009
9009
9009
8811
4C32
43C2
2004
1818
07E0
ENDCHAR
STARTCHAR U+25CF
ENCODING 9679
SWIDTH 1000 0
DWIDTH 16 0
BBX 16 16 0 -2
BITMAP 
07E0
1FF8
3FFC
7FFE
7FFE
FFFF
FFFF
FFFF
FFFF
FFFF
FFFF
7FFE
7FFE
3FFC
1FF8
07E0
ENDCHAR
STARTCHAR U+25D0
ENCODING 9680
SWIDTH 1000 0
DWIDTH 16 0
BBX 16 16 0 -2
BITMAP 
07E0
1F18
3F04
7F02
7F02
FF01
FF01
FF01
FF01
FF01
FF01
7F02
7F02
3F04
1F18
07E0
ENDCHAR
STARTCHAR U+25D1
ENCODING 9681
SWIDTH 1000 0
DWIDTH 16 0
BBX 16 16 0 -2
BITMAP 
07E0
18F8
20FC
40FE
40FE
80FF
80FF
80FF
80FF
80FF
80FF
40FE
40FE
20FC
18F8
07E0
ENDCHAR
STARTCHAR U+25D2
ENCODING 9682
SWIDTH 1000 0
DWIDTH 16 0
BBX 16 16 0 -2
BITMAP 
07E0
1818
2004
4002
4002
8001
8001
8001
FFFF
FFFF
FFFF
7FFE
7FFE
3FFC
1FF8
07E0
ENDCHAR
STARTCHAR U+25D3
ENCODING 9683
SWIDTH 1000 0
DWIDTH 16 0
BBX 16 16 0 -2
BITMAP 
07E0
1FF8
3FFC
7FFE
7FFE
FFFF
FFFF
FFFF
8001
8001
8001
4002
4002
2004
1818
07E0
ENDCHAR
STARTCHAR U+25D4
ENCODING 9684
SWIDTH 1000 0
DWIDTH 16 0
BBX 16 16 0 -2
BITMAP 
07E0
18F8
20FC
40FE
40FE
80FF
80FF
80FF
8001
8001
8001
4002
4002
2004
1818
07E0
ENDCHAR
STARTCHAR U+25D5
ENCODING 9685
SWIDTH 1000 0
DWIDTH 16 0
BBX 16 16 0 -2
BITMAP 
07E0
18F8
20FC
40FE
40FE
80FF
80FF
80FF
FFFF
FFFF
FFFF
7FFE
7FFE
3FFC
1FF8
07E0
ENDCHAR
STARTCHAR U+25D6
ENCODING 9686
SWIDTH 1000 0
DWIDTH 16 0
BBX 16 16 0 -2
BITMAP 
0700
1F00
3F00
7F00
7F00
FF00
FF00
FF00
FF00
FF00
FF00
7F00
7F00
3F00
1F00
0700
ENDCHAR
STARTCHAR U+25D7
ENCODING 9687
SWIDTH 1000 0
DWIDTH 16 0
BBX 16 16 0 -2
BITMAP 
00E0
00F8
00FC
00FE
00FE
00FF
00FF
00FF
00FF
00FF
00FF
00FE
00FE
00FC
00F8
00E0
ENDCHAR
STARTCHAR U+25D8
ENCODING 9688
SWIDTH 1000 0
DWIDTH 16 0
BBX 16 16 0 -2
BITMAP 
FFFF
FFFF
FFFF
FFFF
FC3F
F81F
F00F
F00F
F00F
F00F
F81F
FC3F
FFFF
FFFF
FFFF
FFFF
ENDCHAR
STARTCHAR U+25D9
ENCODING 9689
SWIDTH 1000 0
DWIDTH 16 0
BBX 16 16 0 -2
BITMAP 
FFFF
F81F
E7E7
DFFB
DFFB
BFFD
BFFD
BFFD
BFFD
BFFD
BFFD
DFFB
DFFB
E7E7
F81F
FFFF
ENDCHAR
STARTCHAR U+25DA
ENCODING 9690
SWIDTH 1000 0
DWIDTH 16 0
BBX 16 16 0 -2
BITMAP 
FFFF
F81F
E7E7
DFFB
DFFB
BFFD
BFFD
BFFD
0000
0000
0000
0000
0000
0000
0000
0000
ENDCHAR
STARTCHAR U+25DB
ENCODING 9691
SWIDTH 1000 0
DWIDTH 16 0
BBX 16 16 0 -2
BITMAP 
0000
0000
0000
0000
0000
0000
0000
0000
BFFD
BFFD
BFFD
DFFB
DFFB
E7E7
F81F
FFFF
ENDCHAR
STARTCHAR U+25DC
ENCODING 9692
SWIDTH 1000 0
DWIDTH 16 0
BBX 16 16 0 -2
BITMAP 
0700
1800
2000
4000
4000
8000
8000
8000
0000
0000
0000
0000
0000
0000
0000
0000
ENDCHAR
STARTCHAR U+25DD
ENCODING 9693
SWIDTH 1000 0
DWIDTH 16 0
BBX 16 16 0 -2
BITMAP 
00E0
0018
0004
0002
0002
0001
0001
0001
0000
0000
0000
0000
0000
0000
0000
0000
ENDCHAR
STARTCHAR U+25DE
ENCODING 9694
SWIDTH 1000 0
DWIDTH 16 0
BBX 16 16 0 -2
BITMAP 
0000
0000
0000
0000
0000
0000
0000
0000
0001
0001
0001
0002
0002
0004
0018
00E0
ENDCHAR
STARTCHAR U+25DF
ENCODING 9695
SWIDTH 1000 0
DWIDTH 16 0
BBX 16 16 0 -2
BITMAP 
0000
0000
0000
0000
0000
0000
0000
0000
8000
8000
8000
4000
4000
2000
1800
0700
ENDCHAR
STARTCHAR U+25E0
ENCODING 9696
SWIDTH 1000 0
DWIDTH 16 0
BBX 16 16 0 -2
BITMAP 
07E0
1818
2004
4002
4002
8001
8001
8001
0000
0000
0000
0000
0000
0000
0000
0000
ENDCHAR
STARTCHAR U+25E1
ENCODING 9697
SWIDTH 1000 0
DWIDTH 16 0
BBX 16 16 0 -2
BITMAP 
0000
0000
0000
0000
0000
0000
0000
0000
8001
8001
8001
4002
4002
2004
1818
07E0
ENDCHAR
STARTCHAR U+25E2
ENCODING 9698
SWIDTH 1000 0
DWIDTH 16 0
BBX 16 16 0 -2
BITMAP 
0001
0003
0007
000F
001F
003F
007F
00FF
01FF
03FF
07FF
0FFF
1FFF
3FFF
7FFF
FFFF
ENDCHAR
STARTCHAR U+25E3
ENCODING 9699
SWIDTH 1000 0
DWIDTH 16 0
BBX 16 16 0 -2
BITMAP 
8000
C000
E000
F000
F800
FC00
FE00
FF00
FF80
FFC0
FFE0
FFF0
FFF8
FFFC
FFFE
FFFF
ENDCHAR
STARTCHAR U+25E4
ENCODING 9700
SWIDTH 1000 0
DWIDTH 16 0
BBX 16 16 0 -2
BITMAP 
FFFF
FFFE
FFFC
FFF8
FFF0
FFE0
FFC0
FF80
FF00
FE00
FC00
F800
F000
E000
C000
8000
ENDCHAR
STARTCHAR U+25E5
ENCODING 9701
SWIDTH 1000 0
DWIDTH 16 0
BBX 16 16 0 -2
BITMAP 
FFFF
7FFF
3FFF
1FFF
0FFF
07FF
03FF
01FF
00FF
007F
003F
001F
000F
0007
0003
0001
ENDCHAR
STARTCHAR U+25E6
ENCODING 9702
SWIDTH 1000 0
DWIDTH 16 0
BBX 16 16 0 -2
BITMAP 
0000
0000
0000
0000
0000
0000
0180
0240
0240
0180
0000
0000
0000
0000
0000
0000
ENDCHAR
STARTCHAR U+25E7
ENCODING 9703
SWIDTH 1000 0
DWIDTH 16 0
BBX 16 16 0 -2
BITMAP 
FFFF
FF01
FF01
FF01
FF01
FF01
FF01
FF01
FF01
FF01
FF01
FF01
FF01
FF01
FF01
FFFF
ENDCHAR
STARTCHAR U+25E8
ENCODING 9704
SWIDTH 1000 0
DWIDTH 16 0
BBX 16 16 0 -2
BITMAP 
FFFF
80FF
80FF
80FF
80FF
80FF
80FF
80FF
80FF
80FF
80FF
80FF
80FF
80FF
80FF
FFFF
ENDCHAR
STARTCHAR U+25E9
ENCODING 9705
SWIDTH 1000 0
DWIDTH 16 0
BBX 16 16 0 -2
BITMAP 
FFFF
FFFF
FFFD
FFF9
FFF1
FFE1
FFC1
FF81
FF01
FE01
FC01
F801
F001
E001
C001
FFFF
ENDCHAR
STARTCHAR U+25EA
ENCODING 9706
SWIDTH 1000 0
DWIDTH 16 0
BBX 16 16 0 -2
BITMAP 
FFFF
8003
8007
800F
801F
803F
807F
80FF
81FF
83FF
87FF
8FFF
9FFF
BFFF
FFFF
FFFF
ENDCHAR
STARTCHAR U+25EB
ENCODING 9707
SWIDTH 1000 0
DWIDTH 16 0
BBX 16 16 0 -2
BITMAP 
FFFF
8181
8181
8181
8181
8181
8181
8181
8181
8181
8181
8181
8181
8181
8181
FFFF
ENDCHAR
STARTCHAR U+25EC
ENCODING 9708
SWIDTH 1000 0
DWIDTH 16 0
BBX 16 16 0 -2
BITMAP 
0180
0240
0240
0420
0420
0810
0810
1008
1008
2004
4182
4182
8001
8001
8001
FFFF
ENDCHAR
STARTCHAR U+25ED
ENCODING 9709
SWIDTH 1000 0
DWIDTH 16 0
BBX 16 16 0 -2
BITMAP 
0180
0340
0340
0720
0720
0F10
0F10
1F08
1F08
3F04
7F02
7F02
FF01
FF01
FF01
FFFF
ENDCHAR
STARTCHAR U+25EE
ENCODING 9710
SWIDTH 1000 0
DWIDTH 16 0
BBX 16 16 0 -2
BITMAP 
0180
02C0
02C0
04E0
04E0
08F0
08F0
10F8
10F8
20FC
40FE
40FE
80FF
80FF
80FF
FFFF
ENDCHAR
STARTCHAR U+25EF
ENCODING 9711
SWIDTH 1000 0
DWIDTH 16 0
BBX 16 16 0 -2
BITMAP 
07E0
1818
2004
4002
4002
8001
8001
8001
8001
8001
8001
4002
4002
2004
1818
07E0
ENDCHAR
STARTCHAR U+25F0
ENCODING 9712
SWIDTH 1000 0
DWIDTH 16 0
BBX 16 16 0 -2
BITMAP 
FFFF
8101
8101
8101
8101
8101
8101
FF01
8001
8001
8001
8001
8001
8001
8001
FFFF
ENDCHAR
STARTCHAR U+25F1
ENCODING 9713
SWIDTH 1000 0
DWIDTH 16 0
BBX 16 16 0 -2
BITMAP 
FFFF
8001
8001
8001
8001
8001
8001
8001
FF01
8101
8101
8101
8101
8101
8101
FFFF
ENDCHAR
STARTCHAR U+25F2
ENCODING 9714
SWIDTH 1000 0
DWIDTH 16 0
BBX 16 16 0 -2
BITMAP 
FFFF
8001
8001
8001
8001
8001
8001
8001
80FF
8081
8081
8081
8081
8081
8081
FFFF
ENDCHAR
STARTCHAR U+25F3
ENCODING 9715
SWIDTH 1000 0
DWIDTH 16 0
BBX 16 16 0 -2
BITMAP 
FFFF
8081
8081
8081
8081
8081
8081
80FF
8001
8001
8001
8001
8001
8001
8001
FFFF
ENDCHAR
STARTCHAR U+25F4
ENCODING 9716
SWIDTH 1000 0
DWIDTH 16 0
BBX 16 16 0 -2
BITMAP 
07E0
1918
2104
4102
4102
8101
8101
FF01
8001
8001
8001
4002
4002
2004
1818
07E0
ENDCHAR
STARTCHAR U+25F5
ENCODING 9717
SWIDTH 1000 0
DWIDTH 16 0
BBX 16 16 0 -2
BITMAP 
07E0
1818
2004
4002
4002
8001
8001
8001
FF01
8101
8101
4102
4102
2104
1918
07E0
ENDCHAR
STARTCHAR U+25F6
ENCODING 9718
SWIDTH 1000 0
DWIDTH 16 0
BBX 16 16 0 -2
BITMAP 
07E0
1818
2004
4002
4002
8001
8001
8001
80FF
8081
8081
4082
4082
2084
1898
07E0
ENDCHAR
STARTCHAR U+25F7
ENCODING 9719
SWIDTH 1000 0
DWIDTH 16 0
BBX 16 16 0 -2
BITMAP 
07E0
1898
2084
4082
4082
8081
8081
80FF
8001
8001
8001
4002
4002
2004
1818
07E0
ENDCHAR
STARTCHAR U+25F8
ENCODING 9720
SWIDTH 1000 0
DWIDTH 16 0
BBX 16 16 0 -2
BITMAP 
FFFF
8002
8004
8008
8010
8020
8040
8080
8100
8200
8400
8800
9000
A000
C000
8000
ENDCHAR
STARTCHAR U+25F9
ENCODING 9721
SWIDTH 1000 0
DWIDTH 16 0
BBX 16 16 0 -2
BITMAP 
FFFF
4001
2001
1001
0801
0401
0201
0101
0081
0041
0021
0011
0009
0005
0003
0001
ENDCHAR
STARTCHAR U+25FA
ENCODING 9722
SWIDTH 1000 0
DWIDTH 16 0
BBX 16 16 0 -2
BITMAP 
8000
C000
A000
9000
8800
8400
8200
8100
8080
8040
8020
8010
8008
8004
8002
FFFF
ENDCHAR
STARTCHAR U+25FB
ENCODING 9723
SWIDTH 1000 0
DWIDTH 16 0
BBX 16 16 0 -2
BITMAP 
0000
0000
3FFC
2004
2004
2004
2004
2004
2004
2004
2004
2004
2004
3FFC
0000
0000
ENDCHAR
STARTCHAR U+25FC
ENCODING 9724
SWIDTH 1000 0
DWIDTH 16 0
BBX 16 16 0 -2
BITMAP 
0000
0000
3FFC
3FFC
3FFC
3FFC
3FFC
3FFC
3FFC
3FFC
3FFC
3FFC
3FFC
3FFC
0000
0000
ENDCHAR
STARTCHAR U+25FD
ENCODING 9725
SWIDTH 1000 0
DWIDTH 16 0
BBX 16 16 0 -2
BITMAP 
0000
0000
0FF0
0810
0810
0810
0810
0810
0810
0FF0
0000
0000
0000
0000
0000
0000
ENDCHAR
STARTCHAR U+25FE
ENCODING 9726
SWIDTH 1000 0
DWIDTH 16 0
BBX 16 16 0 -2
BITMAP 
0000
0000
0FF0
0FF0
0FF0
0FF0
0FF0
0FF0
0FF0
0FF0
0000
0000
0000
0000
0000
0000
ENDCHAR
STARTCHAR U+25FF
ENCODING 9727
SWIDTH 1000 0
DWIDTH 16 0
BBX 16 16 0 -2
BITMAP 
0001
0003
0005
0009
0011
0021
0041
0081
0101
0201
0401
0801
1001
2001
4001
FFFF
ENDCHAR
STARTCHAR U+2654
ENCODING 9812
SWIDTH 1000 0
DWIDTH 16 0
BBX 16 16 0 -2
BITMAP 
0000
0080
01C0
1C9C
2362
21C2
2082
1084
1084
0888
0888
0FF8
0808
0FF8
0000
0000
ENDCHAR
STARTCHAR U+2655
ENCODING 9813
SWIDTH 1000 0
DWIDTH 16 0
BBX 16 16 0 -2
BITMAP 
0000
0080
0948
1494
0888
2492
5495
2492
12A4
12A4
0AA8
0FF8
0808
0FF8
0000
0000
ENDCHAR
STARTCHAR U+2656
ENCODING 9814
SWIDTH 1000 0
DWIDTH 16 0
BBX 16 16 0 -2
BITMAP 
0000
0000
0DD8
0B68
0808
0808
0FF8
0220
0220
0220
0410
0808
0808
0FF8
0000
0000
ENDCHAR
STARTCHAR U+2657
ENCODING 9815
SWIDTH 1000 0
DWIDTH 16 0
BBX 16 16 0 -2
BITMAP 
0000
0080
0140
0080
0140
0220
0490
05D0
0490
0220
0360
0080
0770
0808
0000
0000
ENDCHAR
STARTCHAR U+2658
ENCODING 9816
SWIDTH 1000 0
DWIDTH 16 0
BBX 16 16 0 -2
BITMAP 
0000
0000
00C0
03A0
0410
0A08
1008
2184
2644
1884
0104
0604
0404
07FC
0000
0000
ENDCHAR
STARTCHAR U+2659
ENCODING 9817
SWIDTH 1000 0
DWIDTH 16 0
BBX 16 16 0 -2
BITMAP 
0000
0000
01C0
0220
0220
0220
0140
0220
0140
0140
0140
0220
0410
07F0
0000
0000
ENDCHAR
STARTCHAR U+265A
ENCODING 9818
SWIDTH 1000 0
DWIDTH 16 0
BBX 16 16 0 -2
BITMAP 
0000
0080
01C0
1C9C
2362
2DDA
2EBA
16B4
16B4
0AA8
0AA8
0FF8
0FF8
0FF8
0000
0000
ENDCHAR
STARTCHAR U+265B
ENCODING 9819
SWIDTH 1000 0
DWIDTH 16 0
BBX 16 16 0 -2
BITMAP 
0000
0080
09C8
1C9C
0888
2492
7497
2492
12A4
12A4
0AA8
0FF8
0FF8
0FF8
0000
0000
ENDCHAR
STARTCHAR U+265C
ENCODING 9820
SWIDTH 1000 0
DWIDTH 16 0
BBX 16 16 0 -2
BITMAP 
0000
0000
0DD8
0FF8
0FF8
0FF8
0FF8
03E0
03E0
03E0
07F0
0FF8
0FF8
0FF8
0000
0000
ENDCHAR
STARTCHAR U+265D
ENCODING 9821
SWIDTH 1000 0
DWIDTH 16 0
BBX 16 16 0 -2
BITMAP 
0000
0080
01C0
0080
01C0
03E0
0770
0630
0770
03E0
03E0
0080
0770
0808
0000
0000
ENDCHAR
STARTCHAR U+265E
ENCODING 9822
SWIDTH 1000 0
DWIDTH 16 0
BBX 16 16 0 -2
BITMAP 
0000
0000
00C0
03E0
07F0
0DF8
1FF8
3FFC
3E7C
18FC
01FC
07FC
07FC
07FC
0000
0000
ENDCHAR
STARTCHAR U+265F
ENCODING 9823
SWIDTH 1000 0
DWIDTH 16 0
BBX 16 16 0 -2
BITMAP 
0000
0000
01C0
03E0
03E0
03E0
01C0
03E0
01C0
01C0
01C0
03E0
07F0
07F0
0000
0000
ENDCHAR
STARTCHAR U+2680
ENCODING 9856
SWIDTH 1000 0
DWIDTH 16 0
BBX 16 16 0 -2
BITMAP 
FFFF
8001
8001
8001
8001
8001
8001
8181
8181
8001
8001
8001
8001
8001
8001
FFFF
ENDCHAR
STARTCHAR U+2681
ENCODING 9857
SWIDTH 1000 0
DWIDTH 16 0
BBX 16 16 0 -2
BITMAP 
FFFF
8001
8001
8019
8019
8001
8001
8001
8001
8001
8001
9801
9801
8001
8001
FFFF
ENDCHAR
STARTCHAR U+2682
ENCODING 9858
SWIDTH 1000 0
DWIDTH 16 0
BBX 16 16 0 -2
BITMAP 
FFFF
8001
8001
8019
8019
8001
8001
8181
8181
8001
8001
9801
9801
8001
8001
FFFF
ENDCHAR
STARTCHAR U+2683
ENCODING 9859
SWIDTH 1000 0
DWIDTH 16 0
BBX 16 16 0 -2
BITMAP 
FFFF
8001
8001
9819
9819
8001
8001
8001
8001
8001
8001
9819
9819
8001
8001
FFFF
ENDCHAR
STARTCHAR U+2684
ENCODING 9860
SWIDTH 1000 0
DWIDTH 16 0
BBX 16 16 0 -2
BITMAP 
FFFF
8001
8001
9819
9819
8001
8001
8181
8181
8001
8001
9819
9819
8001
8001
FFFF
ENDCHAR
STARTCHAR U+2685
ENCODING 9861
SWIDTH 1000 0
DWIDTH 16 0
BBX 16 16 0 -2
BITMAP 
FFFF
8001
8001
9819
9819
8001
8001
9819
9819
8001
8001
9819
9819
8001
8001
FFFF
ENDCHAR
STARTCHAR U+2686
ENCODING 9862
SWIDTH 1000 0
DWIDTH 16 0
BBX 16 16 0 -2
BITMAP 
07E0
1818
2004
4002
4002
8001
8001
8019
8019
8001
8001
4002
4002
2004
1818
07E0
ENDCHAR
STARTCHAR U+2687
ENCODING 9863
SWIDTH 1000 0
DWIDTH 16 0
BBX 16 16 0 -2
BITMAP 
07E0
1818
2004
4002
4002
8001
8001
9819
9819
8001
8001
4002
4002
2004
1818
07E0
ENDCHAR
STARTCHAR U+2688
ENCODING 9864
SWIDTH 1000 0
DWIDTH 16 0
BBX 16 16 0 -2
BITMAP 
07E0
1FF8
3FFC
7FFE
7FFE
FFFF
FFFF
FFE7
FFE7
FFFF
FFFF
7FFE
7FFE
3FFC
1FF8
07E0
ENDCHAR
STARTCHAR U+2689
ENCODING 9865
SWIDTH 1000 0
DWIDTH 16 0
BBX 16 16 0 -2
BITMAP 
07E0
1FF8
3FFC
7FFE
7FFE
FFFF
FFFF
E7E7
E7E7
FFFF
FFFF
7FFE
7FFE
3FFC
1FF8
07E0
ENDCHAR
STARTCHAR U+26C0
ENCODING 9920
SWIDTH 1000 0
DWIDTH 16 0
BBX 16 16 0 -2
BITMAP 
0FF0
300C
4002
8001
8001
8181
8181
8001
8001
C003
B00D
8FF1
8001
4002
300C
0FF0
ENDCHAR
STARTCHAR U+26C1
ENCODING 9921
SWIDTH 1000 0
DWIDTH 16 0
BBX 16 16 0 -2
BITMAP 
07E0
381C
4242
8281
8301
8281
8241
C003
B00D
8FF1
C003
B00D
8FF1
4002
300C
0FF0
ENDCHAR
STARTCHAR U+26C2
ENCODING 9922
SWIDTH 1000 0
DWIDTH 16 0
BBX 16 16 0 -2
BITMAP 
07E0
3FFC
7FFE
FFFF
FFFF
FE7F
FE7F
FFFF
7FFE
BFFD
CFF3
F00F
FFFF
7FFE
3FFC
0FF0
ENDCHAR
STARTCHAR U+26C3
ENCODING 9923
SWIDTH 1000 0
DWIDTH 16 0
BBX 16 16 0 -2
BITMAP 
07E0
3FFC
7DBE
FD7F
FCFF
FD7F
7DBE
BFFD
CFF3
700E
BFFD
CFF3
F00F
7FFE
3FFC
0FF0
ENDCHAR
STARTCHAR U+2776
ENCODING 10102
SWIDTH 1000 0
DWIDTH 16 0
BBX 16 16 0 -2
BITMAP 
07E0
1FF8
3FFC
7F7E
7E7E
FD7F
FF7F
FF7F
FF7F
FF7F
FF7F
7F7E
7C1E
3FFC
1FF8
07E0
ENDCHAR
STARTCHAR U+2777
ENCODING 10103
SWIDTH 1000 0
DWIDTH 16 0
BBX 16 16 0 -2
BITMAP 
07E0
1FF8
3FFC
7C3E
7BDE
FBDF
FFDF
FF3F
FEFF
FDFF
FBFF
7BFE
781E
3FFC
1FF8
07E0
ENDCHAR
STARTCHAR U+2778
ENCODING 10104
SWIDTH 1000 0
DWIDTH 16 0
BBX 16 16 0 -2
BITMAP 
07E0
1FF8
3FFC
7C3E
7BDE
FBDF
FFDF
FE3F
FFDF
FFDF
FBDF
7BDE
7C3E
3FFC
1FF8
07E0
ENDCHAR
STARTCHAR U+2779
ENCODING 10105
SWIDTH 1000 0
DWIDTH 16 0
BBX 16 16 0 -2
BITMAP 
07E0
1FF8
3FFC
7FBE
7F3E
FEBF
FDBF
FBBF
FBBF
F81F
FFBF
7FBE
7FBE
3FFC
1FF8
07E0
ENDCHAR
STARTCHAR U+277A
ENCODING 10106
SWIDTH 1000 0
DWIDTH 16 0
BBX 16 16 0 -2
BITMAP 
07E0
1FF8
3FFC
781E
7BFE
FBFF
FBFF
F83F
FFDF
FFDF
FFDF
7BDE
7C3E
3FFC
1FF8
07E0
ENDCHAR
STARTCHAR U+277B
ENCODING 10107
SWIDTH 1000 0
DWIDTH 16 0
BBX 16 16 0 -2
BITMAP 
07E0
1FF8
3FFC
7E3E
7DFE
FBFF
FBFF
F83F
FBDF
FBDF
FBDF
7BDE
7C3E
3FFC
1FF8
07E0
ENDCHAR
STARTCHAR U+277C
ENCODING 10108
SWIDTH 1000 0
DWIDTH 16 0
BBX 16 16 0 -2
BITMAP 
07E0
1FF8
3FFC
781E
7FDE
FFDF
FFBF
FFBF
FFBF
FF7F
FF7F
7F7E
7F7E
3FFC
1FF8
07E0
ENDCHAR
STARTCHAR U+277D
ENCODING 10109
SWIDTH 1000 0
DWIDTH 16 0
BBX 16 16 0 -2
BITMAP 
07E0
1FF8
3FFC
7C3E
7BDE
FBDF
FBDF
FC3F
FBDF
FBDF
FBDF
7BDE
7C3E
3FFC
1FF8
07E0
ENDCHAR
STARTCHAR U+277E
ENCODING 10110
SWIDTH 1000 0
DWIDTH 16 0
BBX 16 16 0 -2
BITMAP 
07E0
1FF8
3FFC
7C3E
7BDE
FBDF
FBDF
FC1F
FFDF
FFDF
FFDF
7FBE
7C7E
3FFC
1FF8
07E0
ENDCHAR
STARTCHAR U+277F
ENCODING 10111
SWIDTH 1000 0
DWIDTH 16 0
BBX 16 16 0 -2
BITMAP 
07E0
1FF8
3FFC
7BCE
73B6
EB7B
FB73
FB6B
FB5B
FB3B
FB7B
7BB6
60CE
3FFC
1FF8
07E0
ENDCHAR
STARTCHAR U+2780
ENCODING 10112
SWIDTH 1000 0
DWIDTH 16 0
BBX 16 16 0 -2
BITMAP 
07E0
1818
2004
4082
4182
8281
8081
8081
8081
8081
8081
4082
43E2
2004
1818
07E0
ENDCHAR
STARTCHAR U+2781
ENCODING 10113
SWIDTH 1000 0
DWIDTH 16 0
BBX 16 16 0 -2
BITMAP 
07E0
1818
2004
43C2
4422
8421
8021
80C1
8101
8201
8401
4402
47E2
2004
1818
07E0
ENDCHAR
STARTCHAR U+2782
ENCODING 10114
SWIDTH 1000 0
DWIDTH 16 0
BBX 16 16 0 -2
BITMAP 
07E0
1818
2004
43C2
4422
8421
8021
81C1
8021
8021
8421
4422
43C2
2004
1818
07E0
ENDCHAR
STARTCHAR U+2783
ENCODING 10115
SWIDTH 1000 0
DWIDTH 16 0
BBX 16 16 0 -2
BITMAP 
07E0
1818
2004
4042
40C2
8141
8241
8441
8441
87E1
8041
4042
4042
2004
1818
07E0
ENDCHAR
STARTCHAR U+2784
ENCODING 10116
SWIDTH 1000 0
DWIDTH 16 0
BBX 16 16 0 -2
BITMAP 
07E0
1818
2004
47E2
4402
8401
8401
87C1
8021
8021
8021
4422
43C2
2004
1818
07E0
ENDCHAR
STARTCHAR U+2785
ENCODING 10117
SWIDTH 1000 0
DWIDTH 16 0
BBX 16 16 0 -2
BITMAP 
07E0
1818
2004
41C2
4202
8401
8401
87C1
8421
8421
8421
4422
43C2
2004
1818
07E0
ENDCHAR
STARTCHAR U+2786
ENCODING 10118
SWIDTH 1000 0
DWIDTH 16 0
BBX 16 16 0 -2
BITMAP 
07E0
1818
2004
47E2
4022
8021
8041
8041
8041
8081
8081
4082
4082
2004
1818
07E0
ENDCHAR
STARTCHAR U+2787
ENCODING 10119
SWIDTH 1000 0
DWIDTH 16 0
BBX 16 16 0 -2
BITMAP 
07E0
1818
2004
43C2
4422
8421
8421
83C1
8421
8421
8421
4422
43C2
2004
1818
07E0
ENDCHAR
STARTCHAR U+2788
ENCODING 10120
SWIDTH 1000 0
DWIDTH 16 0
BBX 16 16 0 -2
BITMAP 
07E0
1818
2004
43C2
4422
8421
8421
83E1
8021
8021
8021
4042
4382
2004
1818
07E0
ENDCHAR
STARTCHAR U+2789
ENCODING 10121
SWIDTH 1000 0
DWIDTH 16 0
BBX 16 16 0 -2
BITMAP 
07E0
1818
2004
4432
4C4A
9485
848D
8495
84A5
84C5
8485
444A
5F32
2004
1818
07E0
ENDCHAR
STARTCHAR U+278A
ENCODING 10122
SWIDTH 1000 0
DWIDTH 16 0
BBX 16 16 0 -2
BITMAP 
07E0
1FF8
3FFC
7F7E
7E7E
FD7F
FF7F
FF7F
FF7F
FF7F
FF7F
7F7E
7C1E
3FFC
1FF8
07E0
ENDCHAR
STARTCHAR U+278B
ENCODING 10123
SWIDTH 1000 0
DWIDTH 16 0
BBX 16 16 0 -2
BITMAP 
07E0
1FF8
3FFC
7C3E
7BDE
FBDF
FFDF
FF3F
FEFF
FDFF
FBFF
7BFE
781E
3FFC
1FF8
07E0
ENDCHAR
STARTCHAR U+278C
ENCODING 10124
SWIDTH 1000 0
DWIDTH 16 0
BBX 16 16 0 -2
BITMAP 
07E0
1FF8
3FFC
7C3E
7BDE
FBDF
FFDF
FE3F
FFDF
FFDF
FBDF
7BDE
7C3E
3FFC
1FF8
07E0
ENDCHAR
STARTCHAR U+278D
ENCODING 10125
SWIDTH 1000 0
DWIDTH 16 0
BBX 16 16 0 -2
BITMAP 
07E0
1FF8
3FFC
7FBE
7F3E
FEBF
FDBF
FBBF
FBBF
F81F
FFBF
7FBE
7FBE
3FFC
1FF8
07E0
ENDCHAR
STARTCHAR U+278E
ENCODING 10126
SWIDTH 1000 0
DWIDTH 16 0
BBX 16 16 0 -2
BITMAP 
07E0
1FF8
3FFC
781E
7BFE
FBFF
FBFF
F83F
FFDF
FFDF
FFDF
7BDE
7C3E
3FFC
1FF8
07E0
ENDCHAR
STARTCHAR U+278F
ENCODING 10127
SWIDTH 1000 0
DWIDTH 16 0
BBX 16 16 0 -2
BITMAP 
07E0
1FF8
3FFC
7E3E
7DFE
FBFF
FBFF
F83F
FBDF
FBDF
FBDF
7BDE
7C3E
3FFC
1FF8
07E0
ENDCHAR
STARTCHAR U+2790
ENCODING 10128
SWIDTH 1000 0
DWIDTH 16 0
BBX 16 16 0 -2
BITMAP 
07E0
1FF8
3FFC
781E
7FDE
FFDF
FFBF
FFBF
FFBF
FF7F
FF7F
7F7E
7F7E
3FFC
1FF8
07E0
ENDCHAR
STARTCHAR U+2791
ENCODING 10129
SWIDTH 1000 0
DWIDTH 16 0
BBX 16 16 0 -2
BITMAP 
07E0
1FF8
3FFC
7C3E
7BDE
FBDF
FBDF
FC3F
FBDF
FBDF
FBDF
7BDE
7C3E
3FFC
1FF8
07E0
ENDCHAR
STARTCHAR U+2792
ENCODING 10130
SWIDTH 1000 0
DWIDTH 16 0
BBX 16 16 0 -2
BITMAP 
07E0
1FF8
3FFC
7C3E
7BDE
FBDF
FBDF
FC1F
FFDF
FFDF
FFDF
7FBE
7C7E
3FFC
1FF8
07E0
ENDCHAR
STARTCHAR U+2793
ENCODING 10131
SWIDTH 1000 0
DWIDTH 16 0
BBX 16 16 0 -2
BITMAP 
07E0
1FF8
3FFC
7BCE
73B6
EB7B
FB73
FB6B
FB5B
FB3B
FB7B
7BB6
60CE
3FFC
1FF8
07E0
ENDCHAR
STARTCHAR U+2800
ENCODING 10240
SWIDTH 1000 0
DWIDTH 16 0
BBX 16 16 0 -2
BITMAP 
0000
0000
0000
0000
0000
0000
0000
0000
0000
0000
0000
0000
0000
0000
0000
0000
ENDCHAR
STARTCHAR U+2801
ENCODING 10241
SWIDTH 1000 0
DWIDTH 16 0
BBX 16 16 0 -2
BITMAP 
0000
0000
0000
1800
1800
0000
0000
0000
0000
0000
0000
0000
0000
0000
0000
0000
ENDCHAR
STARTCHAR U+2802
ENCODING 10242
SWIDTH 1000 0
DWIDTH 16 0
BBX 16 16 0 -2
BITMAP 
0000
0000
0000
0000
0000
0000
0000
1800
1800
0000
0000
0000
0000
0000
0000
0000
ENDCHAR
STARTCHAR U+2803
ENCODING 10243
SWIDTH 1000 0
DWIDTH 16 0
BBX 16 16 0 -2
BITMAP 
0000
0000
0000
1800
1800
0000
0000
1800
1800
0000
0000
0000
0000
0000
0000
0000
ENDCHAR
STARTCHAR U+2804
ENCODING 10244
SWIDTH 1000 0
DWIDTH 16 0
BBX 16 16 0 -2
BITMAP 
0000
0000
0000
0000
0000
0000
0000
0000
0000
0000
0000
1800
1800
0000
0000
0000
ENDCHAR
STARTCHAR U+2805
ENCODING 10245
SWIDTH 1000 0
DWIDTH 16 0
BBX 16 16 0 -2
BITMAP 
0000
0000
0000
1800
1800
0000
0000
0000
0000
0000
0000
1800
1800
0000
0000
0000
ENDCHAR
STARTCHAR U+2806
ENCODING 10246
SWIDTH 1000 0
DWIDTH 16 0
BBX 16 16 0 -2
BITMAP 
0000
0000
0000
0000
0000
0000
0000
1800
1800
0000
0000
1800
1800
0000
0000
0000
ENDCHAR
STARTCHAR U+2807
ENCODING 10247
SWIDTH 1000 0
DWIDTH 16 0
BBX 16 16 0 -2
BITMAP 
0000
0000
0000
1800
1800
0000
0000
1800
1800
0000
0000
1800
1800
0000
0000
0000
ENDCHAR
STARTCHAR U+2808
ENCODING 10248
SWIDTH 1000 0
DWIDTH 16 0
BBX 16 16 0 -2
BITMAP 
0000
0000
0000
0018
0018
0000
0000
0000
0000
0000
0000
0000
0000
0000
0000
0000
ENDCHAR
STARTCHAR U+2809
ENCODING 10249
SWIDTH 1000 0
DWIDTH 16 0
BBX 16 16 0 -2
BITMAP 
0000
0000
0000
1818
1818
0000
0000
0000
0000
0000
0000
0000
0000
0000
0000
0000
ENDCHAR
STARTCHAR U+280A
ENCODING 10250
SWIDTH 1000 0
DWIDTH 16 0
BBX 16 16 0 -2
BITMAP 
0000
0000
0000
0018
0018
0000
0000
1800
1800
0000
0000
0000
0000
0000
0000
0000
ENDCHAR
STARTCHAR U+280B
ENCODING 10251
SWIDTH 1000 0
DWIDTH 16 0
BBX 16 16 0 -2
BITMAP 
0000
0000
0000
1818
1818
0000
0000
1800
1800
0000
0000
0000
0000
0000
0000
0000
ENDCHAR
STARTCHAR U+280C
ENCODING 10252
SWIDTH 1000 0
DWIDTH 16 0
BBX 16 16 0 -2
BITMAP 
0000
0000
0000
0018
0018
0000
0000
0000
0000
0000
0000
1800
1800
0000
0000
0000
ENDCHAR
STARTCHAR U+280D
ENCODING 10253
SWIDTH 1000 0
DWIDTH 16 0
BBX 16 16 0 -2
BITMAP 
0000
0000
0000
1818
1818
0000
0000
0000
0000
0000
0000
1800
1800
0000
0000
0000
ENDCHAR
STARTCHAR U+280E
ENCODING 10254
SWIDTH 1000 0
DWIDTH 16 0
BBX 16 16 0 -2
BITMAP 
0000
0000
0000
0018
0018
0000
0000
1800
1800
0000
0000
1800
1800
0000
0000
0000
ENDCHAR
STARTCHAR U+280F
ENCODING 10255
SWIDTH 1000 0
DWIDTH 16 0
BBX 16 16 0 -2
BITMAP 
0000
0000
0000
1818
1818
0000
0000
1800
1800
0000
0000
1800
1800
0000
0000
0000
ENDCHAR
STARTCHAR U+2810
ENCODING 10256
SWIDTH 1000 0
DWIDTH 16 0
BBX 16 16 0 -2
BITMAP 
0000
0000
0000
0000
0000
0000
0000
0018
0018
0000
0000
0000
0000
0000
0000
0000
ENDCHAR
STARTCHAR U+2811
ENCODING 10257
SWIDTH 1000 0
DWIDTH 16 0
BBX 16 16 0 -2
BITMAP 
0000
0000
0000
1800
1800
0000
0000
0018
0018
0000
0000
0000
0000
0000
0000
0000
ENDCHAR
STARTCHAR U+2812
ENCODING 10258
SWIDTH 1000 0
DWIDTH 16 0
BBX 16 16 0 -2
BITMAP 
0000
0000
0000
0000
0000
0000
0000
1818
1818
0000
0000
0000
0000
0000
0000
0000
ENDCHAR
STARTCHAR U+2813
ENCODING 10259
SWIDTH 1000 0
DWIDTH 16 0
BBX 16 16 0 -2
BITMAP 
0000
0000
0000
1800
1800
0000
0000
1818
1818
0000
0000
0000
0000
0000
0000
0000
ENDCHAR
STARTCHAR U+2814
ENCODING 10260
SWIDTH 1000 0
DWIDTH 16 0
BBX 16 16 0 -2
BITMAP 
0000
0000
0000
0000
0000
0000
0000
0018
0018
0000
0000
1800
1800
0000
0000
0000
ENDCHAR
ENDFONT
